<svg width="93" height="28" viewBox="0 0 93 28" fill="none" xmlns="http://www.w3.org/2000/svg">
<path d="M72.2776 26.3098C70.9953 26.2937 70.0833 26.0604 69.5415 25.6099C69.0177 25.1754 68.7559 24.4755 68.7559 23.51C68.7559 22.6894 69.0177 22.0619 69.5415 21.6274C70.0833 21.193 70.8689 20.9838 71.8984 20.9999L88.6404 21.193C89.7059 21.2091 90.4735 21.4343 90.9431 21.8688C91.4307 22.2871 91.6745 22.9147 91.6745 23.7514C91.6745 25.6823 90.6812 26.6316 88.6945 26.5995L72.2776 26.3098Z" fill="white"/>
<path d="M54.7561 12.6524L54.7833 10.9612H52.6407L52.6949 12.6524H54.7561ZM66.8523 6.34875C67.0511 7.15166 67.2139 7.9631 67.3404 8.78309C67.4851 8.73184 67.684 8.63788 67.9371 8.50122C68.2626 8.3133 68.5428 8.21935 68.7779 8.21935C69.2118 8.21935 69.5553 8.44997 69.8085 8.91121C70.0616 9.35537 70.1882 10.0472 70.1882 10.9868C70.1882 11.9435 70.0164 12.6609 69.6729 13.1393C69.3293 13.6176 68.8502 13.8568 68.2354 13.8568C68.1089 13.8568 67.9371 13.8397 67.7201 13.8055V14.6511C67.7201 15.8128 67.3676 16.7011 66.6624 17.3161C65.9753 17.914 64.9538 18.2129 63.5977 18.2129C62.4767 18.2129 61.6811 18.0677 61.211 17.7773C60.7409 17.4698 60.5059 17.0342 60.5059 16.4705C60.5059 16.1459 60.5511 15.8469 60.6415 15.5736C60.75 15.3003 60.9308 14.9928 61.1839 14.6511C61.4732 12.7549 61.6178 10.8758 61.6178 9.01371C61.6178 8.00581 61.5817 7.10041 61.5094 6.2975C61.4551 5.63126 61.6269 5.11877 62.0247 4.76003C62.4405 4.3842 63.0824 4.19629 63.9503 4.19629C64.7458 4.19629 65.3877 4.39274 65.8759 4.78565C66.3641 5.16148 66.6895 5.68251 66.8523 6.34875ZM59.8821 26.3615C59.8821 25.7807 60.1533 25.3109 60.6957 24.9522C60.9127 24.5593 61.0212 24.0639 61.0212 23.466L51.3389 23.3122C50.2721 23.2951 49.4765 23.0731 48.9522 22.646C48.4459 22.2189 48.1928 21.5612 48.1928 20.6729C48.1928 19.1525 49.1692 18.4094 51.1219 18.4436L64.6012 18.6998C65.5595 18.7169 66.2917 18.9731 66.798 19.4685C67.3224 19.9469 67.5845 20.6302 67.5845 21.5185C67.5845 23.0731 67.476 24.3201 67.2591 25.2597C67.0602 26.1993 66.6172 26.8911 65.9301 27.3353C65.2611 27.7794 64.2848 28.0015 63.001 28.0015C61.9523 28.0015 61.1658 27.8563 60.6415 27.5659C60.1352 27.2755 59.8821 26.874 59.8821 26.3615ZM47.2707 7.47624C47.2526 6.55375 47.4515 5.87897 47.8673 5.45189C48.3013 5.02482 48.9793 4.81128 49.9014 4.81128C50.6427 4.81128 51.2123 4.94794 51.6101 5.22127C52.0078 5.4946 52.2791 5.92168 52.4237 6.5025H54.9189C55.0274 5.85334 55.2895 5.37502 55.7054 5.06752C56.1213 4.76003 56.7179 4.60628 57.4954 4.60628C58.4175 4.60628 59.0865 4.81982 59.5024 5.2469C59.9363 5.67397 60.1442 6.34875 60.1262 7.27124L60.0177 14.2667C59.9996 15.2746 59.7103 16.0434 59.1498 16.573C58.6074 17.0855 57.8118 17.3332 56.7631 17.3161L50.6879 17.2136C48.5725 17.1965 47.4876 16.1715 47.4334 14.1386L47.2707 7.47624Z" fill="white"/>
<path d="M37.7993 6.54538C37.7269 6.963 37.6635 7.27621 37.6092 7.48502C40.1255 8.02444 41.954 8.65087 43.0945 9.36429C44.235 10.0603 44.8052 10.8869 44.8052 11.8439C44.8052 12.5747 44.5246 13.1489 43.9634 13.5666C43.4022 13.9842 42.6057 14.193 41.5738 14.193C40.0712 14.193 38.9398 13.8276 38.1795 13.0967C37.401 12.3485 36.4053 11.7656 35.1924 11.348C34.233 12.218 33.1015 12.8966 31.7981 13.3839C30.5127 13.8537 29.1822 14.0886 27.8063 14.0886C26.6839 14.0886 25.8421 13.9059 25.2809 13.5405C24.7197 13.1576 24.4391 12.6356 24.4391 11.9744C24.4391 11.4002 24.6292 10.9304 25.0094 10.5649C25.4076 10.1995 25.9598 9.94722 26.6658 9.80801C27.8968 9.3904 28.8744 8.91188 29.5985 8.37246C30.3408 7.83303 30.902 7.18921 31.2821 6.44098C32.0244 4.94452 33.2373 4.19629 34.9209 4.19629C35.8984 4.19629 36.6407 4.4138 37.1476 4.84882C37.6726 5.28383 37.8898 5.84935 37.7993 6.54538ZM25.7969 19.0478C24.765 19.0304 24.0228 18.839 23.5702 18.4736C23.1357 18.0907 22.9185 17.5078 22.9185 16.7248C22.9185 16.0114 23.1266 15.4719 23.543 15.1065C23.9594 14.7411 24.6202 14.5584 25.5253 14.5584L43.366 14.6106C44.2531 14.6106 44.8867 14.7846 45.2668 15.1326C45.647 15.4806 45.8371 16.0375 45.8371 16.8031C45.8371 17.6209 45.6199 18.2299 45.1854 18.6302C44.7509 19.0304 44.0539 19.2218 43.0945 19.2044L38.451 19.1522V20.7704C38.451 21.3447 38.2066 21.7797 37.7178 22.0755C37.2471 22.3539 36.4959 22.4931 35.464 22.4931C34.4321 22.4931 33.6718 22.3539 33.183 22.0755C32.7123 21.7797 32.4769 21.3447 32.4769 20.7704V19.1L25.7969 19.0478ZM27.9421 19.7003C28.9921 19.7003 29.7796 19.9352 30.3046 20.405C30.8477 20.8574 31.1192 21.4752 31.1192 22.2582V23.3544H42.1441C43.0673 23.3544 43.7281 23.5198 44.1263 23.8504C44.5427 24.181 44.7509 24.7117 44.7509 25.4425C44.7509 26.3648 44.5065 27.026 44.0177 27.4262C43.5289 27.8264 42.7596 28.0178 41.7096 28.0004L28.458 27.6872C27.2451 27.6698 26.3581 27.3827 25.7969 26.8259C25.2538 26.2865 24.946 25.4251 24.8736 24.2419L24.765 22.2582C24.7288 21.4752 24.9822 20.8574 25.5253 20.405C26.0684 19.9352 26.874 19.7003 27.9421 19.7003Z" fill="white"/>
<path d="M3.38633 17.9517C3.38633 17.6342 3.44051 17.3669 3.54887 17.1497C3.67529 16.9157 3.89202 16.6735 4.19904 16.4228C4.52413 15.4871 4.74085 14.6768 4.84922 13.9917C4.95758 13.3066 5.01176 12.3626 5.01176 11.1596H3.7385C2.72712 11.1596 1.95955 10.9173 1.4358 10.4327C0.91205 9.93145 0.650174 9.19627 0.650174 8.22715C0.650174 7.375 0.88496 6.74842 1.35453 6.34741C1.84216 5.9464 2.54652 5.72918 3.4676 5.69576L7.775 5.59551C8.85863 5.5788 9.67134 5.82943 10.2132 6.34741C10.755 6.84867 11.0259 7.60057 11.0259 8.6031C11.0259 11.4937 10.8543 13.7411 10.5112 15.3451C10.8362 15.3117 11.1162 15.295 11.351 15.295C12.3262 15.295 13.0848 15.5122 13.6266 15.9466C14.1864 16.3811 14.4664 16.9826 14.4664 17.7512V20.9092L19.8845 20.9844C20.9501 21.0011 21.7176 21.235 22.1872 21.6861C22.6748 22.1206 22.9186 22.7722 22.9186 23.6411C22.9186 25.6461 21.9253 26.6319 19.9387 26.5985L3.52178 26.2978C2.23949 26.2811 1.32744 26.0388 0.785627 25.5709C0.261876 25.1198 0 24.393 0 23.3904C0 22.5383 0.261876 21.8866 0.785627 21.4355C1.32744 20.9844 2.11307 20.7671 3.14251 20.7838L8.23554 20.834V19.255C7.72985 19.4555 7.07968 19.5557 6.28502 19.5557C4.35256 19.5557 3.38633 19.0211 3.38633 17.9517ZM14.7644 17.9517C14.7644 17.6342 14.8186 17.3669 14.9269 17.1497C15.0533 16.9157 15.2701 16.6735 15.5771 16.4228C15.7938 15.4871 15.9383 14.6768 16.0105 13.9917C16.0828 13.3066 16.1189 12.3626 16.1189 11.1596H14.3851C13.3737 11.1596 12.6062 10.9173 12.0824 10.4327C11.5587 9.93145 11.2968 9.19627 11.2968 8.22715C11.2968 6.57298 12.2359 5.72918 14.1142 5.69576L18.8821 5.59551C19.9658 5.5788 20.7785 5.82943 21.3203 6.34741C21.8621 6.84867 22.133 7.60057 22.133 8.6031C22.133 10.675 22.0788 12.3626 21.9705 13.6659C21.8621 14.9692 21.6815 16.1054 21.4287 17.0745C21.1939 17.9433 20.7785 18.5783 20.1825 18.9793C19.5865 19.3636 18.7467 19.5557 17.6631 19.5557C15.7306 19.5557 14.7644 19.0211 14.7644 17.9517Z" fill="white"/>
<path d="M83.9871 19.0836C82.0081 18.7311 80.0729 18.6848 78.142 19.0653C76.114 19.4647 74.0751 18.6794 73.2075 17.2142C72.2876 15.6606 73.2075 12.5164 76.6879 11.9005C77.9066 11.1736 77.338 8.57434 81.369 8.57422C85.1954 9.02949 84.9674 11.8774 86.0501 12.5164C88.844 13.009 89.623 15.5469 88.844 17.0468C88.0583 18.5596 86.0573 19.4525 83.9871 19.0836Z" fill="white"/>
<path d="M85.6659 6.29549C84.8701 6.79887 83.8749 6.80465 83.2241 6.34167C81.4864 5.1073 81.9487 1.91502 84.0464 0.700098C84.822 0.250775 85.7738 0.277295 86.3995 0.729876C88.0703 1.93933 87.681 5.02037 85.6667 6.29533L85.6659 6.29549Z" fill="white"/>
<path d="M72.846 10.8804C72.3688 10.7338 71.978 10.4965 71.6601 10.2034C70.7348 9.35045 70.2688 8.25539 70.3582 7.17155C70.3926 6.75375 70.554 6.36895 70.8523 6.04901C71.281 5.58893 72.027 5.47457 72.7161 5.73294C74.6327 6.45213 75.7096 9.06904 74.6538 10.4147C74.282 10.8888 73.5833 11.1073 72.8465 10.881L72.846 10.8804Z" fill="white"/>
<path d="M76.8939 6.22072C74.6784 5.17466 73.96 1.94702 75.6438 0.634149C76.2338 0.173716 77.1266 0.105076 77.9039 0.465901C80.0697 1.47041 80.8618 4.58398 79.267 5.99567C78.6881 6.50835 77.74 6.62024 76.8939 6.22072Z" fill="white"/>
<path d="M90.3591 10.8316C89.5539 10.9428 88.0911 10.2937 87.7936 9.77935C87.5781 9.40658 87.535 9.00298 87.626 8.59168C87.8456 7.59955 88.5803 6.71433 89.6796 6.08486C90.1215 5.83201 90.756 5.92691 91.1675 5.59217C91.1528 5.57658 92.4659 5.38583 92.7403 5.92525C93.5017 7.42308 92.5523 10.5287 90.3591 10.8316Z" fill="white"/>
<path d="M87.9284 17.6553C86.6578 16.6311 87.2444 14.5925 86.4322 14.1551C85.9586 13.9002 85.3519 14.2902 85.0642 14.6927C84.5576 15.402 83.5675 15.8645 82.7339 15.6203C82.0566 15.4217 81.4767 14.9798 81.2283 14.4869C80.8378 13.7141 80.9477 12.9896 81.2176 12.2936C81.6179 11.2605 80.0801 9.7184 79.0659 9.34808C79.8495 8.41155 81.9226 8.5162 83.0824 8.68884C84.0697 8.83554 85.0383 9.51982 85.5208 10.5306C85.8094 11.1353 86.098 11.85 86.7663 12.1326C87.6259 12.4967 88.3997 12.9752 88.7955 13.8617C89.3879 15.1891 89.2464 17.1177 87.9284 17.6553Z" fill="#C97A3D"/>
<path d="M71.9054 7.60929C73.8652 8.42199 74.9538 10.2078 74.2571 10.751C73.9323 11.0039 73.1962 11.0795 72.8194 10.9037C71.4536 10.2658 70.5141 9.04669 70.3806 7.73934C70.734 7.38078 71.4286 7.4107 71.9065 7.60894L71.9054 7.60929Z" fill="#C97A3D"/>
<path d="M78.9503 12.813C79.2641 13.9389 78.9075 15.0982 78.2752 15.3266C77.8948 15.4637 77.4182 15.3451 77.1234 15.0908C76.2426 14.3315 75.7818 13.3269 76.0421 12.2059C77.122 12.0014 77.0985 11.2536 77.4824 10.8438C78.3002 11.0968 78.7281 12.0105 78.9515 12.8142L78.9503 12.813Z" fill="#C97A3D"/>
<path d="M92.9999 6.0787C91.1756 7.21164 92.1764 7.20426 90.5239 8.39683C90.179 8.64505 89.1025 8.73241 89.1304 7.97527C89.07 6.80905 91.7432 4.50602 92.9999 6.0787Z" fill="#C97A3D"/>
</svg>
