<svg width="94" height="29" viewBox="0 0 94 29" fill="none" xmlns="http://www.w3.org/2000/svg">
<path d="M72.9477 27.1613C71.6536 27.1447 70.7331 26.9038 70.1862 26.4386C69.6576 25.9901 69.3933 25.2675 69.3933 24.2707C69.3933 23.4235 69.6576 22.7756 70.1862 22.3271C70.7331 21.8786 71.526 21.6626 72.5649 21.6792L89.4621 21.8786C90.5375 21.8952 91.3122 22.1278 91.7861 22.5763C92.2783 23.0082 92.5244 23.6561 92.5244 24.5199C92.5244 26.5134 91.5218 27.4935 89.5168 27.4603L72.9477 27.1613Z" fill="#C97A3D"/>
<path d="M55.2638 13.0608L55.2911 11.3148H53.1287L53.1834 13.0608H55.2638ZM67.472 6.55285C67.6727 7.38178 67.837 8.21952 67.9647 9.06608C68.1107 9.01317 68.3114 8.91617 68.5669 8.77508C68.8954 8.58107 69.1782 8.48407 69.4154 8.48407C69.8534 8.48407 70.2001 8.72217 70.4556 9.19836C70.7111 9.65691 70.8388 10.3712 70.8388 11.3412C70.8388 12.3289 70.6655 13.0696 70.3187 13.5634C69.972 14.0573 69.4884 14.3042 68.868 14.3042C68.7403 14.3042 68.5669 14.2865 68.3479 14.2513V15.1243C68.3479 16.3236 67.9921 17.2407 67.2804 17.8756C66.5869 18.4929 65.5559 18.8015 64.1873 18.8015C63.0559 18.8015 62.2529 18.6516 61.7785 18.3518C61.304 18.0343 61.0668 17.5846 61.0668 17.0026C61.0668 16.6675 61.1124 16.3589 61.2036 16.0767C61.3131 15.7945 61.4956 15.477 61.7511 15.1243C62.0431 13.1666 62.1891 11.2266 62.1891 9.30418C62.1891 8.26361 62.1526 7.32887 62.0796 6.49994C62.0248 5.81211 62.1982 5.28301 62.5996 4.91264C63.0194 4.52463 63.6672 4.33063 64.5431 4.33063C65.346 4.33063 65.9939 4.53345 66.4866 4.93909C66.9793 5.3271 67.3077 5.86502 67.472 6.55285ZM60.4372 27.2143C60.4372 26.6146 60.7109 26.1296 61.2584 25.7592C61.4774 25.3536 61.5869 24.8421 61.5869 24.2248L51.8148 24.0661C50.7381 24.0485 49.9352 23.8192 49.406 23.3783C48.8951 22.9374 48.6396 22.2583 48.6396 21.3412C48.6396 19.7716 49.625 19.0044 51.5958 19.0396L65.2 19.3042C66.1672 19.3218 66.9063 19.5864 67.4172 20.0978C67.9464 20.5917 68.211 21.2971 68.211 22.2142C68.211 23.8192 68.1016 25.1067 67.8826 26.0767C67.6818 27.0467 67.2347 27.761 66.5413 28.2195C65.8661 28.6781 64.8807 28.9074 63.5851 28.9074C62.5266 28.9074 61.7328 28.7575 61.2036 28.4576C60.6927 28.1578 60.4372 27.7434 60.4372 27.2143ZM47.7089 7.71688C47.6907 6.76449 47.8914 6.06784 48.3111 5.62692C48.7491 5.18601 49.4334 4.96555 50.3641 4.96555C51.1122 4.96555 51.6871 5.10664 52.0885 5.38883C52.49 5.67102 52.7637 6.11193 52.9097 6.71158H55.428C55.5375 6.04139 55.8021 5.54756 56.2218 5.2301C56.6415 4.91264 57.2437 4.75391 58.0284 4.75391C58.9591 4.75391 59.6343 4.97437 60.054 5.41528C60.4919 5.8562 60.7018 6.55285 60.6836 7.50523L60.5741 14.7275C60.5558 15.768 60.2638 16.5617 59.6981 17.1084C59.1507 17.6375 58.3478 17.8933 57.2893 17.8756L51.1579 17.7698C49.0228 17.7522 47.9279 16.694 47.8731 14.5952L47.7089 7.71688Z" fill="#C97A3D"/>
<path d="M38.1498 6.75585C38.0768 7.18701 38.0128 7.51037 37.958 7.72595C40.4977 8.28285 42.343 8.92957 43.4941 9.66612C44.6452 10.3847 45.2207 11.238 45.2207 12.2261C45.2207 12.9806 44.9375 13.5734 44.3711 14.0046C43.8047 14.4357 43.0008 14.6513 41.9593 14.6513C40.4429 14.6513 39.3009 14.2741 38.5335 13.5195C37.7479 12.7471 36.743 12.1452 35.5188 11.7141C34.5505 12.6123 33.4085 13.3129 32.093 13.816C30.7958 14.301 29.4529 14.5435 28.0643 14.5435C26.9315 14.5435 26.0819 14.3549 25.5155 13.9776C24.9491 13.5824 24.6659 13.0435 24.6659 12.3608C24.6659 11.768 24.8577 11.2829 25.2414 10.9057C25.6434 10.5284 26.2006 10.2679 26.9132 10.1242C28.1556 9.69307 29.1423 9.19905 29.8731 8.64214C30.6222 8.08524 31.1886 7.42055 31.5723 6.64807C32.3214 5.10311 33.5456 4.33063 35.2448 4.33063C36.2314 4.33063 36.9805 4.55519 37.4921 5.0043C38.0219 5.45342 38.2412 6.03727 38.1498 6.75585ZM26.0362 19.6634C24.9947 19.6455 24.2456 19.4479 23.7889 19.0706C23.3504 18.6754 23.1311 18.0736 23.1311 17.2652C23.1311 16.5286 23.3412 15.9717 23.7615 15.5945C24.1817 15.2172 24.8486 15.0286 25.7621 15.0286L43.7682 15.0825C44.6635 15.0825 45.3029 15.2621 45.6866 15.6214C46.0703 15.9807 46.2622 16.5556 46.2622 17.346C46.2622 18.1903 46.0429 18.8191 45.6044 19.2323C45.1659 19.6455 44.4625 19.8431 43.4941 19.8251L38.8076 19.7712V21.4419C38.8076 22.0348 38.5609 22.4839 38.0676 22.7893C37.5926 23.0767 36.8343 23.2204 35.7929 23.2204C34.7514 23.2204 33.9841 23.0767 33.4907 22.7893C33.0157 22.4839 32.7782 22.0348 32.7782 21.4419V19.7173L26.0362 19.6634ZM28.2013 20.3371C29.261 20.3371 30.0558 20.5796 30.5857 21.0647C31.1338 21.5318 31.4079 22.1695 31.4079 22.9779V24.1097H42.5349C43.4667 24.1097 44.1336 24.2804 44.5355 24.6217C44.9558 24.963 45.1659 25.5109 45.1659 26.2654C45.1659 27.2176 44.9192 27.9002 44.4259 28.3134C43.9326 28.7266 43.1561 28.9242 42.0964 28.9063L28.722 28.5829C27.4979 28.5649 26.6026 28.2685 26.0362 27.6936C25.4881 27.1367 25.1775 26.2475 25.1044 25.0259L24.9947 22.9779C24.9582 22.1695 25.214 21.5318 25.7621 21.0647C26.3103 20.5796 27.1233 20.3371 28.2013 20.3371Z" fill="#C97A3D"/>
<path d="M3.41771 18.5324C3.41771 18.2046 3.47239 17.9286 3.58176 17.7044C3.70935 17.4629 3.92809 17.2127 4.23796 16.954C4.56606 15.988 4.78479 15.1513 4.89416 14.4441C5.00353 13.7368 5.05821 12.7621 5.05821 11.5201H3.77315C2.7524 11.5201 1.97771 11.27 1.44911 10.7697C0.920503 10.2522 0.6562 9.4932 0.6562 8.49267C0.6562 7.61291 0.893161 6.96602 1.36708 6.55201C1.85923 6.138 2.57012 5.91375 3.49974 5.87924L7.84706 5.77574C8.94073 5.75849 9.76098 6.01725 10.3078 6.55201C10.8546 7.06952 11.1281 7.84579 11.1281 8.88081C11.1281 11.8651 10.9549 14.1853 10.6086 15.8413C10.9367 15.8068 11.2192 15.7896 11.4562 15.7896C12.4405 15.7896 13.206 16.0138 13.7529 16.4623C14.3179 16.9109 14.6005 17.5319 14.6005 18.3254V21.5857L20.0688 21.6633C21.1442 21.6806 21.9189 21.9221 22.3928 22.3878C22.885 22.8364 23.1311 23.5091 23.1311 24.4061C23.1311 26.4762 22.1285 27.494 20.1235 27.4595L3.55442 27.1489C2.26025 27.1317 1.33974 26.8816 0.792909 26.3986C0.264303 25.9328 0 25.1824 0 24.1474C0 23.2676 0.264303 22.5948 0.792909 22.1291C1.33974 21.6633 2.13265 21.4391 3.17163 21.4563L8.31187 21.5081V19.8779C7.80149 20.0849 7.14529 20.1884 6.34327 20.1884C4.3929 20.1884 3.41771 19.6364 3.41771 18.5324ZM14.9012 18.5324C14.9012 18.2046 14.9559 17.9286 15.0653 17.7044C15.1929 17.4629 15.4116 17.2127 15.7215 16.954C15.9402 15.988 16.086 15.1513 16.1589 14.4441C16.2318 13.7368 16.2683 12.7621 16.2683 11.5201H14.5184C13.4977 11.5201 12.723 11.27 12.1944 10.7697C11.6658 10.2522 11.4015 9.4932 11.4015 8.49267C11.4015 6.78489 12.3493 5.91375 14.245 5.87924L19.0572 5.77574C20.1508 5.75849 20.9711 6.01725 21.5179 6.55201C22.0647 7.06952 22.3382 7.84579 22.3382 8.88081C22.3382 11.0199 22.2835 12.7621 22.1741 14.1077C22.0647 15.4532 21.8825 16.6262 21.6273 17.6267C21.3903 18.5238 20.9711 19.1793 20.3696 19.5933C19.768 19.99 18.9204 20.1884 17.8268 20.1884C15.8764 20.1884 14.9012 19.6364 14.9012 18.5324Z" fill="#C97A3D"/>
<path d="M84.7657 19.7005C82.7683 19.3366 80.8152 19.2888 78.8664 19.6815C76.8196 20.094 74.7617 19.2832 73.8861 17.7705C72.9577 16.1665 73.8861 12.9204 77.3988 12.2845C78.6287 11.5342 78.055 8.85062 82.1233 8.85049C85.9852 9.32052 85.755 12.2607 86.8478 12.9204C89.6676 13.429 90.4537 16.0492 89.6676 17.5977C88.8746 19.1595 86.8551 20.0813 84.7657 19.7005Z" fill="#C97A3D"/>
<path d="M86.4597 6.49937C85.6565 7.01907 84.6521 7.02504 83.9953 6.54705C82.2414 5.27268 82.708 1.97693 84.8252 0.722638C85.6079 0.258752 86.5686 0.286132 87.2001 0.75338C88.8864 2.00203 88.4934 5.18293 86.4604 6.49921L86.4597 6.49937Z" fill="#C97A3D"/>
<path d="M73.5209 11.2319C73.0393 11.0806 72.6449 10.8356 72.324 10.533C71.3902 9.65245 70.9198 8.52189 71.0101 7.40293C71.0448 6.97158 71.2077 6.57431 71.5088 6.244C71.9414 5.76902 72.6944 5.65094 73.3898 5.91769C75.3242 6.66019 76.4111 9.36192 75.3454 10.7512C74.9703 11.2406 74.2651 11.4663 73.5214 11.2326L73.5209 11.2319Z" fill="#C97A3D"/>
<path d="M77.6067 6.42107C75.3706 5.34112 74.6456 2.00887 76.3449 0.653448C76.9405 0.178092 77.8415 0.107228 78.626 0.479747C80.8118 1.51681 81.6113 4.73129 80.0018 6.18873C79.4174 6.71803 78.4606 6.83355 77.6067 6.42107Z" fill="#C97A3D"/>
<path d="M91.1969 11.1813C90.3842 11.2962 88.9079 10.626 88.6075 10.095C88.3901 9.71013 88.3466 9.29346 88.4384 8.86883C88.66 7.84454 89.4015 6.93064 90.5111 6.28076C90.9571 6.01972 91.5974 6.1177 92.0128 5.7721C91.9979 5.75601 93.3232 5.55908 93.6001 6.11597C94.3686 7.66235 93.4104 10.8686 91.1969 11.1813Z" fill="#C97A3D"/>
<path d="M88.7435 18.2259C87.4611 17.1685 88.0531 15.0638 87.2333 14.6122C86.7554 14.349 86.1431 14.7517 85.8527 15.1672C85.3414 15.8996 84.3422 16.377 83.5008 16.1249C82.8172 15.9199 82.232 15.4637 81.9813 14.9548C81.5872 14.157 81.6981 13.4089 81.9704 12.6905C82.3744 11.6238 80.8224 10.0318 79.7988 9.64944C80.5897 8.68255 82.682 8.7906 83.8525 8.96883C84.849 9.12028 85.8265 9.82675 86.3135 10.8703C86.6048 11.4946 86.8961 12.2324 87.5706 12.5242C88.4381 12.9001 89.2191 13.3942 89.6186 14.3093C90.2165 15.6798 90.0736 17.6709 88.7435 18.2259Z" fill="#2F2F2F"/>
<path d="M72.572 7.85462C74.55 8.69366 75.6487 10.5373 74.9455 11.0981C74.6177 11.3593 73.8748 11.4373 73.4945 11.2558C72.116 10.5973 71.1678 9.33861 71.0331 7.98889C71.3898 7.61871 72.0908 7.6496 72.5731 7.85426L72.572 7.85462Z" fill="#2F2F2F"/>
<path d="M79.6818 13.2274C79.9985 14.3898 79.6386 15.5867 79.0004 15.8225C78.6165 15.964 78.1355 15.8416 77.838 15.579C76.949 14.7952 76.4839 13.758 76.7466 12.6006C77.8365 12.3895 77.8128 11.6175 78.2003 11.1943C79.0256 11.4556 79.4575 12.3989 79.683 13.2286L79.6818 13.2274Z" fill="#2F2F2F"/>
<path d="M93.862 6.2744C92.0207 7.44406 93.0309 7.43645 91.363 8.66766C91.0149 8.92393 89.9285 9.01412 89.9566 8.23244C89.8956 7.02843 92.5936 4.65076 93.862 6.2744Z" fill="#2F2F2F"/>
</svg>
