<svg width="88" height="28" viewBox="0 0 88 28" fill="none" xmlns="http://www.w3.org/2000/svg">
<path d="M67.7895 27.0343C66.5402 27.016 65.6516 26.7509 65.1238 26.239C64.6135 25.7454 64.3584 24.9502 64.3584 23.8533C64.3584 22.921 64.6135 22.208 65.1238 21.7145C65.6516 21.2209 66.417 20.9832 67.42 21.0015L83.7307 21.2209C84.7688 21.2391 85.5166 21.4951 85.9741 21.9887C86.4492 22.464 86.6867 23.1769 86.6867 24.1276C86.6867 26.3213 85.719 27.3999 83.7835 27.3633L67.7895 27.0343Z" fill="#F6E1CD"/>
<path d="M49.9803 12.8182L50.0067 11.1454H47.9193L47.9722 12.8182H49.9803ZM61.7648 6.58328C61.9586 7.37743 62.1171 8.18003 62.2404 8.99108C62.3814 8.94039 62.5751 8.84746 62.8217 8.71228C63.1388 8.52642 63.4118 8.43349 63.6408 8.43349C64.0636 8.43349 64.3983 8.66159 64.6449 9.11781C64.8915 9.55712 65.0148 10.2414 65.0148 11.1708C65.0148 12.117 64.8475 12.8267 64.5128 13.2998C64.1781 13.7729 63.7113 14.0094 63.1124 14.0094C62.9891 14.0094 62.8217 13.9925 62.6104 13.9587V14.7951C62.6104 15.9441 62.2669 16.8228 61.5799 17.431C60.9105 18.0224 59.9152 18.3181 58.5941 18.3181C57.502 18.3181 56.7269 18.1745 56.2689 17.8873C55.8109 17.5831 55.5819 17.1522 55.5819 16.5947C55.5819 16.2736 55.626 15.9779 55.714 15.7076C55.8197 15.4372 55.9959 15.1331 56.2425 14.7951C56.5243 12.9196 56.6652 11.0609 56.6652 9.21919C56.6652 8.22228 56.63 7.32674 56.5596 6.53259C56.5067 5.87362 56.6741 5.36671 57.0616 5.01188C57.4667 4.64015 58.0921 4.45428 58.9376 4.45428C59.7127 4.45428 60.338 4.6486 60.8136 5.03723C61.2892 5.40896 61.6063 5.92431 61.7648 6.58328ZM54.9742 26.3779C54.9742 25.8034 55.2384 25.3388 55.7669 24.9839C55.9783 24.5953 56.0839 24.1053 56.0839 23.5139L46.651 23.3618C45.6117 23.3449 44.8367 23.1253 44.3258 22.7029C43.8326 22.2804 43.586 21.6299 43.586 20.7513C43.586 19.2475 44.5372 18.5124 46.4397 18.5462L59.5717 18.7997C60.5053 18.8166 61.2188 19.07 61.712 19.56C62.2228 20.0332 62.4782 20.709 62.4782 21.5877C62.4782 23.1253 62.3726 24.3587 62.1612 25.2881C61.9674 26.2174 61.5358 26.9017 60.8665 27.341C60.2147 27.7803 59.2635 28 58.0128 28C56.9911 28 56.2249 27.8564 55.714 27.5691C55.2208 27.2819 54.9742 26.8848 54.9742 26.3779ZM42.6876 7.69847C42.67 6.78605 42.8638 6.11862 43.2689 5.6962C43.6917 5.27378 44.3523 5.06257 45.2506 5.06257C45.9728 5.06257 46.5277 5.19774 46.9153 5.46809C47.3028 5.73844 47.567 6.16086 47.7079 6.73536H50.1388C50.2445 6.09328 50.4999 5.62016 50.9051 5.31602C51.3102 5.01188 51.8915 4.85981 52.649 4.85981C53.5474 4.85981 54.1991 5.07102 54.6043 5.49344C55.027 5.91586 55.2296 6.58328 55.212 7.49571L55.1063 14.415C55.0887 15.4119 54.8068 16.1722 54.2608 16.696C53.7323 17.2029 52.9573 17.4479 51.9356 17.431L46.0169 17.3297C43.9559 17.3128 42.899 16.299 42.8462 14.2882L42.6876 7.69847Z" fill="#F6E1CD"/>
<path d="M35.5122 6.77777C35.4416 7.19083 35.3799 7.50063 35.327 7.70716C37.7785 8.2407 39.5598 8.8603 40.671 9.56595C41.7821 10.2544 42.3376 11.0719 42.3376 12.0185C42.3376 12.7414 42.0643 13.3093 41.5175 13.7224C40.9708 14.1355 40.1948 14.342 39.1895 14.342C37.7256 14.342 36.6233 13.9806 35.8825 13.2577C35.1242 12.5176 34.1541 11.9411 32.9725 11.528C32.0377 12.3886 30.9354 13.0598 29.6655 13.5417C28.4133 14.0064 27.117 14.2387 25.7766 14.2387C24.6831 14.2387 23.863 14.058 23.3163 13.6966C22.7695 13.3179 22.4961 12.8016 22.4961 12.1476C22.4961 11.5796 22.6813 11.1149 23.0517 10.7535C23.4397 10.3921 23.9776 10.1425 24.6655 10.0048C25.8648 9.59177 26.8172 9.11847 27.5227 8.58492C28.2458 8.05138 28.7925 7.41458 29.1629 6.6745C29.886 5.19436 31.0677 4.45428 32.7079 4.45428C33.6603 4.45428 34.3834 4.66942 34.8772 5.0997C35.3887 5.52997 35.6004 6.08933 35.5122 6.77777ZM23.8189 19.1439C22.8136 19.1267 22.0905 18.9373 21.6496 18.5759C21.2263 18.1973 21.0146 17.6207 21.0146 16.8462C21.0146 16.1406 21.2175 15.607 21.6231 15.2456C22.0288 14.8841 22.6725 14.7034 23.5544 14.7034L40.9355 14.7551C41.7997 14.7551 42.417 14.9272 42.7874 15.2714C43.1578 15.6156 43.3429 16.1664 43.3429 16.9237C43.3429 17.7326 43.1313 18.335 42.708 18.7308C42.2847 19.1267 41.6057 19.316 40.671 19.2988L36.1471 19.2471V20.8478C36.1471 21.4157 35.909 21.846 35.4328 22.1386C34.9742 22.414 34.2423 22.5516 33.237 22.5516C32.2317 22.5516 31.491 22.414 31.0148 22.1386C30.5562 21.846 30.3269 21.4157 30.3269 20.8478V19.1955L23.8189 19.1439ZM25.9089 19.7893C26.9318 19.7893 27.699 20.0216 28.2105 20.4863C28.7396 20.9338 29.0042 21.5448 29.0042 22.3193V23.4036H39.745C40.6445 23.4036 41.2882 23.5671 41.6763 23.8941C42.0819 24.2211 42.2847 24.746 42.2847 25.4689C42.2847 26.3811 42.0466 27.0351 41.5704 27.431C41.0942 27.8268 40.3447 28.0161 39.3217 27.9989L26.4115 27.6891C25.2299 27.6719 24.3657 27.3879 23.8189 26.8372C23.2898 26.3036 22.99 25.4517 22.9194 24.2814L22.8136 22.3193C22.7783 21.5448 23.0253 20.9338 23.5544 20.4863C24.0835 20.0216 24.8683 19.7893 25.9089 19.7893Z" fill="#F6E1CD"/>
<path d="M3.2991 18.7193C3.2991 18.4019 3.35188 18.1346 3.45746 17.9174C3.58062 17.6835 3.79176 17.4413 4.09088 17.1907C4.4076 16.2552 4.61874 15.445 4.72431 14.7601C4.82988 14.0752 4.88267 13.1313 4.88267 11.9285H3.6422C2.65687 11.9285 1.90908 11.6863 1.39882 11.2019C0.888557 10.7007 0.633427 9.96567 0.633427 8.99676C0.633427 8.14479 0.862164 7.51834 1.31964 7.11741C1.79471 6.71648 2.48092 6.49931 3.37828 6.4659L7.57473 6.36567C8.63044 6.34896 9.42223 6.59954 9.95008 7.11741C10.4779 7.61857 10.7419 8.37031 10.7419 9.37263C10.7419 12.2627 10.5747 14.5095 10.2404 16.1132C10.5571 16.0798 10.8298 16.0631 11.0586 16.0631C12.0087 16.0631 12.7477 16.2803 13.2756 16.7146C13.821 17.149 14.0938 17.7504 14.0938 18.5188V21.6761L19.3723 21.7513C20.4104 21.768 21.1582 22.0019 21.6157 22.4529C22.0908 22.8873 22.3283 23.5388 22.3283 24.4074C22.3283 26.4121 21.3606 27.3977 19.4251 27.3643L3.43106 27.0636C2.1818 27.0469 1.29325 26.8047 0.765391 26.3369C0.25513 25.8859 0 25.1592 0 24.1569C0 23.3049 0.25513 22.6534 0.765391 22.2023C1.29325 21.7513 2.05864 21.5341 3.06156 21.5508L8.02341 21.6009V20.0223C7.53074 20.2228 6.89732 20.323 6.12313 20.323C4.24044 20.323 3.2991 19.7884 3.2991 18.7193ZM14.3841 18.7193C14.3841 18.4019 14.4369 18.1346 14.5424 17.9174C14.6656 17.6835 14.8767 17.4413 15.1759 17.1907C15.387 16.2552 15.5278 15.445 15.5981 14.7601C15.6685 14.0752 15.7037 13.1313 15.7037 11.9285H14.0146C13.0292 11.9285 12.2814 11.6863 11.7712 11.2019C11.2609 10.7007 11.0058 9.96567 11.0058 8.99676C11.0058 7.34293 11.9207 6.49931 13.7506 6.4659L18.3958 6.36567C19.4515 6.34896 20.2433 6.59954 20.7711 7.11741C21.299 7.61857 21.5629 8.37031 21.5629 9.37263C21.5629 11.4441 21.5101 13.1313 21.4046 14.4344C21.299 15.7374 21.123 16.8733 20.8767 17.8422C20.648 18.7109 20.2433 19.3457 19.6626 19.7467C19.082 20.1309 18.2638 20.323 17.2081 20.323C15.3254 20.323 14.3841 19.7884 14.3841 18.7193Z" fill="#F6E1CD"/>
<path d="M78.6589 19.6361C76.5802 19.255 74.5477 19.205 72.5195 19.6163C70.3895 20.0482 68.2479 19.1991 67.3366 17.615C66.3704 15.9352 67.3366 12.5358 70.9922 11.8698C72.2722 11.084 71.6751 8.27372 75.909 8.27359C79.928 8.76582 79.6885 11.8449 80.8257 12.5358C83.7602 13.0684 84.5784 15.8123 83.7602 17.434C82.935 19.0696 80.8333 20.0349 78.6589 19.6361Z" fill="#F6E1CD"/>
<path d="M80.4048 6.43773C79.6019 6.95244 78.5979 6.95835 77.9413 6.48495C76.1882 5.22281 76.6546 1.9587 78.7709 0.716451C79.5534 0.257017 80.5137 0.284135 81.1449 0.746898C82.8305 1.98357 82.4377 5.13393 80.4055 6.43757L80.4048 6.43773Z" fill="#F6E1CD"/>
<path d="M67.4708 11.1223C66.9894 10.9724 66.5951 10.7298 66.2744 10.4301C65.3409 9.55795 64.8707 8.43825 64.961 7.33002C64.9957 6.90282 65.1585 6.50936 65.4594 6.18222C65.892 5.71179 66.6446 5.59486 67.3397 5.85904C69.2733 6.59441 70.3598 9.27021 69.2946 10.6462C68.9196 11.1309 68.2147 11.3544 67.4713 11.1229L67.4708 11.1223Z" fill="#F6E1CD"/>
<path d="M71.5549 6.35868C69.3197 5.28909 68.595 1.98883 70.2937 0.64642C70.889 0.175627 71.7896 0.105444 72.5738 0.474386C74.7588 1.50149 75.558 4.68512 73.9491 6.12857C73.365 6.65278 72.4085 6.76719 71.5549 6.35868Z" fill="#F6E1CD"/>
<path d="M85.4395 11.4417C84.6589 11.562 83.2407 10.8602 82.9521 10.3041C82.7432 9.90104 82.7014 9.46468 82.7896 9.01999C83.0025 7.94732 83.7149 6.99025 84.7807 6.30967C85.2092 6.0363 85.8243 6.1389 86.2233 5.77698C86.2091 5.76013 87.4822 5.5539 87.7482 6.1371C88.4864 7.75652 87.5659 11.1142 85.4395 11.4417Z" fill="#F6E1CD"/>
<path d="M82.8053 18.4555C81.4787 17.3072 82.0911 15.0214 81.243 14.531C80.7485 14.2452 80.1151 14.6824 79.8147 15.1337C79.2857 15.9291 78.252 16.4476 77.3816 16.1738C76.6744 15.9511 76.0689 15.4557 75.8096 14.9031C75.4019 14.0365 75.5166 13.2242 75.7984 12.4439C76.2163 11.2855 74.6106 9.55648 73.5518 9.14126C74.3699 8.0912 76.5345 8.20854 77.7454 8.40211C78.7763 8.56659 79.7876 9.33382 80.2914 10.4671C80.5927 11.1451 80.8941 11.9464 81.5919 12.2634C82.4894 12.6716 83.2973 13.2081 83.7106 14.202C84.3292 15.6904 84.1814 17.8528 82.8053 18.4555Z" fill="#9A6B47"/>
<path d="M66.5223 7.77888C68.4994 8.60987 69.5977 10.4358 68.8948 10.9913C68.5671 11.2499 67.8245 11.3272 67.4444 11.1474C66.0664 10.4952 65.1186 9.24863 64.984 7.91187C65.3405 7.54524 66.0412 7.57583 66.5234 7.77852L66.5223 7.77888Z" fill="#9A6B47"/>
<path d="M73.4293 12.4742C73.7621 13.421 73.3839 14.3959 72.7134 14.5879C72.31 14.7032 71.8046 14.6035 71.492 14.3896C70.558 13.7511 70.0692 12.9064 70.3453 11.9637C71.4904 11.7917 71.4655 11.1629 71.8726 10.8182C72.7398 11.031 73.1936 11.7993 73.4306 12.4752L73.4293 12.4742Z" fill="#9A6B47"/>
<path d="M88.0003 5.65112C85.8335 6.84201 87.0223 6.83425 85.0596 8.08782C84.65 8.34873 83.3714 8.44056 83.4045 7.6447C83.3328 6.41883 86.5077 3.99801 88.0003 5.65112Z" fill="#9A6B47"/>
</svg>
