<svg width="200" height="19" viewBox="0 0 200 19" fill="none" xmlns="http://www.w3.org/2000/svg">
<path d="M4.07019 0.72598V6.97398H7.72219C8.33819 6.97398 8.93219 6.95198 9.54819 6.86398C10.1422 6.81998 10.6702 6.70998 11.1322 6.57798V9.59198C10.6482 9.81198 10.0982 9.94398 9.50419 10.032C8.88819 10.12 8.27219 10.164 7.61219 10.164H0.000191726V0.72598H4.07019ZM12.5842 10.384V0.659979H16.4122V10.384H12.5842ZM16.4122 18.37H0.990192V11.22H16.4122V18.37ZM12.5622 15.4V14.19H4.84019V15.4H12.5622ZM25.0685 12.738C25.1125 12.122 25.1785 11.44 25.2225 10.648L25.2885 8.33798C25.2885 7.56798 25.3105 6.84198 25.3105 6.15998V4.50998H18.0285V0.98998H29.1605V3.71798C29.1385 4.79598 29.1165 5.87398 29.0945 6.97398C29.0725 8.09598 29.0505 9.17398 29.0285 10.186C28.9845 11.22 28.9185 12.078 28.8745 12.738H25.0685ZM17.6765 14.234H20.2065V8.73398H24.1665V14.234H27.0045C27.7965 14.234 28.5665 14.212 29.2705 14.124C29.8865 14.08 30.3265 13.992 30.5905 13.86V0.659979H34.6605V7.32598C34.9685 7.23798 35.3425 7.14998 35.8265 7.06198C36.3545 6.97398 36.8825 6.92998 37.3665 6.92998V10.56C37.0145 10.56 36.5525 10.604 36.0245 10.648C35.5405 10.714 35.0785 10.802 34.6605 10.912V18.37H30.5905V16.808C30.2385 17.028 29.7545 17.16 29.1165 17.248C28.4125 17.38 27.5765 17.424 26.6085 17.424H17.6765V14.234ZM53.3596 4.72998H52.0616C52.7216 5.34598 53.0736 6.09398 53.0736 6.95198C53.0736 8.05198 52.6116 8.93198 51.7096 9.61398C50.7856 10.318 49.4876 10.67 47.8156 10.67C46.0996 10.67 44.8016 10.318 43.9216 9.61398C42.9976 8.93198 42.5576 8.05198 42.5576 6.95198C42.5576 6.09398 42.8876 5.34598 43.5696 4.72998H42.2716V1.78198H45.7916V-2.02656e-05H49.8616V1.78198H53.3596V4.72998ZM47.8156 7.91998C48.3216 7.91998 48.7176 7.80998 49.0256 7.58998C49.2896 7.36998 49.4436 7.08398 49.4436 6.68798C49.4436 6.29198 49.2896 5.98398 49.0036 5.71998C48.6956 5.49998 48.2996 5.36798 47.8156 5.36798C47.3096 5.36798 46.9136 5.49998 46.6276 5.71998C46.3196 5.98398 46.1876 6.29198 46.1876 6.68798C46.1876 7.08398 46.3196 7.36998 46.6056 7.58998C46.8696 7.80998 47.2876 7.91998 47.8156 7.91998ZM61.6976 3.25598V7.06198C61.5216 7.06198 61.3016 7.08398 61.0596 7.08398C60.7956 7.10598 60.5316 7.12798 60.2896 7.17198C60.0256 7.21598 59.7836 7.23798 59.5636 7.28198C59.4096 7.32598 59.2996 7.36998 59.2116 7.41398V10.714H55.3836V0.659979H59.2116V3.76198C59.4536 3.60798 59.7396 3.49798 60.1136 3.38798C60.5096 3.29998 61.0376 3.25598 61.6976 3.25598ZM59.2116 18.37H43.7896V11.506H59.2116V18.37ZM55.3616 15.51V14.366H47.6396V15.51H55.3616ZM66.5968 1.05598V2.96998C66.5968 4.44398 66.5528 5.80798 66.4868 7.08398C66.3988 8.35998 66.2668 9.59198 66.0908 10.736C65.8928 11.924 65.6508 13.046 65.3428 14.124C65.0128 15.224 64.5948 16.324 64.1108 17.38L61.1188 15.884C61.5148 15.092 61.8668 14.234 62.1748 13.31C62.4388 12.386 62.6808 11.44 62.8568 10.45C63.0328 9.48198 63.1428 8.49198 63.2308 7.47998C63.2968 6.48998 63.3188 5.52198 63.3188 4.57598H61.8228V1.05598H66.5968ZM71.2388 1.05598V2.96998C71.2388 4.50998 71.2168 5.93998 71.1728 7.23798H72.9328V0.659979H76.4308V18.392H72.9328V10.604C72.6688 10.648 72.4048 10.67 72.1188 10.67C71.8108 10.692 71.5248 10.714 71.2608 10.714C71.1288 10.736 71.0188 10.736 70.9308 10.736C70.8868 10.956 70.8648 11.198 70.8428 11.418C70.6668 12.628 70.4468 13.75 70.1828 14.806C69.8968 15.862 69.5448 16.896 69.1488 17.864L65.9588 16.654C66.3548 15.818 66.6848 14.872 66.9708 13.816C67.2348 12.804 67.4328 11.748 67.5868 10.648C67.7408 9.59198 67.8508 8.53598 67.8948 7.47998C67.9388 6.44598 67.9388 5.47798 67.8948 4.57598H67.2348V1.05598H71.2388ZM77.5088 18.392V0.659979H80.9848V18.392H77.5088ZM92.6711 6.02798H81.8691V2.74998H85.2351V0.10998H89.3051V2.74998H92.6711V6.02798ZM87.3031 14.498C87.7211 14.498 88.0731 14.322 88.3811 13.948C88.6451 13.596 88.7991 13.024 88.7991 12.232C88.7991 11.484 88.6451 10.912 88.3811 10.516C88.0731 10.164 87.7211 9.96598 87.3031 9.96598C86.8631 9.96598 86.4891 10.164 86.2251 10.516C85.9171 10.912 85.7851 11.484 85.7851 12.232C85.7851 13.024 85.9171 13.596 86.2031 13.948C86.4671 14.322 86.8411 14.498 87.3031 14.498ZM87.3031 17.798C85.6311 17.798 84.3551 17.292 83.4751 16.28C82.5951 15.29 82.1551 13.948 82.1551 12.232C82.1551 10.56 82.5951 9.19598 83.4751 8.18398C84.3331 7.17198 85.6091 6.66598 87.3031 6.66598C88.8871 6.66598 90.1411 7.17198 91.0651 8.18398C91.9671 9.19598 92.4291 10.56 92.4291 12.232C92.4291 13.948 91.9891 15.29 91.1311 16.28C90.2511 17.292 88.9751 17.798 87.3031 17.798ZM101.273 6.53398V10.34C100.921 10.34 100.459 10.384 99.9311 10.428C99.4471 10.494 98.9851 10.582 98.5671 10.692V18.37H94.4971V0.659979H98.5671V6.92998C98.9851 6.79798 99.4471 6.68798 99.9531 6.62198C100.503 6.57798 100.943 6.53398 101.273 6.53398ZM106.634 0.769979V4.57598H115.94C116.248 4.57598 116.534 4.57598 116.842 4.55398C117.128 4.55398 117.414 4.53198 117.722 4.50998C118.008 4.50998 118.294 4.48798 118.602 4.44398V7.47998C118.294 7.61198 118.008 7.67798 117.744 7.72198C117.436 7.78798 117.128 7.83198 116.82 7.85398C116.49 7.87598 116.16 7.87598 115.808 7.87598H102.454V0.769979H106.634ZM119.548 12.232H101.354V9.04198H119.548V12.232ZM106.172 13.024V15.114H118.822V18.304H102.322V13.024H106.172ZM139.208 6.66598C139.582 6.68798 139.956 6.68798 140.308 6.66598C140.638 6.66598 140.946 6.66598 141.254 6.62198C141.54 6.62198 141.826 6.57798 142.09 6.53398V8.75598C141.694 8.88798 141.144 8.97598 140.462 8.99798C139.758 9.04198 138.988 9.04198 138.152 9.04198H125.744V0.659979H141.76V3.03598H129.484V3.65198H141.54V6.02798H129.484V6.66598H139.208ZM142.86 12.474H124.666V9.72398H142.86V12.474ZM137.976 18.392V16.28H125.502V13.31H141.826V18.392H137.976ZM151.147 0.72598H154.777V1.40798L156.735 1.38598V0.659979H160.585V8.95398H156.735V7.96398C156.493 8.00798 156.295 8.00798 156.141 8.00798C155.855 8.02998 155.481 8.02998 155.019 8.02998H154.777V8.73398H143.975V0.72598H147.605V2.13398H151.147V0.72598ZM154.777 4.20198V5.25798L156.735 5.23598V4.13598C156.493 4.17998 156.295 4.17998 156.141 4.17998C155.855 4.20198 155.481 4.20198 155.019 4.20198H154.777ZM147.605 4.88398V5.98398H151.147V4.88398H147.605ZM144.635 12.738H156.867V12.122H144.745V9.61398H160.607V15.136H148.375V15.818H160.827V18.326H144.635V12.738ZM170.047 6.02798H161.797V2.74998H164.217V0.10998H167.627V2.74998H170.047V6.02798ZM165.933 14.498C166.197 14.498 166.417 14.322 166.615 13.948C166.791 13.596 166.879 13.024 166.879 12.232C166.879 11.484 166.791 10.912 166.615 10.516C166.439 10.164 166.197 9.96598 165.933 9.96598C165.625 9.96598 165.405 10.164 165.251 10.516C165.075 10.912 164.987 11.484 164.987 12.232C164.987 13.024 165.075 13.596 165.251 13.948C165.427 14.322 165.647 14.498 165.933 14.498ZM165.933 17.798C164.613 17.798 163.623 17.358 162.941 16.456C162.237 15.576 161.907 14.168 161.907 12.232C161.907 10.384 162.259 8.99798 163.007 8.05198C163.711 7.12798 164.701 6.66598 165.933 6.66598C167.165 6.66598 168.133 7.12798 168.881 8.05198C169.585 8.99798 169.959 10.384 169.959 12.232C169.959 14.168 169.607 15.576 168.925 16.456C168.221 17.358 167.209 17.798 165.933 17.798ZM177.043 18.392V0.659979H180.519V18.392H177.043ZM172.467 18.392V14.894C172.357 14.916 172.269 14.916 172.181 14.916C171.939 14.938 171.719 14.938 171.543 14.938C171.345 14.96 171.169 14.96 171.037 14.938H170.641V11.528H172.467V8.97598H172.247C172.027 8.99798 171.807 8.99798 171.609 8.99798C171.389 9.01998 171.213 9.01998 171.059 8.99798H170.641V5.58798H172.467V0.659979H175.965V18.392H172.467ZM190.542 3.58598H185.328V4.42198H190.454V7.23798H185.328V8.11798H189.134C189.354 8.13998 189.574 8.13998 189.794 8.11798C189.992 8.11798 190.19 8.11798 190.388 8.09598C190.564 8.09598 190.762 8.05198 190.938 8.00798V10.78C190.674 10.89 190.322 10.956 189.904 11C189.464 11.044 188.87 11.066 188.122 11.044H181.918V0.659979H190.542V3.58598ZM196.57 7.52398C196.196 7.61198 195.778 7.65598 195.338 7.65598V11.374H191.928V0.659979H195.338V4.20198H196.57V0.659979H199.98V11.374H196.57V7.52398ZM196.13 18.392V15.422H183.04V12.122H199.98V18.392H196.13Z" fill="#464646"/>
</svg>