<svg width="841" height="33" viewBox="0 0 841 33" fill="none" xmlns="http://www.w3.org/2000/svg">
<path d="M833.642 1.73474H840.642V21.172H833.642V1.73474ZM833.602 24.681H840.602V32.4086H833.602V24.681Z" fill="white"/>
<path d="M814.455 16.7563C816.775 16.7563 818.575 16.3226 819.855 15.4552C821.095 14.5879 821.735 13.3656 821.735 11.7886C821.735 10.4875 821.095 9.34413 819.815 8.31904C818.535 7.33337 816.735 6.82082 814.455 6.82082C812.135 6.82082 810.335 7.33337 809.095 8.31904C807.815 9.34413 807.175 10.4875 807.175 11.7886C807.175 13.3656 807.815 14.5879 809.095 15.4552C810.335 16.3226 812.135 16.7563 814.455 16.7563ZM814.455 23.0646C812.935 23.0646 811.575 22.9857 810.335 22.828V26.1398H817.935V22.8674C816.855 22.9857 815.695 23.0646 814.455 23.0646ZM803.335 19.871C802.215 18.9642 801.415 17.8603 800.935 16.5198C800.375 15.1793 800.095 13.6416 800.095 11.9857C800.095 10.5664 800.375 9.14699 800.935 7.72764C801.495 6.38713 802.335 5.16491 803.535 4.06096C804.735 3.03588 806.215 2.16849 808.055 1.49824C809.815 0.867413 811.975 0.512573 814.455 0.512573C816.895 0.512573 819.015 0.867413 820.855 1.49824C822.615 2.16849 824.135 3.03588 825.335 4.06096C826.495 5.16491 827.375 6.38713 827.975 7.72764C828.535 9.14699 828.815 10.5664 828.815 11.9857C828.815 13.6416 828.535 15.1793 827.975 16.5198C827.415 17.8997 826.535 19.0825 825.375 20.0287C825.215 20.147 825.055 20.2653 824.935 20.3836V26.1398H830.895V32.4481H797.815V26.1398H803.335V19.871Z" fill="white"/>
<path d="M766.953 15.6523C767.353 13.8387 767.633 11.8279 767.793 9.5806C767.953 7.37271 767.953 4.80998 767.873 1.89242H774.433C774.513 5.83508 774.473 9.06806 774.313 11.6308C774.193 13.0896 773.993 14.4695 773.793 15.7706C775.153 17.4265 776.433 19.2007 777.593 21.0537C778.793 23.0251 779.833 25.0752 780.753 27.2043L775.913 30.595C774.873 28.3871 773.793 26.2975 772.673 24.3656C772.353 23.853 771.993 23.3011 771.673 22.8279C771.353 23.6165 770.953 24.405 770.593 25.1541C769.473 27.362 768.113 29.4516 766.513 31.3441L761.393 26.81C762.033 26.0215 762.633 25.1147 763.273 24.0896C763.833 23.1433 764.393 22.1577 764.873 21.1326C765.353 20.1075 765.793 19.1218 766.193 18.1756C766.513 17.2294 766.793 16.4014 766.953 15.6523ZM781.753 32.9606V16.7168C780.793 16.8351 779.833 16.8745 778.873 16.8745C777.913 16.9139 777.233 16.9139 776.833 16.9139V10.6057H781.753V1.18274H788.113V32.9606H781.753ZM790.073 32.9606V1.18274H796.393V32.9606H790.073Z" fill="white"/>
<path d="M746.245 10.8029H726.605V4.92833H732.725V0.197144H740.125V4.92833H746.245V10.8029ZM736.485 25.9821C737.245 25.9821 737.885 25.6667 738.445 24.9965C738.925 24.3656 739.206 23.3405 739.206 21.9212C739.206 20.5807 738.925 19.5556 738.445 18.8459C737.885 18.2151 737.245 17.8603 736.485 17.8603C735.685 17.8603 735.005 18.2151 734.525 18.8459C733.965 19.5556 733.725 20.5807 733.725 21.9212C733.725 23.3405 733.965 24.3656 734.485 24.9965C734.965 25.6667 735.645 25.9821 736.485 25.9821ZM736.485 31.8961C733.445 31.8961 731.125 30.9893 729.525 29.1757C727.925 27.4015 727.125 24.9965 727.125 21.9212C727.125 18.9248 727.925 16.4803 729.525 14.6667C731.085 12.8531 733.405 11.9463 736.485 11.9463C739.365 11.9463 741.645 12.8531 743.326 14.6667C744.965 16.4803 745.805 18.9248 745.805 21.9212C745.805 24.9965 745.005 27.4015 743.445 29.1757C741.845 30.9893 739.525 31.8961 736.485 31.8961ZM761.885 11.7097V18.5305C761.245 18.5305 760.405 18.6094 759.445 18.6882C758.565 18.8065 757.725 18.9642 756.965 19.1613V32.9212H749.565V1.18281H756.965V12.4194C757.725 12.1828 758.565 11.9857 759.485 11.8674C760.485 11.7886 761.285 11.7097 761.885 11.7097Z" fill="white"/>
<path d="M704.546 14.4695C704.906 14.4695 705.306 14.43 705.746 14.2723C706.146 14.1935 706.546 13.9964 706.906 13.6809C707.226 13.4444 707.546 13.0501 707.786 12.577C708.026 12.1433 708.146 11.5913 708.146 10.8817C708.146 10.2508 708.026 9.69886 707.786 9.22574C707.546 8.79205 707.226 8.43721 706.906 8.1218C706.546 7.88524 706.146 7.6881 705.746 7.5304C705.306 7.41212 704.906 7.33326 704.546 7.33326C704.146 7.33326 703.706 7.41212 703.306 7.5304C702.866 7.6881 702.466 7.88524 702.146 8.1218C701.786 8.43721 701.506 8.79205 701.306 9.22574C701.066 9.69886 700.946 10.2508 700.946 10.8817C700.946 11.5913 701.066 12.1433 701.306 12.577C701.506 13.0501 701.786 13.4444 702.146 13.6809C702.466 13.9964 702.866 14.1935 703.306 14.2723C703.706 14.43 704.146 14.4695 704.546 14.4695ZM704.546 20.9749C701.466 20.9749 698.986 20.1469 697.066 18.4121C695.106 16.7562 694.146 14.2329 694.146 10.8817C694.146 9.30459 694.386 7.84581 694.906 6.58416C695.386 5.36193 696.106 4.29742 697.026 3.43003C697.946 2.56265 699.066 1.93182 700.346 1.4587C701.586 1.02501 702.986 0.788452 704.546 0.788452C706.066 0.788452 707.466 1.02501 708.746 1.4587C709.986 1.93182 711.066 2.56265 712.026 3.43003C712.906 4.29742 713.626 5.36193 714.186 6.58416C714.666 7.84581 714.946 9.30459 714.946 10.8817C714.946 14.2329 713.946 16.7562 712.026 18.4121C710.066 20.1469 707.586 20.9749 704.546 20.9749ZM717.786 23.1433V1.18272H724.786V23.1433H717.786ZM702.906 22.3942V26.9283H725.186V32.8423H695.906V22.3942H702.906Z" fill="white"/>
<path d="M679.348 7.49105H676.828C677.308 7.84589 677.708 8.24015 678.068 8.63442C678.548 9.26525 678.828 9.97492 678.828 10.724C678.828 12.3799 677.988 13.681 676.308 14.6273C675.308 15.1792 674.028 15.5735 672.468 15.8101V17.3477H674.628C676.068 17.3477 677.468 17.3083 678.748 17.1506C679.868 17.0717 680.668 16.914 681.148 16.6774V1.1828H688.548V8.71327C689.108 8.51614 689.788 8.35843 690.668 8.24015C691.628 8.08245 692.588 8.0036 693.468 8.0036V14.509C692.828 14.509 691.988 14.5878 691.028 14.6667C690.148 14.785 689.308 14.9427 688.548 15.1398V22.8674H681.148V21.5663C680.508 21.9212 679.628 22.1972 678.468 22.3549C677.188 22.5914 675.668 22.6703 673.908 22.6703H657.668V17.3477H665.068V15.8495C663.388 15.6129 662.068 15.2187 661.028 14.6273C659.348 13.681 658.508 12.3799 658.508 10.724C658.508 9.97492 658.748 9.26525 659.268 8.63442C659.588 8.24015 659.988 7.84589 660.468 7.49105H657.988V2.60215H664.988V0H672.388V2.60215H679.348V7.49105ZM668.668 11.5914C669.628 11.5914 670.468 11.4337 671.188 11.0789C671.868 10.7635 672.228 10.2903 672.228 9.65951C672.228 9.14697 671.868 8.71327 671.148 8.31901C670.388 7.96417 669.548 7.76704 668.668 7.76704C667.708 7.76704 666.908 7.96417 666.188 8.31901C665.468 8.71327 665.108 9.14697 665.108 9.65951C665.108 10.2903 665.428 10.7635 666.148 11.0789C666.788 11.4337 667.628 11.5914 668.668 11.5914ZM681.548 32.9606V29.7276H660.428V24.2079H688.548V32.9606H681.548Z" fill="white"/>
<path d="M647.722 19.0824H614.642V15.1397H647.722V19.0824ZM616.402 5.79565H638.922V4.84941H616.602V1.18274H645.722V9.46232H623.202V10.448H646.322V14.1147H616.402V5.79565ZM616.282 24.6416H639.042V23.7347H616.282V20.0286H645.842V28.3477H623.082V29.1756H646.562V33H616.282V24.6416Z" fill="white"/>
<path d="M600.983 1.89242V5.32253C600.983 7.92468 600.663 10.448 600.023 12.8924C599.383 15.3763 598.463 17.7419 597.303 19.9892C596.103 22.2365 594.623 24.3261 592.943 26.258C591.223 28.2294 589.303 29.9247 587.183 31.4229L581.943 26.4946C585.663 23.7347 588.503 20.7383 590.423 17.5053C592.343 14.3512 593.343 11.2365 593.463 8.20067H583.143V1.89242H600.983ZM605.143 32.9211V1.18274H612.543V32.9211H605.143Z" fill="white"/>
<path d="M579.438 9.14697H576.198C576.958 9.65951 577.558 10.2115 577.958 10.8029C578.438 11.5914 578.678 12.4194 578.678 13.2473C578.678 14.1936 578.438 15.1004 577.958 15.8889C577.478 16.7169 576.678 17.4265 575.598 17.9785C574.478 18.5699 573.038 19.0036 571.238 19.319C569.398 19.6739 567.198 19.8316 564.558 19.8316C561.878 19.8316 559.638 19.6739 557.878 19.319C556.038 19.0036 554.598 18.5699 553.478 17.9785C552.358 17.4265 551.598 16.7169 551.158 15.8889C550.678 15.1004 550.438 14.1936 550.438 13.2473C550.438 12.4194 550.678 11.5914 551.158 10.8029C551.558 10.2115 552.078 9.65951 552.878 9.14697H550.038V3.62725H561.038V0H568.438V3.62725H579.438V9.14697ZM564.558 14.509C567.198 14.509 569.038 14.3513 570.118 13.957C571.158 13.6416 571.678 13.0896 571.678 12.3799C571.678 11.6703 571.038 11.0394 569.838 10.4086C568.598 9.85664 566.838 9.54123 564.558 9.54123C562.238 9.54123 560.478 9.85664 559.278 10.4086C558.038 11.0394 557.438 11.6703 557.438 12.3799C557.438 13.0896 557.958 13.6416 559.038 13.957C560.078 14.3513 561.918 14.509 564.558 14.509ZM560.518 32.9606V27.0861H548.038V21.1721H581.118V27.0861H568.238V32.9606H560.518Z" fill="white"/>
<path d="M519.454 1.89242V5.32253C519.374 7.84583 519.054 10.3297 518.494 12.7742C518.014 14.7061 517.414 16.5985 516.694 18.3727C517.374 19.1218 517.974 19.9104 518.574 20.6989C519.854 22.5914 521.094 24.5627 522.214 26.6129L517.854 31.1075C517.214 30.0036 516.654 29.0179 516.134 28.0717C515.574 27.1649 515.054 26.2975 514.494 25.4301C514.214 25.1147 513.974 24.7598 513.694 24.405C513.294 25.0358 512.934 25.6272 512.534 26.1792C511.094 28.1505 509.574 29.9247 507.894 31.4229L503.294 26.8889C505.974 24.0896 508.174 21.0932 509.854 17.939C511.494 14.7849 512.454 11.5519 512.734 8.20067H504.654V1.89242H519.454ZM523.574 32.9606V18.4516C522.854 18.5304 522.134 18.6093 521.494 18.6093C520.774 18.6487 520.254 18.6487 519.854 18.6487V11.9856H523.574V1.18274H529.934V32.9606H523.574ZM531.894 32.9606V1.18274H538.214V32.9606H531.894Z" fill="white"/>
<path d="M470.356 11.6308C473.076 10.448 475.076 9.02863 476.396 7.45157C477.676 5.8745 478.316 3.90317 478.316 1.49815H485.196C485.156 3.19349 484.916 4.77056 484.556 6.18992C485.916 6.70246 487.236 7.37271 488.476 8.12182C489.956 9.10748 491.356 10.4086 492.636 12.0645L487.796 16.3225C486.756 14.982 485.516 13.7992 484.076 12.7742C483.276 12.2616 482.476 11.8279 481.676 11.4337C479.756 13.6021 477.236 15.258 474.196 16.362L470.356 11.6308ZM495.236 16.0466V1.18274H502.196V16.0466H495.236ZM473.556 22.8279H495.396V21.724H473.756V17.2294H502.196V27.1254H480.356V28.3477H502.596V32.8423H473.556V22.8279Z" fill="white"/>
<path d="M440.916 16.5985C441.956 16.5985 442.836 16.2042 443.556 15.3763C444.236 14.5878 444.596 13.405 444.596 11.9067C444.596 10.4085 444.196 9.22574 443.476 8.4372C442.716 7.64867 441.876 7.25441 440.916 7.25441C439.956 7.25441 439.076 7.64867 438.356 8.4372C437.596 9.22574 437.236 10.4085 437.236 11.9067C437.236 13.405 437.556 14.5878 438.276 15.3763C438.916 16.2042 439.796 16.5985 440.916 16.5985ZM440.916 23.1039C437.556 23.1039 434.996 22.1577 433.196 20.2257C431.356 18.3333 430.436 15.534 430.436 11.9067C430.436 10.1325 430.676 8.55548 431.196 7.13613C431.676 5.7562 432.396 4.5734 433.356 3.62716C434.276 2.68092 435.396 1.97125 436.676 1.4587C437.956 0.98558 439.356 0.709595 440.916 0.709595C442.436 0.709595 443.836 0.98558 445.116 1.4587C446.396 1.97125 447.476 2.68092 448.436 3.62716C449.356 4.5734 450.076 5.7562 450.636 7.13613C451.116 8.55548 451.396 10.1325 451.396 11.9067C451.396 15.534 450.476 18.3333 448.636 20.2257C446.796 22.1577 444.196 23.1039 440.916 23.1039ZM430.076 25.1146H447.036C448.476 25.1146 449.876 25.0752 451.156 24.9175C452.276 24.8387 453.076 24.681 453.556 24.4444V1.18271H460.956V32.9211H453.556V29.7276C452.916 30.1218 452.036 30.3584 450.876 30.5161C449.596 30.7526 448.076 30.8315 446.316 30.8315H430.076V25.1146Z" fill="white"/>
<path d="M419.09 7.21502C420.61 7.21502 421.97 7.17559 423.25 7.09674C424.45 7.05731 425.53 6.93903 426.49 6.78133V11.0394C425.77 11.276 424.77 11.4731 423.53 11.5519C422.25 11.7096 420.85 11.7491 419.33 11.7491H397.61V1.41931H425.65V5.95337H403.81V7.21502H419.09ZM428.53 17.4265H395.45V12.8924H428.53V17.4265ZM397.05 23.7348H419.89V22.7097H397.05V18.6093H426.69V27.8351H403.85V28.7814H427.41V33H397.05V23.7348Z" fill="white"/>
<path d="M378.023 1.89242V5.32253C377.863 7.76698 377.463 10.172 376.743 12.6164C376.143 14.5878 375.383 16.4803 374.503 18.2939C374.743 18.491 374.943 18.6487 375.183 18.8064C376.063 19.595 376.863 20.3441 377.623 21.0932C378.343 21.8817 379.063 22.6702 379.743 23.4982C380.383 24.3656 381.063 25.2724 381.703 26.2186L377.063 31.1075C376.383 30.043 375.703 29.0968 375.023 28.2294C374.303 27.4014 373.543 26.6129 372.783 25.8638C372.183 25.3512 371.583 24.8387 370.983 24.2867C370.503 24.957 370.023 25.5878 369.503 26.1792C367.823 28.1899 365.983 29.9247 364.023 31.4229L359.183 26.2975C360.703 25.1147 362.103 23.7742 363.423 22.3548C364.703 20.9749 365.823 19.5161 366.863 17.9785C367.823 16.4408 368.663 14.8638 369.303 13.2078C369.903 11.5914 370.303 9.93544 370.503 8.20067H360.583V1.89242H378.023ZM395.303 11.7096V18.5304C394.663 18.5304 393.823 18.6093 392.863 18.6881C391.983 18.8064 391.143 18.9641 390.383 19.1613V32.9211H382.983V1.18274H390.383V12.4193C391.143 12.1828 391.983 11.9856 392.903 11.8673C393.903 11.7885 394.703 11.7096 395.303 11.7096Z" fill="white"/>
<path d="M349.516 8.0824C351.036 8.0824 352.396 8.04298 353.676 7.96412C354.876 7.9247 355.956 7.80642 356.916 7.64871V12.4982C356.196 12.7347 355.196 12.9319 353.956 13.0107C352.676 13.1684 351.276 13.2079 349.756 13.2079H346.036V15.1398H358.956V20.6595H325.876V15.1398H338.796V13.2079H328.036V1.41931H356.076V6.54477H334.636V8.0824H349.516ZM350.076 32.9606V28.0717H327.396V22.3548H357.076V32.9606H350.076Z" fill="white"/>
<path d="M315.651 16.3227C315.771 14.9822 315.891 13.5234 315.971 11.8675C316.051 10.2904 316.091 8.87106 316.091 7.68826H293.851V1.38H323.091C323.091 3.11478 323.051 4.65241 323.051 5.99292C323.011 7.41227 322.971 8.67392 322.971 9.85672C322.891 11.0789 322.851 12.2223 322.811 13.2474C322.731 14.3119 322.651 15.337 322.571 16.3227H315.651ZM304.371 32.9607V24.7205H291.891V18.4123H324.971V24.7205H312.091V32.9607H304.371Z" fill="white"/>
<path d="M268.223 9.06811H265.623C267.023 10.448 267.703 12.0645 267.703 13.957C267.703 15.0215 267.503 16.0466 267.103 16.9929C266.703 17.9785 266.103 18.8459 265.303 19.5556C264.503 20.3441 263.503 20.9355 262.303 21.3298C261.103 21.8029 259.703 22 258.143 22C256.543 22 255.143 21.8029 253.943 21.3298C252.743 20.9355 251.743 20.3441 250.943 19.5556C250.143 18.8459 249.543 17.9785 249.183 16.9929C248.783 16.0466 248.583 15.0215 248.583 13.957C248.583 12.0645 249.263 10.448 250.623 9.06811H248.063V3.39069H254.463V0H261.863V3.39069H268.223V9.06811ZM258.143 10.2115C257.143 10.2115 256.423 10.5663 255.943 11.276C255.423 12.0251 255.183 12.7742 255.183 13.5627C255.183 14.509 255.423 15.2581 255.983 15.8889C256.463 16.5592 257.183 16.8746 258.143 16.8746C259.023 16.8746 259.743 16.5592 260.303 15.8889C260.823 15.2581 261.103 14.509 261.103 13.5627C261.103 12.7742 260.823 12.0251 260.343 11.276C259.823 10.5663 259.103 10.2115 258.143 10.2115ZM283.383 7.4122V14.233C283.063 14.233 282.663 14.2724 282.223 14.2724C281.743 14.3118 281.263 14.3513 280.823 14.4301C280.343 14.509 279.903 14.5484 279.503 14.6273C279.223 14.7061 279.023 14.785 278.863 14.8638V23.5377H271.863V1.1828H278.863V8.31901C279.303 8.04302 279.823 7.84589 280.503 7.64876C281.223 7.49105 282.183 7.4122 283.383 7.4122ZM256.983 23.1828V27.1255H279.263V32.8423H249.983V23.1828H256.983Z" fill="white"/>
<path d="M237.557 8.0824C239.077 8.0824 240.437 8.04298 241.717 7.96412C242.917 7.9247 243.997 7.80642 244.957 7.64871V12.4982C244.237 12.7347 243.237 12.9319 241.997 13.0107C240.717 13.1684 239.317 13.2079 237.797 13.2079H234.077V15.1398H246.997V20.6595H213.917V15.1398H226.837V13.2079H216.077V1.41931H244.117V6.54477H222.677V8.0824H237.557ZM238.117 32.9606V28.0717H215.437V22.3548H245.117V32.9606H238.117Z" fill="white"/>
<path d="M203.691 16.3227C203.811 14.9822 203.931 13.5234 204.011 11.8675C204.091 10.2904 204.131 8.87106 204.131 7.68826H181.891V1.38H211.131C211.131 3.11478 211.091 4.65241 211.091 5.99292C211.051 7.41227 211.011 8.67392 211.011 9.85672C210.931 11.0789 210.891 12.2223 210.851 13.2474C210.771 14.3119 210.691 15.337 210.611 16.3227H203.691ZM192.411 32.9607V24.7205H179.931V18.4123H213.011V24.7205H200.131V32.9607H192.411Z" fill="white"/>
<path d="M170.625 19.0824H137.545V15.1397H170.625V19.0824ZM139.305 5.79565H161.825V4.84941H139.505V1.18274H168.625V9.46232H146.105V10.448H169.225V14.1147H139.305V5.79565ZM139.185 24.6416H161.945V23.7347H139.185V20.0286H168.745V28.3477H145.985V29.1756H169.465V33H139.185V24.6416Z" fill="white"/>
<path d="M103.88 17.3477C107.88 15.4158 111.04 13.129 113.44 10.448C115.8 7.80642 117.08 4.81 117.24 1.49817H124.72C124.64 3.66663 124.28 5.71681 123.56 7.64872C126 8.98922 128.24 10.3691 130.2 11.8674C132.16 13.405 134.24 15.258 136.4 17.4659L131.68 22.7491C129.84 20.6989 127.88 18.8459 125.76 17.1899C123.88 15.8494 122.04 14.6272 120.16 13.6021L119.68 14.1935C118.16 16.0072 116.4 17.6631 114.4 19.1218C112.36 20.6201 110.2 21.8423 107.92 22.8674L103.88 17.3477ZM103.56 32.448V26.1398H136.64V32.448H103.56Z" fill="white"/>
<path d="M82.1318 1.30102H88.7318V19.0036H69.0918V1.30102H75.6918V5.00712H82.1318V1.30102ZM75.6918 10.5268V13.4838H82.1318V10.5268H75.6918ZM103.452 6.62361V13.4444C103.132 13.4444 102.732 13.4838 102.292 13.4838C101.812 13.5233 101.332 13.5627 100.892 13.6415C100.412 13.7204 99.9718 13.7598 99.5718 13.8387C99.2918 13.9175 99.0918 13.9964 98.9318 14.0752V19.9892H91.9718V1.18274H98.9318V7.53042C99.3718 7.25443 99.8918 7.0573 100.572 6.86017C101.292 6.70246 102.252 6.62361 103.452 6.62361ZM91.9318 32.9606V27.6774H70.3318V21.3692H98.9318V32.9606H91.9318Z" fill="white"/>
<path d="M34.5458 10.3297C38.7058 9.30462 41.8658 8.04297 44.1058 6.46591C46.3058 4.9677 47.5458 3.46949 47.8258 2.0107L47.9058 1.30103H55.3858V1.73472C55.2658 2.75981 54.9858 3.70605 54.5858 4.61286C56.6258 5.20426 58.5858 5.91393 60.4658 6.74189C62.6658 7.76699 64.9058 9.06806 67.1858 10.6451L63.6258 15.3369C61.4658 13.7598 59.3458 12.4982 57.3458 11.5519C55.3458 10.6846 53.1858 9.89602 50.9058 9.30462C50.6658 9.46233 50.4658 9.65946 50.2258 9.85659C47.1058 12.301 42.7858 14.1541 37.2658 15.3369L34.5458 10.3297ZM47.6658 25.7849V22.6308H33.9858V16.914H67.0658V22.6308H55.3858V25.7849H47.6658ZM42.7458 24.129V27.086H65.7458V32.8029H35.7458V24.129H42.7458Z" fill="white"/>
<path d="M5.96 23.0252C6.04 21.8424 6.08 20.5807 6.16 19.2008C6.2 17.8603 6.24 16.4804 6.28 15.1399C6.32 13.7994 6.36 12.4589 6.4 11.1578V7.68826H1.36V1.38H13.4C13.4 5.79578 13.36 9.73844 13.32 13.208C13.24 16.7169 13.08 19.9894 12.88 23.0252H5.96ZM23.16 23.0252C23.24 21.8424 23.28 20.5807 23.36 19.2008C23.4 17.8603 23.44 16.4804 23.48 15.1399C23.52 13.7994 23.56 12.4589 23.6 11.1578V7.68826H14.96V1.38H30.6C30.6 5.79578 30.56 9.73844 30.52 13.208C30.44 16.7169 30.28 19.9894 30.08 23.0252H23.16ZM0 32.4481V26.1399H14.52V16.7958H21.76V26.1399H33.08V32.4481H0Z" fill="white"/>
</svg>