<svg width="841" height="33" viewBox="0 0 841 33" fill="none" xmlns="http://www.w3.org/2000/svg">
<path d="M833.642 1.7348H840.642V21.1721H833.642V1.7348ZM833.602 24.6811H840.602V32.4087H833.602V24.6811Z" fill="#43270B"/>
<path d="M814.455 16.7563C816.775 16.7563 818.575 16.3226 819.855 15.4552C821.095 14.5879 821.735 13.3656 821.735 11.7886C821.735 10.4875 821.095 9.34413 819.815 8.31904C818.535 7.33337 816.735 6.82082 814.455 6.82082C812.135 6.82082 810.335 7.33337 809.095 8.31904C807.815 9.34413 807.175 10.4875 807.175 11.7886C807.175 13.3656 807.815 14.5879 809.095 15.4552C810.335 16.3226 812.135 16.7563 814.455 16.7563ZM814.455 23.0646C812.935 23.0646 811.575 22.9857 810.335 22.828V26.1398H817.935V22.8674C816.855 22.9857 815.695 23.0646 814.455 23.0646ZM803.335 19.871C802.215 18.9642 801.415 17.8603 800.935 16.5198C800.375 15.1793 800.095 13.6416 800.095 11.9857C800.095 10.5663 800.375 9.14699 800.935 7.72764C801.495 6.38713 802.335 5.16491 803.535 4.06096C804.735 3.03588 806.215 2.16849 808.055 1.49824C809.815 0.867413 811.975 0.512573 814.455 0.512573C816.895 0.512573 819.015 0.867413 820.855 1.49824C822.615 2.16849 824.135 3.03588 825.335 4.06096C826.495 5.16491 827.375 6.38713 827.975 7.72764C828.535 9.14699 828.815 10.5663 828.815 11.9857C828.815 13.6416 828.535 15.1793 827.975 16.5198C827.415 17.8997 826.535 19.0825 825.375 20.0287C825.215 20.147 825.055 20.2653 824.935 20.3836V26.1398H830.895V32.4481H797.815V26.1398H803.335V19.871Z" fill="#43270B"/>
<path d="M766.953 15.6523C767.353 13.8387 767.633 11.8279 767.793 9.5806C767.953 7.37271 767.953 4.80998 767.873 1.89242H774.433C774.513 5.83508 774.473 9.06806 774.313 11.6308C774.193 13.0896 773.993 14.4695 773.793 15.7706C775.153 17.4265 776.433 19.2007 777.593 21.0537C778.793 23.0251 779.833 25.0752 780.753 27.2043L775.913 30.595C774.873 28.3871 773.793 26.2975 772.673 24.3656C772.353 23.853 771.993 23.3011 771.673 22.8279C771.353 23.6165 770.953 24.405 770.593 25.1541C769.473 27.362 768.113 29.4516 766.513 31.3441L761.393 26.81C762.033 26.0215 762.633 25.1147 763.273 24.0896C763.833 23.1433 764.393 22.1577 764.873 21.1326C765.353 20.1075 765.793 19.1218 766.193 18.1756C766.513 17.2294 766.793 16.4014 766.953 15.6523ZM781.753 32.9606V16.7168C780.793 16.8351 779.833 16.8745 778.873 16.8745C777.913 16.9139 777.233 16.9139 776.833 16.9139V10.6057H781.753V1.18274H788.113V32.9606H781.753ZM790.073 32.9606V1.18274H796.393V32.9606H790.073Z" fill="#43270B"/>
<path d="M746.245 10.8028H726.605V4.92827H732.725V0.197083H740.125V4.92827H746.245V10.8028ZM736.485 25.9821C737.245 25.9821 737.885 25.6667 738.445 24.9964C738.925 24.3656 739.206 23.3405 739.206 21.9211C739.206 20.5806 738.925 19.5555 738.445 18.8459C737.885 18.215 737.245 17.8602 736.485 17.8602C735.685 17.8602 735.005 18.215 734.525 18.8459C733.965 19.5555 733.725 20.5806 733.725 21.9211C733.725 23.3405 733.965 24.3656 734.485 24.9964C734.965 25.6667 735.645 25.9821 736.485 25.9821ZM736.485 31.896C733.445 31.896 731.125 30.9892 729.525 29.1756C727.925 27.4014 727.125 24.9964 727.125 21.9211C727.125 18.9247 727.925 16.4803 729.525 14.6666C731.085 12.853 733.405 11.9462 736.485 11.9462C739.365 11.9462 741.645 12.853 743.326 14.6666C744.965 16.4803 745.805 18.9247 745.805 21.9211C745.805 24.9964 745.005 27.4014 743.445 29.1756C741.845 30.9892 739.525 31.896 736.485 31.896ZM761.885 11.7096V18.5304C761.245 18.5304 760.405 18.6093 759.445 18.6881C758.565 18.8064 757.725 18.9641 756.965 19.1613V32.9211H749.565V1.18275H756.965V12.4193C757.725 12.1828 758.565 11.9856 759.485 11.8673C760.485 11.7885 761.285 11.7096 761.885 11.7096Z" fill="#43270B"/>
<path d="M704.546 14.4695C704.906 14.4695 705.306 14.43 705.746 14.2723C706.146 14.1935 706.546 13.9964 706.906 13.6809C707.226 13.4444 707.546 13.0501 707.786 12.577C708.026 12.1433 708.146 11.5913 708.146 10.8817C708.146 10.2508 708.026 9.69886 707.786 9.22574C707.546 8.79205 707.226 8.43721 706.906 8.1218C706.546 7.88524 706.146 7.6881 705.746 7.5304C705.306 7.41212 704.906 7.33326 704.546 7.33326C704.146 7.33326 703.706 7.41212 703.306 7.5304C702.866 7.6881 702.466 7.88524 702.146 8.1218C701.786 8.43721 701.506 8.79205 701.306 9.22574C701.066 9.69886 700.946 10.2508 700.946 10.8817C700.946 11.5913 701.066 12.1433 701.306 12.577C701.506 13.0501 701.786 13.4444 702.146 13.6809C702.466 13.9964 702.866 14.1935 703.306 14.2723C703.706 14.43 704.146 14.4695 704.546 14.4695ZM704.546 20.9749C701.466 20.9749 698.986 20.1469 697.066 18.4121C695.106 16.7562 694.146 14.2329 694.146 10.8817C694.146 9.30459 694.386 7.84581 694.906 6.58416C695.386 5.36193 696.106 4.29742 697.026 3.43003C697.946 2.56265 699.066 1.93182 700.346 1.4587C701.586 1.02501 702.986 0.788452 704.546 0.788452C706.066 0.788452 707.466 1.02501 708.746 1.4587C709.986 1.93182 711.066 2.56265 712.026 3.43003C712.906 4.29742 713.626 5.36193 714.186 6.58416C714.666 7.84581 714.946 9.30459 714.946 10.8817C714.946 14.2329 713.946 16.7562 712.026 18.4121C710.066 20.1469 707.586 20.9749 704.546 20.9749ZM717.786 23.1433V1.18272H724.786V23.1433H717.786ZM702.906 22.3942V26.9283H725.186V32.8423H695.906V22.3942H702.906Z" fill="#43270B"/>
<path d="M679.348 7.49105H676.828C677.308 7.84589 677.708 8.24015 678.068 8.63442C678.548 9.26525 678.828 9.97492 678.828 10.724C678.828 12.3799 677.988 13.681 676.308 14.6273C675.308 15.1792 674.028 15.5735 672.468 15.8101V17.3477H674.628C676.068 17.3477 677.468 17.3083 678.748 17.1506C679.868 17.0717 680.668 16.914 681.148 16.6774V1.1828H688.548V8.71327C689.108 8.51614 689.788 8.35843 690.668 8.24015C691.628 8.08245 692.588 8.0036 693.468 8.0036V14.509C692.828 14.509 691.988 14.5878 691.028 14.6667C690.148 14.785 689.308 14.9427 688.548 15.1398V22.8674H681.148V21.5663C680.508 21.9212 679.628 22.1972 678.468 22.3549C677.188 22.5914 675.668 22.6703 673.908 22.6703H657.668V17.3477H665.068V15.8495C663.388 15.6129 662.068 15.2187 661.028 14.6273C659.348 13.681 658.508 12.3799 658.508 10.724C658.508 9.97492 658.748 9.26525 659.268 8.63442C659.588 8.24015 659.988 7.84589 660.468 7.49105H657.988V2.60215H664.988V0H672.388V2.60215H679.348V7.49105ZM668.668 11.5914C669.628 11.5914 670.468 11.4337 671.188 11.0789C671.868 10.7635 672.228 10.2903 672.228 9.65951C672.228 9.14697 671.868 8.71327 671.148 8.31901C670.388 7.96417 669.548 7.76704 668.668 7.76704C667.708 7.76704 666.908 7.96417 666.188 8.31901C665.468 8.71327 665.108 9.14697 665.108 9.65951C665.108 10.2903 665.428 10.7635 666.148 11.0789C666.788 11.4337 667.628 11.5914 668.668 11.5914ZM681.548 32.9606V29.7276H660.428V24.2079H688.548V32.9606H681.548Z" fill="#43270B"/>
<path d="M647.723 19.0824H614.643V15.1397H647.723V19.0824ZM616.403 5.79565H638.923V4.84941H616.603V1.18274H645.723V9.46232H623.203V10.448H646.323V14.1147H616.403V5.79565ZM616.283 24.6416H639.043V23.7347H616.283V20.0286H645.843V28.3477H623.083V29.1756H646.563V33H616.283V24.6416Z" fill="#43270B"/>
<path d="M600.983 1.89242V5.32253C600.983 7.92468 600.663 10.448 600.023 12.8924C599.383 15.3763 598.463 17.7419 597.303 19.9892C596.103 22.2365 594.623 24.3261 592.943 26.258C591.223 28.2294 589.303 29.9247 587.183 31.4229L581.943 26.4946C585.663 23.7347 588.503 20.7383 590.423 17.5053C592.343 14.3512 593.343 11.2365 593.463 8.20067H583.143V1.89242H600.983ZM605.143 32.9211V1.18274H612.543V32.9211H605.143Z" fill="#EC7700"/>
<path d="M579.437 9.14697H576.197C576.957 9.65951 577.557 10.2115 577.957 10.8029C578.437 11.5914 578.677 12.4194 578.677 13.2473C578.677 14.1936 578.437 15.1004 577.957 15.8889C577.477 16.7169 576.677 17.4265 575.597 17.9785C574.477 18.5699 573.037 19.0036 571.237 19.319C569.397 19.6739 567.197 19.8316 564.557 19.8316C561.877 19.8316 559.637 19.6739 557.877 19.319C556.037 19.0036 554.597 18.5699 553.477 17.9785C552.357 17.4265 551.597 16.7169 551.157 15.8889C550.677 15.1004 550.437 14.1936 550.437 13.2473C550.437 12.4194 550.677 11.5914 551.157 10.8029C551.557 10.2115 552.077 9.65951 552.877 9.14697H550.037V3.62725H561.037V0H568.437V3.62725H579.437V9.14697ZM564.557 14.509C567.197 14.509 569.037 14.3513 570.117 13.957C571.157 13.6416 571.677 13.0896 571.677 12.3799C571.677 11.6703 571.037 11.0394 569.837 10.4086C568.597 9.85664 566.837 9.54123 564.557 9.54123C562.237 9.54123 560.477 9.85664 559.277 10.4086C558.037 11.0394 557.437 11.6703 557.437 12.3799C557.437 13.0896 557.957 13.6416 559.037 13.957C560.077 14.3513 561.917 14.509 564.557 14.509ZM560.517 32.9606V27.0861H548.037V21.1721H581.117V27.0861H568.237V32.9606H560.517Z" fill="#EC7700"/>
<path d="M519.455 1.89242V5.32253C519.375 7.84583 519.055 10.3297 518.495 12.7742C518.015 14.7061 517.415 16.5985 516.695 18.3727C517.375 19.1218 517.975 19.9104 518.575 20.6989C519.855 22.5914 521.095 24.5627 522.215 26.6129L517.855 31.1075C517.215 30.0036 516.655 29.0179 516.135 28.0717C515.575 27.1649 515.055 26.2975 514.495 25.4301C514.215 25.1147 513.975 24.7598 513.695 24.405C513.295 25.0358 512.935 25.6272 512.535 26.1792C511.095 28.1505 509.575 29.9247 507.895 31.4229L503.295 26.8889C505.975 24.0896 508.175 21.0932 509.855 17.939C511.495 14.7849 512.455 11.5519 512.735 8.20067H504.655V1.89242H519.455ZM523.575 32.9606V18.4516C522.855 18.5304 522.135 18.6093 521.495 18.6093C520.775 18.6487 520.255 18.6487 519.855 18.6487V11.9856H523.575V1.18274H529.935V32.9606H523.575ZM531.895 32.9606V1.18274H538.215V32.9606H531.895Z" fill="#EC7700"/>
<path d="M470.355 11.6308C473.075 10.448 475.075 9.02863 476.395 7.45157C477.675 5.8745 478.315 3.90317 478.315 1.49815H485.195C485.155 3.19349 484.915 4.77056 484.555 6.18992C485.915 6.70246 487.235 7.37271 488.475 8.12182C489.955 9.10748 491.355 10.4086 492.635 12.0645L487.795 16.3225C486.755 14.982 485.515 13.7992 484.075 12.7742C483.275 12.2616 482.475 11.8279 481.675 11.4337C479.755 13.6021 477.235 15.258 474.195 16.362L470.355 11.6308ZM495.235 16.0466V1.18274H502.195V16.0466H495.235ZM473.555 22.8279H495.395V21.724H473.755V17.2294H502.195V27.1254H480.355V28.3477H502.595V32.8423H473.555V22.8279Z" fill="#EC7700"/>
<path d="M440.916 16.5986C441.956 16.5986 442.836 16.2043 443.556 15.3763C444.236 14.5878 444.596 13.405 444.596 11.9068C444.596 10.4086 444.196 9.2258 443.476 8.43726C442.716 7.64873 441.876 7.25447 440.916 7.25447C439.956 7.25447 439.076 7.64873 438.356 8.43726C437.596 9.2258 437.236 10.4086 437.236 11.9068C437.236 13.405 437.556 14.5878 438.276 15.3763C438.916 16.2043 439.796 16.5986 440.916 16.5986ZM440.916 23.104C437.556 23.104 434.996 22.1577 433.196 20.2258C431.356 18.3333 430.436 15.534 430.436 11.9068C430.436 10.1326 430.676 8.55554 431.196 7.13619C431.676 5.75626 432.396 4.57346 433.356 3.62722C434.276 2.68099 435.396 1.97131 436.676 1.45876C437.956 0.985641 439.356 0.709656 440.916 0.709656C442.436 0.709656 443.836 0.985641 445.116 1.45876C446.396 1.97131 447.476 2.68099 448.436 3.62722C449.356 4.57346 450.076 5.75626 450.636 7.13619C451.116 8.55554 451.396 10.1326 451.396 11.9068C451.396 15.534 450.476 18.3333 448.636 20.2258C446.796 22.1577 444.196 23.104 440.916 23.104ZM430.076 25.1147H447.036C448.476 25.1147 449.876 25.0753 451.156 24.9176C452.276 24.8387 453.076 24.681 453.556 24.4445V1.18277H460.956V32.9212H453.556V29.7276C452.916 30.1219 452.036 30.3584 450.876 30.5161C449.596 30.7527 448.076 30.8316 446.316 30.8316H430.076V25.1147Z" fill="#EC7700"/>
<path d="M419.09 7.21502C420.61 7.21502 421.97 7.17559 423.25 7.09674C424.45 7.05731 425.53 6.93903 426.49 6.78133V11.0394C425.77 11.276 424.77 11.4731 423.53 11.5519C422.25 11.7096 420.85 11.7491 419.33 11.7491H397.61V1.41931H425.65V5.95337H403.81V7.21502H419.09ZM428.53 17.4265H395.45V12.8924H428.53V17.4265ZM397.05 23.7348H419.89V22.7097H397.05V18.6093H426.69V27.8351H403.85V28.7814H427.41V33H397.05V23.7348Z" fill="#EC7700"/>
<path d="M378.023 1.89242V5.32253C377.863 7.76698 377.463 10.172 376.743 12.6164C376.143 14.5878 375.383 16.4803 374.503 18.2939C374.743 18.491 374.943 18.6487 375.183 18.8064C376.063 19.595 376.863 20.3441 377.623 21.0932C378.343 21.8817 379.063 22.6702 379.743 23.4982C380.383 24.3656 381.063 25.2724 381.703 26.2186L377.063 31.1075C376.383 30.043 375.703 29.0968 375.023 28.2294C374.303 27.4014 373.543 26.6129 372.783 25.8638C372.183 25.3512 371.583 24.8387 370.983 24.2867C370.503 24.957 370.023 25.5878 369.503 26.1792C367.823 28.1899 365.983 29.9247 364.023 31.4229L359.183 26.2975C360.703 25.1147 362.103 23.7742 363.423 22.3548C364.703 20.9749 365.823 19.5161 366.863 17.9785C367.823 16.4408 368.663 14.8638 369.303 13.2078C369.903 11.5914 370.303 9.93544 370.503 8.20067H360.583V1.89242H378.023ZM395.303 11.7096V18.5304C394.663 18.5304 393.823 18.6093 392.863 18.6881C391.983 18.8064 391.143 18.9641 390.383 19.1613V32.9211H382.983V1.18274H390.383V12.4193C391.143 12.1828 391.983 11.9856 392.903 11.8673C393.903 11.7885 394.703 11.7096 395.303 11.7096Z" fill="#EC7700"/>
<path d="M349.517 8.0824C351.037 8.0824 352.397 8.04298 353.677 7.96412C354.877 7.9247 355.957 7.80642 356.917 7.64871V12.4982C356.197 12.7347 355.197 12.9319 353.957 13.0107C352.677 13.1684 351.277 13.2079 349.757 13.2079H346.037V15.1398H358.957V20.6595H325.877V15.1398H338.797V13.2079H328.037V1.41931H356.077V6.54477H334.637V8.0824H349.517ZM350.077 32.9606V28.0717H327.397V22.3548H357.077V32.9606H350.077Z" fill="#EC7700"/>
<path d="M315.651 16.3226C315.771 14.9821 315.891 13.5233 315.971 11.8674C316.051 10.2904 316.091 8.871 316.091 7.6882H293.851V1.37994H323.091C323.091 3.11471 323.051 4.65235 323.051 5.99286C323.011 7.41221 322.971 8.67386 322.971 9.85666C322.891 11.0789 322.851 12.2223 322.811 13.2473C322.731 14.3119 322.651 15.337 322.571 16.3226H315.651ZM304.371 32.9606V24.7205H291.891V18.4122H324.971V24.7205H312.091V32.9606H304.371Z" fill="#EC7700"/>
<path d="M268.223 9.06811H265.622C267.022 10.448 267.702 12.0645 267.702 13.957C267.702 15.0215 267.503 16.0466 267.103 16.9929C266.703 17.9785 266.102 18.8459 265.302 19.5556C264.502 20.3441 263.502 20.9355 262.302 21.3298C261.102 21.8029 259.702 22 258.142 22C256.542 22 255.142 21.8029 253.942 21.3298C252.742 20.9355 251.742 20.3441 250.942 19.5556C250.142 18.8459 249.542 17.9785 249.182 16.9929C248.782 16.0466 248.582 15.0215 248.582 13.957C248.582 12.0645 249.262 10.448 250.622 9.06811H248.062V3.39069H254.462V0H261.862V3.39069H268.223V9.06811ZM258.142 10.2115C257.142 10.2115 256.423 10.5663 255.943 11.276C255.423 12.0251 255.182 12.7742 255.182 13.5627C255.182 14.509 255.422 15.2581 255.982 15.8889C256.462 16.5592 257.182 16.8746 258.142 16.8746C259.022 16.8746 259.742 16.5592 260.302 15.8889C260.822 15.2581 261.103 14.509 261.103 13.5627C261.103 12.7742 260.822 12.0251 260.342 11.276C259.822 10.5663 259.102 10.2115 258.142 10.2115ZM283.383 7.4122V14.233C283.063 14.233 282.663 14.2724 282.223 14.2724C281.743 14.3118 281.263 14.3513 280.823 14.4301C280.343 14.509 279.903 14.5484 279.503 14.6273C279.223 14.7061 279.022 14.785 278.862 14.8638V23.5377H271.862V1.1828H278.862V8.31901C279.302 8.04302 279.823 7.84589 280.503 7.64876C281.222 7.49105 282.183 7.4122 283.383 7.4122ZM256.982 23.1828V27.1255H279.262V32.8423H249.982V23.1828H256.982Z" fill="#43270B"/>
<path d="M237.557 8.0824C239.077 8.0824 240.437 8.04298 241.717 7.96412C242.917 7.9247 243.997 7.80642 244.957 7.64871V12.4982C244.237 12.7347 243.237 12.9319 241.997 13.0107C240.717 13.1684 239.317 13.2079 237.797 13.2079H234.077V15.1398H246.997V20.6595H213.917V15.1398H226.837V13.2079H216.077V1.41931H244.117V6.54477H222.677V8.0824H237.557ZM238.117 32.9606V28.0717H215.437V22.3548H245.117V32.9606H238.117Z" fill="#43270B"/>
<path d="M203.692 16.3226C203.812 14.9821 203.932 13.5233 204.012 11.8674C204.092 10.2904 204.132 8.871 204.132 7.6882H181.892V1.37994H211.132C211.132 3.11471 211.092 4.65235 211.092 5.99286C211.052 7.41221 211.012 8.67386 211.012 9.85666C210.932 11.0789 210.892 12.2223 210.852 13.2473C210.772 14.3119 210.692 15.337 210.612 16.3226H203.692ZM192.412 32.9606V24.7205H179.932V18.4122H213.012V24.7205H200.132V32.9606H192.412Z" fill="#43270B"/>
<path d="M170.625 19.0824H137.545V15.1397H170.625V19.0824ZM139.305 5.79565H161.825V4.84941H139.505V1.18274H168.625V9.46232H146.105V10.448H169.225V14.1147H139.305V5.79565ZM139.185 24.6416H161.945V23.7347H139.185V20.0286H168.745V28.3477H145.985V29.1756H169.465V33H139.185V24.6416Z" fill="#43270B"/>
<path d="M103.88 17.3477C107.88 15.4158 111.04 13.1291 113.44 10.4481C115.8 7.80648 117.08 4.81006 117.24 1.49823H124.72C124.64 3.66669 124.28 5.71687 123.56 7.64878C126 8.98928 128.24 10.3692 130.2 11.8674C132.16 13.4051 134.24 15.2581 136.4 17.466L131.68 22.7492C129.84 20.699 127.88 18.8459 125.76 17.19C123.88 15.8495 122.04 14.6273 120.16 13.6022L119.68 14.1936C118.16 16.0072 116.4 17.6631 114.4 19.1219C112.36 20.6201 110.2 21.8423 107.92 22.8674L103.88 17.3477ZM103.56 32.4481V26.1398H136.64V32.4481H103.56Z" fill="#43270B"/>
<path d="M82.1318 1.30102H88.7318V19.0036H69.0918V1.30102H75.6918V5.00712H82.1318V1.30102ZM75.6918 10.5268V13.4838H82.1318V10.5268H75.6918ZM103.452 6.62361V13.4444C103.132 13.4444 102.732 13.4838 102.292 13.4838C101.812 13.5233 101.332 13.5627 100.892 13.6415C100.412 13.7204 99.9718 13.7598 99.5718 13.8387C99.2918 13.9175 99.0918 13.9964 98.9318 14.0752V19.9892H91.9718V1.18274H98.9318V7.53042C99.3718 7.25443 99.8918 7.0573 100.572 6.86017C101.292 6.70246 102.252 6.62361 103.452 6.62361ZM91.9318 32.9606V27.6774H70.3318V21.3692H98.9318V32.9606H91.9318Z" fill="#43270B"/>
<path d="M34.5463 10.3297C38.7063 9.30462 41.8663 8.04297 44.1063 6.46591C46.3063 4.9677 47.5463 3.46949 47.8263 2.0107L47.9063 1.30103H55.3863V1.73472C55.2663 2.75981 54.9863 3.70605 54.5863 4.61286C56.6263 5.20426 58.5863 5.91393 60.4663 6.74189C62.6663 7.76699 64.9063 9.06806 67.1863 10.6451L63.6263 15.3369C61.4663 13.7598 59.3463 12.4982 57.3463 11.5519C55.3463 10.6846 53.1863 9.89602 50.9063 9.30462C50.6663 9.46233 50.4663 9.65946 50.2263 9.85659C47.1063 12.301 42.7863 14.1541 37.2663 15.3369L34.5463 10.3297ZM47.6663 25.7849V22.6308H33.9863V16.914H67.0663V22.6308H55.3863V25.7849H47.6663ZM42.7463 24.129V27.086H65.7463V32.8029H35.7463V24.129H42.7463Z" fill="#43270B"/>
<path d="M5.96 23.0251C6.04 21.8423 6.08 20.5807 6.16 19.2008C6.2 17.8603 6.24 16.4803 6.28 15.1398C6.32 13.7993 6.36 12.4588 6.4 11.1577V7.6882H1.36V1.37994H13.4C13.4 5.79572 13.36 9.73838 13.32 13.2079C13.24 16.7169 13.08 19.9893 12.88 23.0251H5.96ZM23.16 23.0251C23.24 21.8423 23.28 20.5807 23.36 19.2008C23.4 17.8603 23.44 16.4803 23.48 15.1398C23.52 13.7993 23.56 12.4588 23.6 11.1577V7.6882H14.96V1.37994H30.6C30.6 5.79572 30.56 9.73838 30.52 13.2079C30.44 16.7169 30.28 19.9893 30.08 23.0251H23.16ZM0 32.4481V26.1398H14.52V16.7957H21.76V26.1398H33.08V32.4481H0Z" fill="#43270B"/>
</svg>
