<svg width="503" height="88" viewBox="0 0 503 88" fill="none" xmlns="http://www.w3.org/2000/svg">
<path d="M9.40806 17.4721C10.1641 17.4721 10.7521 17.0521 11.2561 16.1701C11.7181 15.3301 11.9701 14.0701 11.9701 12.4741C11.9701 10.8781 11.7181 9.61807 11.2141 8.77807C10.6681 7.93807 10.0801 7.51807 9.40806 7.51807C8.73606 7.51807 8.14806 7.93807 7.64406 8.77807C7.09806 9.61807 6.84606 10.8781 6.84606 12.4741C6.84606 14.0701 7.05606 15.3301 7.56006 16.1701C7.98006 17.0521 8.61006 17.4721 9.40806 17.4721ZM6.13206 23.8981C4.83006 23.4361 3.69606 22.6381 2.81406 21.5461C1.13406 19.6561 0.336061 16.6321 0.336061 12.4741C0.336061 8.69407 1.13406 5.75407 2.81406 3.65407C4.45206 1.59607 6.63606 0.546067 9.40806 0.546067C12.0961 0.546067 14.3221 1.59607 16.0021 3.65407C17.6401 5.75407 18.4801 8.69407 18.4801 12.4741C18.4801 16.6321 17.6401 19.6561 16.0021 21.5461C15.1201 22.5121 14.1541 23.2681 13.0621 23.7301V26.9641H13.8601C15.3721 26.9641 16.8421 26.9221 18.1861 26.7541C19.1101 26.7121 19.8661 26.5861 20.3701 26.3761V1.05007H27.0481V13.4821H29.4001V1.05007H36.0361V35.0281H29.4001V20.2441C28.6861 20.4121 27.8881 20.5801 27.0481 20.6221V35.0281H20.3701V32.0461C19.7401 32.3821 18.9421 32.5921 17.8921 32.7181C16.5481 32.9701 14.9521 33.0541 13.1041 33.0541H6.13406e-05V26.9641H6.13206V23.8981ZM63.4381 19.0681C60.6661 19.0681 58.3141 18.8161 56.4241 18.3121C54.4921 17.8501 52.8961 17.1781 51.7201 16.2961C50.5441 15.4561 49.6621 14.4901 49.1581 13.3141C48.6121 12.2221 48.3601 11.0041 48.3601 9.74407C48.3601 8.61007 48.6121 7.43407 49.1581 6.25807C49.6621 5.12407 50.5441 4.07407 51.7201 3.15007C52.8961 2.22607 54.4921 1.47007 56.4241 0.882068C58.3141 0.294065 60.6661 6.67572e-05 63.4381 6.67572e-05C66.1681 6.67572e-05 68.5201 0.294065 70.4521 0.882068C72.3421 1.47007 73.8961 2.22607 75.1141 3.15007C76.2901 4.07407 77.1301 5.12407 77.7181 6.25807C78.2221 7.43407 78.5161 8.61007 78.5161 9.74407C78.5161 11.0041 78.2221 12.2221 77.7181 13.3141C77.1301 14.4901 76.2901 15.4561 75.1141 16.2961C73.8961 17.1781 72.3421 17.8501 70.4521 18.3121C68.5201 18.8161 66.1681 19.0681 63.4381 19.0681ZM63.4381 12.8101C66.1261 12.8101 68.0161 12.5161 69.1081 11.8441C70.1161 11.2141 70.6621 10.4581 70.6621 9.53407C70.6621 8.65207 70.1161 7.89607 69.1081 7.22407C68.0161 6.59407 66.1261 6.25807 63.4381 6.25807C60.6661 6.25807 58.7761 6.59407 57.7681 7.26607C56.7181 7.93807 56.2141 8.69407 56.2141 9.53407C56.2141 10.4581 56.7181 11.2141 57.7681 11.8441C58.7761 12.5161 60.6661 12.8101 63.4381 12.8101ZM59.0701 34.9021V28.0141H45.9661V21.5041H80.7001V28.0141H67.1761V34.9021H59.0701ZM82.8273 13.8181H94.6293V7.89607H83.0373V1.38607H101.769V20.1181H89.9673V26.5441H102.945V33.0541H82.8273V13.8181ZM105.927 34.8601V1.05007H113.697V34.8601H105.927ZM135.431 7.77007C135.011 7.77007 134.591 7.89607 134.213 8.10607C133.793 8.35807 133.457 8.77807 133.163 9.45007C132.869 10.1221 132.659 11.0881 132.491 12.3061C132.281 13.5661 132.197 15.2461 132.197 17.2621C132.197 19.3621 132.281 21.0001 132.491 22.2181C132.659 23.4781 132.869 24.4441 133.163 25.1161C133.457 25.7881 133.793 26.2501 134.213 26.4181C134.591 26.6701 135.011 26.7541 135.431 26.7541C135.809 26.7541 136.187 26.6701 136.607 26.4181C136.985 26.2501 137.321 25.7881 137.657 25.1161C137.909 24.4441 138.161 23.4781 138.371 22.2181C138.539 21.0001 138.665 19.3621 138.665 17.2621C138.665 15.2461 138.539 13.5661 138.371 12.3061C138.161 11.0881 137.909 10.1221 137.657 9.45007C137.321 8.77807 136.985 8.35807 136.607 8.10607C136.187 7.89607 135.809 7.77007 135.431 7.77007ZM135.431 0.840066C137.027 0.840066 138.455 1.13407 139.757 1.72207C141.017 2.35207 142.067 3.31807 142.991 4.62007C143.873 5.96407 144.587 7.64407 145.091 9.70207C145.553 11.8021 145.805 14.3221 145.805 17.2621C145.805 20.2861 145.553 22.8061 145.091 24.8641C144.587 26.9641 143.873 28.6441 142.991 29.9461C142.067 31.2901 141.017 32.2141 139.757 32.8021C138.455 33.3901 137.027 33.6841 135.431 33.6841C133.793 33.6841 132.365 33.3901 131.105 32.8021C129.803 32.2141 128.711 31.2901 127.829 29.9461C126.905 28.6441 126.233 26.9641 125.771 24.8641C125.267 22.8061 125.057 20.2861 125.057 17.2621C125.057 14.3221 125.267 11.8021 125.771 9.70207C126.233 7.64407 126.905 5.96407 127.829 4.62007C128.711 3.31807 129.803 2.35207 131.105 1.72207C132.365 1.13407 133.793 0.840066 135.431 0.840066ZM161.933 12.2641V19.5301C161.261 19.5301 160.379 19.6141 159.371 19.6981C158.447 19.8241 157.565 19.9921 156.767 20.2021V34.8601H148.997V1.05007H156.767V13.0201C157.565 12.7681 158.447 12.5581 159.413 12.4321C160.463 12.3481 161.303 12.2641 161.933 12.2641ZM172.798 7.77007C172.378 7.77007 171.958 7.89607 171.58 8.10607C171.16 8.35807 170.824 8.77807 170.53 9.45007C170.236 10.1221 170.026 11.0881 169.858 12.3061C169.648 13.5661 169.564 15.2461 169.564 17.2621C169.564 19.3621 169.648 21.0001 169.858 22.2181C170.026 23.4781 170.236 24.4441 170.53 25.1161C170.824 25.7881 171.16 26.2501 171.58 26.4181C171.958 26.6701 172.378 26.7541 172.798 26.7541C173.176 26.7541 173.554 26.6701 173.974 26.4181C174.352 26.2501 174.688 25.7881 175.024 25.1161C175.276 24.4441 175.528 23.4781 175.738 22.2181C175.906 21.0001 176.032 19.3621 176.032 17.2621C176.032 15.2461 175.906 13.5661 175.738 12.3061C175.528 11.0881 175.276 10.1221 175.024 9.45007C174.688 8.77807 174.352 8.35807 173.974 8.10607C173.554 7.89607 173.176 7.77007 172.798 7.77007ZM172.798 0.840066C174.394 0.840066 175.822 1.13407 177.124 1.72207C178.384 2.35207 179.434 3.31807 180.358 4.62007C181.24 5.96407 181.954 7.64407 182.458 9.70207C182.92 11.8021 183.172 14.3221 183.172 17.2621C183.172 20.2861 182.92 22.8061 182.458 24.8641C181.954 26.9641 181.24 28.6441 180.358 29.9461C179.434 31.2901 178.384 32.2141 177.124 32.8021C175.822 33.3901 174.394 33.6841 172.798 33.6841C171.16 33.6841 169.732 33.3901 168.472 32.8021C167.17 32.2141 166.078 31.2901 165.196 29.9461C164.272 28.6441 163.6 26.9641 163.138 24.8641C162.634 22.8061 162.424 20.2861 162.424 17.2621C162.424 14.3221 162.634 11.8021 163.138 9.70207C163.6 7.64407 164.272 5.96407 165.196 4.62007C166.078 3.31807 167.17 2.35207 168.472 1.72207C169.732 1.13407 171.16 0.840066 172.798 0.840066ZM186.364 34.8601V1.05007H194.134V34.8601H186.364ZM231.072 20.1181H196.338V15.9181H231.072V20.1181ZM198.186 5.96407H221.832V4.95607H198.396V1.05007H228.972V9.87007H205.326V10.9201H229.602V14.8261H198.186V5.96407ZM198.06 26.0401H221.958V25.0741H198.06V21.1261H229.098V29.9881H205.2V30.8701H229.854V34.9441H198.06V26.0401ZM253.443 13.2721C254.535 13.2721 255.543 13.0621 256.425 12.5581C257.265 12.1381 257.685 11.3401 257.727 10.1641C257.685 9.07207 257.223 8.27407 256.341 7.77007C255.417 7.30807 254.451 7.05607 253.443 7.05607C252.435 7.05607 251.469 7.30807 250.545 7.77007C249.621 8.27407 249.159 9.07207 249.159 10.1641C249.159 11.3401 249.579 12.1381 250.461 12.5581C251.301 13.0621 252.267 13.2721 253.443 13.2721ZM253.443 19.7821C249.915 19.7821 247.143 19.0261 245.127 17.5141C243.027 16.0441 242.019 13.6501 242.019 10.3741C242.019 8.86207 242.313 7.47607 242.901 6.21607C243.489 5.04007 244.287 3.99007 245.337 3.15007C246.345 2.31007 247.521 1.68007 248.949 1.21807C250.293 0.798066 251.805 0.546067 253.443 0.546067C255.039 0.546067 256.509 0.798066 257.937 1.21807C259.281 1.68007 260.499 2.31007 261.549 3.15007C262.557 3.99007 263.355 5.04007 263.943 6.21607C264.531 7.47607 264.825 8.86207 264.867 10.3741C264.825 13.6501 263.775 16.0441 261.759 17.5141C259.659 19.0261 256.887 19.7821 253.443 19.7821ZM241.473 21.1681H259.113C261.003 21.1681 262.641 21.1261 264.069 21.0421C265.455 20.9581 266.547 20.7901 267.303 20.4961V1.05007H274.653V34.9021H267.303V26.9221C267.009 27.0901 266.715 27.1741 266.337 27.2161C265.749 27.3421 265.077 27.4261 264.321 27.5101C263.565 27.5941 262.767 27.6361 261.927 27.6361C261.087 27.6781 260.247 27.6781 259.407 27.6781H257.223V34.9021H249.369V27.6781H241.473V21.1681ZM295.034 11.2981H277.52V5.04007H283.022V6.67572e-05H289.532V5.04007H295.034V11.2981ZM286.34 27.4681C286.928 27.4681 287.39 27.1321 287.81 26.4181C288.146 25.7461 288.356 24.6541 288.356 23.1421C288.356 21.7141 288.146 20.6221 287.81 19.8661C287.39 19.1941 286.928 18.8161 286.34 18.8161C285.71 18.8161 285.206 19.1941 284.87 19.8661C284.492 20.6221 284.324 21.7141 284.324 23.1421C284.324 24.6541 284.492 25.7461 284.912 26.4181C285.248 27.1321 285.752 27.4681 286.34 27.4681ZM286.34 33.7681C283.568 33.7681 281.426 32.9281 279.998 31.2061C278.528 29.5261 277.814 26.8381 277.814 23.1421C277.814 19.6141 278.57 16.9681 280.124 15.1621C281.636 13.3981 283.736 12.5161 286.34 12.5161C288.944 12.5161 291.002 13.3981 292.556 15.1621C294.068 16.9681 294.866 19.6141 294.866 23.1421C294.866 26.8381 294.11 29.5261 292.682 31.2061C291.17 32.9281 289.07 33.7681 286.34 33.7681ZM306.206 19.4041C305.492 19.5721 304.694 19.7401 303.854 19.7821V35.0281H297.176V1.05007H303.854V12.6421H306.206V1.05007H312.842V35.0281H306.206V19.4041ZM329.629 24.3181C329.713 23.0581 329.755 21.7141 329.839 20.2441C329.881 18.8161 329.923 17.3461 329.965 15.9181C330.007 14.4901 330.049 13.0621 330.091 11.6761V7.98007H324.799V1.26007H337.441C337.441 5.96407 337.399 10.1641 337.357 13.8601C337.273 17.5981 337.105 21.0841 336.895 24.3181H329.629ZM347.689 24.3181C347.773 23.0581 347.815 21.7141 347.899 20.2441C347.941 18.8161 347.983 17.3461 348.025 15.9181C348.067 14.4901 348.109 13.0621 348.151 11.6761V7.98007H339.079V1.26007H355.501C355.501 5.96407 355.459 10.1641 355.417 13.8601C355.333 17.5981 355.165 21.0841 354.955 24.3181H347.689ZM323.371 34.3561V27.6361H338.617V17.6821H346.219V27.6361H358.105V34.3561H323.371ZM359.644 10.7941C364.012 9.70207 367.33 8.35807 369.682 6.67807C371.992 5.08207 373.294 3.48607 373.588 1.93207L373.672 1.17607H381.526V1.63807C381.4 2.73007 381.106 3.73807 380.686 4.70407C382.828 5.33407 384.886 6.09007 386.86 6.97207C389.17 8.06407 391.522 9.45007 393.916 11.1301L390.178 16.1281C387.91 14.4481 385.684 13.1041 383.584 12.0961C381.484 11.1721 379.216 10.3321 376.822 9.70207C376.57 9.87007 376.36 10.0801 376.108 10.2901C372.832 12.8941 368.296 14.8681 362.5 16.1281L359.644 10.7941ZM373.42 27.2581V23.8981H359.056V17.8081H393.79V23.8981H381.526V27.2581H373.42ZM368.254 25.4941V28.6441H392.404V34.7341H360.904V25.4941H368.254ZM409.61 1.17607H416.54V20.0341H395.918V1.17607H402.848V5.12407H409.61V1.17607ZM402.848 11.0041V14.1541H409.61V11.0041H402.848ZM431.996 6.84607V14.1121C431.66 14.1121 431.24 14.1541 430.778 14.1541C430.274 14.1961 429.77 14.2381 429.308 14.3221C428.804 14.4061 428.342 14.4481 427.922 14.5321C427.628 14.6161 427.418 14.7001 427.25 14.7841V21.0841H419.942V1.05007H427.25V7.81207C427.712 7.51807 428.258 7.30807 428.972 7.09807C429.728 6.93007 430.736 6.84607 431.996 6.84607ZM419.9 34.9021V29.2741H397.22V22.5541H427.25V34.9021H419.9ZM432.445 18.2701C436.645 16.2121 439.963 13.7761 442.483 10.9201C444.961 8.10607 446.305 4.91407 446.473 1.38607H454.327C454.243 3.69607 453.865 5.88007 453.109 7.93807C455.671 9.36607 458.023 10.8361 460.081 12.4321C462.139 14.0701 464.323 16.0441 466.591 18.3961L461.635 24.0241C459.703 21.8401 457.645 19.8661 455.419 18.1021C453.445 16.6741 451.513 15.3721 449.539 14.2801L449.035 14.9101C447.439 16.8421 445.591 18.6061 443.491 20.1601C441.349 21.7561 439.081 23.0581 436.687 24.1501L432.445 18.2701ZM432.109 34.3561V27.6361H466.843V34.3561H432.109ZM502.528 20.1181H467.794V15.9181H502.528V20.1181ZM469.642 5.96407H493.288V4.95607H469.852V1.05007H500.428V9.87007H476.782V10.9201H501.058V14.8261H469.642V5.96407ZM469.516 26.0401H493.414V25.0741H469.516V21.1261H500.554V29.9881H476.656V30.8701H501.31V34.9441H469.516V26.0401Z" fill="#43270B"/>
<path d="M115.307 69.0101C118.331 66.8681 120.515 64.5581 121.859 62.1221C123.161 59.6861 123.749 56.7881 123.665 53.3861H130.889C130.889 55.9061 130.637 58.1321 130.217 60.1481C130.049 60.8621 129.881 61.4921 129.671 62.1221C130.889 63.0041 132.149 63.9701 133.451 65.0201C135.047 66.4481 136.475 68.0441 137.651 69.8921L132.569 74.6381C131.351 72.8741 130.049 71.3621 128.663 70.0181C127.991 69.3881 127.277 68.8001 126.521 68.2121C125.975 68.9681 125.345 69.6401 124.715 70.3121C123.287 71.7401 121.649 73.0841 119.759 74.2601L115.307 69.0101ZM141.767 58.0061V53.0501H149.117V76.4441H141.767V64.3061C141.347 64.3901 140.927 64.4321 140.423 64.4321C139.919 64.5161 139.373 64.5161 138.827 64.5161C138.239 64.5581 137.651 64.5581 137.105 64.5581C136.517 64.6001 136.013 64.6001 135.551 64.6001H135.047V58.0901H139.163C139.667 58.0901 140.171 58.0901 140.675 58.0481C141.095 58.0481 141.473 58.0481 141.767 58.0061ZM125.765 75.6461V80.4761H149.579V86.7761H118.415V75.6461H125.765ZM168.736 58.6361H158.782V60.2321H168.568V65.6081H158.782V67.2881H166.048C166.468 67.3301 166.888 67.3301 167.308 67.2881C167.686 67.2881 168.064 67.2881 168.442 67.2461C168.778 67.2461 169.156 67.1621 169.492 67.0781V72.3701C168.988 72.5801 168.316 72.7061 167.518 72.7901C166.678 72.8741 165.544 72.9161 164.116 72.8741H152.272V53.0501H168.736V58.6361ZM180.244 66.1541C179.53 66.3221 178.732 66.4061 177.892 66.4061V73.5041H171.382V53.0501H177.892V59.8121H180.244V53.0501H186.754V73.5041H180.244V66.1541ZM179.404 86.9021V81.2321H154.414V74.9321H186.754V86.9021H179.404ZM206.313 63.2981H188.799V57.0401H194.301V52.0001H200.811V57.0401H206.313V63.2981ZM197.619 79.4681C198.207 79.4681 198.669 79.1321 199.089 78.4181C199.425 77.7461 199.635 76.6541 199.635 75.1421C199.635 73.7141 199.425 72.6221 199.089 71.8661C198.669 71.1941 198.207 70.8161 197.619 70.8161C196.989 70.8161 196.485 71.1941 196.149 71.8661C195.771 72.6221 195.603 73.7141 195.603 75.1421C195.603 76.6541 195.771 77.7461 196.191 78.4181C196.527 79.1321 197.031 79.4681 197.619 79.4681ZM197.619 85.7681C194.847 85.7681 192.705 84.9281 191.277 83.2061C189.807 81.5261 189.093 78.8381 189.093 75.1421C189.093 71.6141 189.849 68.9681 191.403 67.1621C192.915 65.3981 195.015 64.5161 197.619 64.5161C200.223 64.5161 202.281 65.3981 203.835 67.1621C205.347 68.9681 206.145 71.6141 206.145 75.1421C206.145 78.8381 205.389 81.5261 203.961 83.2061C202.449 84.9281 200.349 85.7681 197.619 85.7681ZM217.485 71.4041C216.771 71.5721 215.973 71.7401 215.133 71.7821V87.0281H208.455V53.0501H215.133V64.6421H217.485V53.0501H224.121V87.0281H217.485V71.4041ZM236.539 59.7701C236.119 59.7701 235.699 59.8961 235.321 60.1061C234.901 60.3581 234.565 60.7781 234.271 61.4501C233.977 62.1221 233.767 63.0881 233.599 64.3061C233.389 65.5661 233.305 67.2461 233.305 69.2621C233.305 71.3621 233.389 73.0001 233.599 74.2181C233.767 75.4781 233.977 76.4441 234.271 77.1161C234.565 77.7881 234.901 78.2501 235.321 78.4181C235.699 78.6701 236.119 78.7541 236.539 78.7541C236.917 78.7541 237.295 78.6701 237.715 78.4181C238.093 78.2501 238.429 77.7881 238.765 77.1161C239.017 76.4441 239.269 75.4781 239.479 74.2181C239.647 73.0001 239.773 71.3621 239.773 69.2621C239.773 67.2461 239.647 65.5661 239.479 64.3061C239.269 63.0881 239.017 62.1221 238.765 61.4501C238.429 60.7781 238.093 60.3581 237.715 60.1061C237.295 59.8961 236.917 59.7701 236.539 59.7701ZM236.539 52.8401C238.135 52.8401 239.563 53.1341 240.865 53.7221C242.125 54.3521 243.175 55.3181 244.099 56.6201C244.981 57.9641 245.695 59.6441 246.199 61.7021C246.661 63.8021 246.913 66.3221 246.913 69.2621C246.913 72.2861 246.661 74.8061 246.199 76.8641C245.695 78.9641 244.981 80.6441 244.099 81.9461C243.175 83.2901 242.125 84.2141 240.865 84.8021C239.563 85.3901 238.135 85.6841 236.539 85.6841C234.901 85.6841 233.473 85.3901 232.213 84.8021C230.911 84.2141 229.819 83.2901 228.937 81.9461C228.013 80.6441 227.341 78.9641 226.879 76.8641C226.375 74.8061 226.165 72.2861 226.165 69.2621C226.165 66.3221 226.375 63.8021 226.879 61.7021C227.341 59.6441 228.013 57.9641 228.937 56.6201C229.819 55.3181 230.911 54.3521 232.213 53.7221C233.473 53.1341 234.901 52.8401 236.539 52.8401ZM250.105 86.8601V53.0501H257.875V58.6781C258.715 58.5521 259.597 58.4681 260.563 58.4261C261.571 58.4261 262.411 58.3841 263.041 58.3841V65.6501C262.369 65.6501 261.487 65.6921 260.479 65.6921C259.555 65.7761 258.673 65.8601 257.875 65.9441V70.8581C258.715 70.7321 259.597 70.6481 260.563 70.6061C261.571 70.6061 262.411 70.5641 263.041 70.5641V77.8301C262.369 77.8301 261.487 77.8721 260.479 77.8721C259.555 77.9561 258.673 78.0401 257.875 78.1241V86.8601H250.105ZM284.532 59.8961H282.096C283.314 60.9041 283.986 62.1221 283.986 63.6341C283.986 65.3141 283.188 66.7001 281.592 67.7081C279.996 68.7581 277.434 69.2621 273.948 69.2621C270.42 69.2621 267.858 68.7581 266.304 67.7081C264.708 66.7001 263.91 65.3141 263.91 63.6341C263.91 62.1221 264.498 60.9041 265.758 59.8961H263.364V54.8981H270.084V51.7901H277.854V54.8981H284.532V59.8961ZM273.948 64.6421C274.914 64.6421 275.67 64.5161 276.258 64.2221C276.762 63.9701 277.056 63.5501 277.056 62.9621C277.056 62.3741 276.762 61.9121 276.174 61.5761C275.544 61.2821 274.788 61.1141 273.948 61.1141C273.024 61.1141 272.31 61.2821 271.722 61.5761C271.134 61.9121 270.84 62.3741 270.84 62.9621C270.84 63.5501 271.092 63.9701 271.638 64.2221C272.142 64.5161 272.94 64.6421 273.948 64.6421ZM300.45 57.3761V64.4321C300.114 64.4321 299.694 64.4741 299.232 64.4741C298.728 64.5161 298.224 64.5581 297.762 64.6421C297.258 64.7261 296.796 64.7681 296.376 64.8521C296.082 64.9361 295.872 65.0201 295.704 65.1041V69.3041H288.396V53.0501H295.704V58.3421C296.166 58.0901 296.712 57.8381 297.426 57.6281C298.182 57.4601 299.19 57.3761 300.45 57.3761ZM265.632 76.3601H288.564V75.2261H265.842V70.5221H295.704V80.8541H272.772V82.0721H296.124V86.7761H265.632V76.3601ZM311.441 53.8061V57.4601C311.441 60.2741 311.357 62.8781 311.189 65.3141C311.021 67.7501 310.727 70.1021 310.307 72.2861C309.887 74.5541 309.299 76.6961 308.627 78.7541C307.871 80.8541 306.989 82.9541 305.897 84.9701L299.639 81.6941C300.563 80.1821 301.319 78.5861 301.991 76.8221C302.621 75.1421 303.125 73.3781 303.545 71.5301C303.965 69.7241 304.259 67.8761 304.427 65.9861C304.553 64.1381 304.595 62.3321 304.595 60.5261H300.479V53.8061H311.441ZM322.151 53.8061V57.4601C322.151 60.6941 322.067 63.6341 321.899 66.2801C321.731 68.9681 321.437 71.4041 321.059 73.6721C320.639 75.9821 320.135 78.1241 319.547 80.0981C318.875 82.1141 318.119 84.0461 317.195 85.8941L310.643 82.9541C312.323 79.6361 313.499 76.0241 314.255 72.1181C314.969 68.2541 315.263 64.3901 315.095 60.5261H312.659V53.8061H322.151ZM338.405 64.2641V71.5301C337.733 71.5301 336.851 71.6141 335.843 71.6981C334.919 71.8241 334.037 71.9921 333.239 72.2021V86.8601H325.469V53.0501H333.239V65.0201C334.037 64.7681 334.919 64.5581 335.885 64.4321C336.935 64.3481 337.775 64.2641 338.405 64.2641ZM356.058 69.6401C358.494 69.6401 360.384 69.1781 361.728 68.2541C363.03 67.3301 363.702 66.0281 363.702 64.3481C363.702 62.9621 363.03 61.7441 361.686 60.6521C360.342 59.6021 358.452 59.0561 356.058 59.0561C353.622 59.0561 351.732 59.6021 350.43 60.6521C349.086 61.7441 348.414 62.9621 348.414 64.3481C348.414 66.0281 349.086 67.3301 350.43 68.2541C351.732 69.1781 353.622 69.6401 356.058 69.6401ZM356.058 76.3601C354.462 76.3601 353.034 76.2761 351.732 76.1081V79.6361H359.712V76.1501C358.578 76.2761 357.36 76.3601 356.058 76.3601ZM344.382 72.9581C343.206 71.9921 342.366 70.8161 341.862 69.3881C341.274 67.9601 340.98 66.3221 340.98 64.5581C340.98 63.0461 341.274 61.5341 341.862 60.0221C342.45 58.5941 343.332 57.2921 344.592 56.1161C345.852 55.0241 347.406 54.1001 349.338 53.3861C351.186 52.7141 353.454 52.3361 356.058 52.3361C358.62 52.3361 360.846 52.7141 362.778 53.3861C364.626 54.1001 366.222 55.0241 367.482 56.1161C368.7 57.2921 369.624 58.5941 370.254 60.0221C370.842 61.5341 371.136 63.0461 371.136 64.5581C371.136 66.3221 370.842 67.9601 370.254 69.3881C369.666 70.8581 368.742 72.1181 367.524 73.1261C367.356 73.2521 367.188 73.3781 367.062 73.5041V79.6361H373.32V86.3561H338.586V79.6361H344.382V72.9581ZM380.614 78.9221H387.964V86.3141H380.614V78.9221ZM387.376 63.2561C387.376 61.7021 386.2 60.4001 384.268 60.5681C382.336 60.7361 381.412 61.8281 380.908 63.8021L374.398 61.8281C375.7 56.6201 379.018 53.6381 383.596 53.3441C389.728 52.9241 393.34 55.9061 394.432 59.8961C395.692 64.4741 394.264 67.7501 390.988 70.9001C389.182 72.6221 388.132 73.9661 387.922 76.4861H380.446V75.4781C380.446 73.3361 381.328 71.3201 382.924 69.7661C386.452 66.3641 387.376 65.1881 387.376 63.2561Z" fill="#EC7700"/>
</svg>
