<svg width="231" height="74" viewBox="0 0 231 74" fill="none" xmlns="http://www.w3.org/2000/svg">
<path d="M14.9756 16.524C12.5996 16.524 10.5836 16.308 8.96358 15.876C7.30758 15.48 5.93958 14.904 4.93158 14.148C3.92358 13.428 3.16758 12.6 2.73558 11.592C2.26758 10.656 2.05158 9.61199 2.05158 8.53199C2.05158 7.55999 2.26758 6.55199 2.73558 5.54399C3.16758 4.57199 3.92358 3.67199 4.93158 2.87999C5.93958 2.08799 7.30758 1.43999 8.96358 0.93599C10.5836 0.431988 12.5996 0.179989 14.9756 0.179989C17.3156 0.179989 19.3316 0.431988 20.9876 0.93599C22.6076 1.43999 23.9396 2.08799 24.9836 2.87999C25.9916 3.67199 26.7116 4.57199 27.2156 5.54399C27.6476 6.55199 27.8996 7.55999 27.8996 8.53199C27.8996 9.61199 27.6476 10.656 27.2156 11.592C26.7116 12.6 25.9916 13.428 24.9836 14.148C23.9396 14.904 22.6076 15.48 20.9876 15.876C19.3316 16.308 17.3156 16.524 14.9756 16.524ZM14.9756 11.16C17.2796 11.16 18.8996 10.908 19.8356 10.332C20.6996 9.79199 21.1676 9.14399 21.1676 8.35199C21.1676 7.59599 20.6996 6.94799 19.8356 6.37199C18.8996 5.83199 17.2796 5.54399 14.9756 5.54399C12.5996 5.54399 10.9796 5.83199 10.1156 6.40799C9.21558 6.98399 8.78358 7.63199 8.78358 8.35199C8.78358 9.14399 9.21558 9.79199 10.1156 10.332C10.9796 10.908 12.5996 11.16 14.9756 11.16ZM11.2316 30.096V24.192H-0.000419714V18.612H29.7716V24.192H18.1796V30.096H11.2316ZM31.5949 12.024H41.7109V6.94799H31.7749V1.36799H47.8309V17.424H37.7149V22.932H48.8389V28.512H31.5949V12.024ZM51.3949 30.06V1.07999H58.0549V30.06H51.3949ZM76.6838 6.83999C76.3238 6.83999 75.9638 6.94799 75.6398 7.12799C75.2798 7.34399 74.9918 7.70399 74.7398 8.27999C74.4878 8.85599 74.3078 9.68399 74.1638 10.728C73.9838 11.808 73.9118 13.248 73.9118 14.976C73.9118 16.776 73.9838 18.18 74.1638 19.224C74.3078 20.304 74.4878 21.132 74.7398 21.708C74.9918 22.284 75.2798 22.68 75.6398 22.824C75.9638 23.04 76.3238 23.112 76.6838 23.112C77.0078 23.112 77.3318 23.04 77.6918 22.824C78.0158 22.68 78.3038 22.284 78.5918 21.708C78.8078 21.132 79.0238 20.304 79.2038 19.224C79.3478 18.18 79.4558 16.776 79.4558 14.976C79.4558 13.248 79.3478 11.808 79.2038 10.728C79.0238 9.68399 78.8078 8.85599 78.5918 8.27999C78.3038 7.70399 78.0158 7.34399 77.6918 7.12799C77.3318 6.94799 77.0078 6.83999 76.6838 6.83999ZM76.6838 0.899988C78.0518 0.899988 79.2758 1.15199 80.3918 1.65599C81.4718 2.19599 82.3718 3.02399 83.1638 4.13999C83.9198 5.29199 84.5318 6.73199 84.9638 8.49599C85.3598 10.296 85.5758 12.456 85.5758 14.976C85.5758 17.568 85.3598 19.728 84.9638 21.492C84.5318 23.292 83.9198 24.732 83.1638 25.848C82.3718 27 81.4718 27.792 80.3918 28.296C79.2758 28.8 78.0518 29.052 76.6838 29.052C75.2798 29.052 74.0558 28.8 72.9758 28.296C71.8598 27.792 70.9238 27 70.1678 25.848C69.3758 24.732 68.7998 23.292 68.4038 21.492C67.9718 19.728 67.7918 17.568 67.7918 14.976C67.7918 12.456 67.9718 10.296 68.4038 8.49599C68.7998 6.73199 69.3758 5.29199 70.1678 4.13999C70.9238 3.02399 71.8598 2.19599 72.9758 1.65599C74.0558 1.15199 75.2798 0.899988 76.6838 0.899988ZM99.3998 10.692V16.92C98.8238 16.92 98.0678 16.992 97.2038 17.064C96.4118 17.172 95.6558 17.316 94.9718 17.496V30.06H88.3118V1.07999H94.9718V11.34C95.6558 11.124 96.4118 10.944 97.2398 10.836C98.1398 10.764 98.8598 10.692 99.3998 10.692ZM108.713 6.83999C108.353 6.83999 107.993 6.94799 107.669 7.12799C107.309 7.34399 107.021 7.70399 106.769 8.27999C106.517 8.85599 106.337 9.68399 106.193 10.728C106.013 11.808 105.941 13.248 105.941 14.976C105.941 16.776 106.013 18.18 106.193 19.224C106.337 20.304 106.517 21.132 106.769 21.708C107.021 22.284 107.309 22.68 107.669 22.824C107.993 23.04 108.353 23.112 108.713 23.112C109.037 23.112 109.361 23.04 109.721 22.824C110.045 22.68 110.333 22.284 110.621 21.708C110.837 21.132 111.053 20.304 111.233 19.224C111.377 18.18 111.485 16.776 111.485 14.976C111.485 13.248 111.377 11.808 111.233 10.728C111.053 9.68399 110.837 8.85599 110.621 8.27999C110.333 7.70399 110.045 7.34399 109.721 7.12799C109.361 6.94799 109.037 6.83999 108.713 6.83999ZM108.713 0.899988C110.081 0.899988 111.305 1.15199 112.421 1.65599C113.501 2.19599 114.401 3.02399 115.193 4.13999C115.949 5.29199 116.561 6.73199 116.993 8.49599C117.389 10.296 117.605 12.456 117.605 14.976C117.605 17.568 117.389 19.728 116.993 21.492C116.561 23.292 115.949 24.732 115.193 25.848C114.401 27 113.501 27.792 112.421 28.296C111.305 28.8 110.081 29.052 108.713 29.052C107.309 29.052 106.085 28.8 105.005 28.296C103.889 27.792 102.953 27 102.197 25.848C101.405 24.732 100.829 23.292 100.433 21.492C100.001 19.728 99.8205 17.568 99.8205 14.976C99.8205 12.456 100.001 10.296 100.433 8.49599C100.829 6.73199 101.405 5.29199 102.197 4.13999C102.953 3.02399 103.889 2.19599 105.005 1.65599C106.085 1.15199 107.309 0.899988 108.713 0.899988ZM120.341 30.06V1.07999H127.001V30.06H120.341ZM158.661 17.424H128.889V13.824H158.661V17.424ZM130.473 5.29199H150.741V4.42799H130.653V1.07999H156.861V8.63999H136.593V9.53999H157.401V12.888H130.473V5.29199ZM130.365 22.5H150.849V21.672H130.365V18.288H156.969V25.884H136.485V26.64H157.617V30.132H130.365V22.5ZM177.837 11.556C178.773 11.556 179.637 11.376 180.393 10.944C181.113 10.584 181.473 9.89999 181.509 8.89199C181.473 7.95599 181.077 7.27199 180.321 6.83999C179.529 6.44399 178.701 6.22799 177.837 6.22799C176.973 6.22799 176.145 6.44399 175.353 6.83999C174.561 7.27199 174.165 7.95599 174.165 8.89199C174.165 9.89999 174.525 10.584 175.281 10.944C176.001 11.376 176.829 11.556 177.837 11.556ZM177.837 17.136C174.813 17.136 172.437 16.488 170.709 15.192C168.909 13.932 168.045 11.88 168.045 9.07199C168.045 7.77599 168.297 6.58799 168.801 5.50799C169.305 4.49999 169.989 3.59999 170.889 2.87999C171.753 2.15999 172.761 1.61999 173.985 1.22399C175.137 0.863989 176.433 0.647989 177.837 0.647989C179.205 0.647989 180.465 0.863989 181.689 1.22399C182.841 1.61999 183.885 2.15999 184.785 2.87999C185.649 3.59999 186.333 4.49999 186.837 5.50799C187.341 6.58799 187.593 7.77599 187.629 9.07199C187.593 11.88 186.693 13.932 184.965 15.192C183.165 16.488 180.789 17.136 177.837 17.136ZM167.577 18.324H182.697C184.317 18.324 185.721 18.288 186.945 18.216C188.133 18.144 189.069 18 189.717 17.748V1.07999H196.017V30.096H189.717V23.256C189.465 23.4 189.213 23.472 188.889 23.508C188.385 23.616 187.809 23.688 187.161 23.76C186.513 23.832 185.829 23.868 185.109 23.868C184.389 23.904 183.669 23.904 182.949 23.904H181.077V30.096H174.345V23.904H167.577V18.324ZM216.475 8.27999H214.135C215.395 9.53999 216.007 11.016 216.007 12.744C216.007 13.716 215.827 14.652 215.467 15.516C215.107 16.416 214.567 17.208 213.847 17.856C213.127 18.576 212.227 19.116 211.147 19.476C210.067 19.908 208.807 20.088 207.403 20.088C205.963 20.088 204.703 19.908 203.623 19.476C202.543 19.116 201.643 18.576 200.923 17.856C200.203 17.208 199.663 16.416 199.339 15.516C198.979 14.652 198.799 13.716 198.799 12.744C198.799 11.016 199.411 9.53999 200.635 8.27999H198.331V3.09599H204.091V-1.09673e-05H210.751V3.09599H216.475V8.27999ZM207.403 9.32399C206.503 9.32399 205.855 9.64799 205.423 10.296C204.955 10.98 204.739 11.664 204.739 12.384C204.739 13.248 204.955 13.932 205.459 14.508C205.891 15.12 206.539 15.408 207.403 15.408C208.195 15.408 208.843 15.12 209.347 14.508C209.815 13.932 210.067 13.248 210.067 12.384C210.067 11.664 209.815 10.98 209.383 10.296C208.915 9.64799 208.267 9.32399 207.403 9.32399ZM230.119 6.76799V12.996C229.831 12.996 229.471 13.032 229.075 13.032C228.643 13.068 228.211 13.104 227.815 13.176C227.383 13.248 226.987 13.284 226.627 13.356C226.375 13.428 226.195 13.5 226.051 13.572V21.492H219.751V1.07999H226.051V7.59599C226.447 7.34399 226.915 7.16399 227.527 6.98399C228.175 6.83999 229.039 6.76799 230.119 6.76799ZM206.359 21.168V24.768H226.411V29.988H200.059V21.168H206.359Z" fill="#464646"/>
<path d="M32.7318 57.876H14.0738V41.764H32.7318V57.876ZM26.4618 52.556V47.084H20.3438V52.556H26.4618ZM46.7158 45.944V52.518C46.4118 52.518 46.0318 52.556 45.6138 52.556C45.1578 52.594 44.7018 52.632 44.2838 52.708C43.8278 52.784 43.4098 52.822 43.0298 52.898C42.7638 52.974 42.5738 53.05 42.4218 53.126V58.256H35.8098V41.46H42.4218V46.818C42.8398 46.552 43.3338 46.362 43.9798 46.172C44.6638 46.02 45.5758 45.944 46.7158 45.944ZM42.4218 59.7V61.144C42.3078 62.056 41.9278 63.006 41.2818 63.918C40.7118 64.678 40.1038 65.438 39.3438 66.122H39.4578C40.3698 66.426 41.2438 66.768 42.0798 67.148C42.9158 67.604 43.7898 68.098 44.7398 68.63L41.0918 72.924C39.3058 71.708 37.5958 70.796 35.9618 70.15C35.3918 69.96 34.7838 69.77 34.1758 69.58C33.4158 69.96 32.6938 70.226 31.9718 70.454C30.9838 70.758 29.8438 71.062 28.5518 71.29C27.2218 71.556 25.8538 71.784 24.4098 71.974C22.9658 72.164 21.4838 72.316 20.0398 72.43C18.5578 72.544 17.1898 72.62 15.8978 72.696L14.0738 67.87C16.1258 67.756 18.1778 67.604 20.1538 67.376C22.0918 67.224 23.8778 66.996 25.5498 66.73C27.1838 66.502 28.6278 66.236 29.8438 65.932C31.0598 65.666 31.9338 65.362 32.5038 65.02H16.1638V59.7H42.4218ZM74.862 42.866V43.93C74.786 44.994 74.482 45.982 73.95 46.932C73.418 47.768 72.81 48.566 72.088 49.25C73.038 49.516 73.988 49.858 75.014 50.2C76.04 50.618 77.142 51.112 78.358 51.72L75.09 56.014C73.038 54.722 71.024 53.848 69.01 53.354C68.25 53.202 67.49 53.05 66.654 52.936C66.35 53.05 66.084 53.164 65.78 53.278C64.944 53.62 63.842 53.924 62.55 54.228C61.182 54.57 59.776 54.874 58.294 55.102C56.774 55.406 55.254 55.596 53.734 55.748C52.176 55.938 50.77 56.014 49.554 56.014L47.692 51.492C52.214 51.15 56.052 50.656 59.206 50.01C62.322 49.402 64.564 48.642 65.894 47.806H49.858V42.866H58.978V40.13H66.008V42.866H74.862ZM58.674 62.55V61.334H46.818V56.964H78.244V61.334H66.008V62.55H76.382V72.05H48.452V62.55H58.674ZM69.732 67.87V66.73H55.102V67.87H69.732ZM106.237 41.764V45.07C106.161 46.4 105.971 47.692 105.591 48.87H106.617C106.997 48.908 107.415 48.908 107.871 48.87C108.327 48.87 108.745 48.87 109.163 48.832C109.543 48.832 109.885 48.832 110.189 48.756V41.46H116.839V62.626H110.189V54.38C109.353 54.494 108.365 54.57 107.263 54.608C106.123 54.684 105.173 54.722 104.375 54.722L101.981 54.76C101.867 54.912 101.715 55.064 101.563 55.178C100.119 56.546 98.3706 57.724 96.3186 58.636C94.2666 59.586 91.9486 60.27 89.4026 60.726L87.0086 55.672C88.3766 55.33 89.7446 54.874 91.1126 54.304C92.4426 53.772 93.6586 53.126 94.7606 52.442C95.8626 51.758 96.8126 51.036 97.5726 50.238C98.3326 49.478 98.7886 48.68 99.0166 47.844H88.1486V41.764H106.237ZM95.7106 61.904V66.274H117.257V71.974H89.0606V61.904H95.7106ZM137.781 41.764V44.69C137.705 46.628 137.287 48.376 136.451 49.934C135.615 51.53 134.437 52.936 132.917 54.152C131.397 55.368 129.573 56.394 127.445 57.154C125.279 57.99 122.885 58.522 120.301 58.826L118.439 54.114C121.631 53.392 124.291 52.48 126.495 51.416C128.623 50.39 130.029 49.136 130.637 47.654H119.693V41.764H137.781ZM152.335 45.944V52.518C152.031 52.518 151.651 52.556 151.233 52.556C150.777 52.594 150.321 52.632 149.903 52.708C149.447 52.784 149.029 52.822 148.649 52.898C148.383 52.974 148.193 53.05 148.041 53.126V58.636H141.429V41.46H148.041V46.818C148.459 46.552 148.953 46.362 149.599 46.172C150.283 46.02 151.195 45.944 152.335 45.944ZM135.121 68.098C136.337 68.098 137.325 68.06 138.123 67.984C138.883 67.908 139.491 67.794 139.947 67.642C140.403 67.49 140.707 67.3 140.897 67.072C141.049 66.844 141.125 66.578 141.125 66.274C141.125 66.008 141.049 65.742 140.897 65.514C140.707 65.286 140.403 65.096 139.947 64.944C139.491 64.792 138.883 64.678 138.123 64.564C137.325 64.488 136.337 64.45 135.121 64.45C133.867 64.45 132.841 64.488 132.081 64.564C131.283 64.678 130.675 64.792 130.257 64.944C129.801 65.096 129.497 65.286 129.345 65.514C129.193 65.742 129.117 66.008 129.117 66.274C129.117 66.578 129.193 66.844 129.345 67.072C129.497 67.3 129.801 67.49 130.257 67.642C130.675 67.794 131.283 67.908 132.081 67.984C132.841 68.06 133.867 68.098 135.121 68.098ZM135.121 73.19C132.499 73.19 130.333 73 128.623 72.696C126.875 72.354 125.469 71.898 124.481 71.29C123.417 70.682 122.695 69.96 122.315 69.086C121.859 68.25 121.669 67.338 121.669 66.274C121.669 65.324 121.859 64.412 122.315 63.576C122.733 62.74 123.455 62.018 124.519 61.372C125.545 60.764 126.913 60.27 128.661 59.89C130.371 59.548 132.537 59.358 135.121 59.358C137.667 59.358 139.795 59.548 141.543 59.89C143.253 60.27 144.621 60.764 145.685 61.372C146.711 62.018 147.471 62.74 147.927 63.576C148.345 64.412 148.573 65.324 148.573 66.274C148.573 67.338 148.345 68.25 147.927 69.086C147.471 69.96 146.749 70.682 145.723 71.29C144.697 71.898 143.329 72.354 141.619 72.696C139.871 73 137.705 73.19 135.121 73.19ZM171.589 41.764V45.07C171.513 47.046 171.057 48.908 170.297 50.58C169.461 52.328 168.359 53.848 166.915 55.178C165.471 56.546 163.723 57.724 161.671 58.636C159.619 59.586 157.301 60.27 154.755 60.726L152.361 55.672C153.729 55.33 155.097 54.874 156.465 54.304C157.795 53.772 159.011 53.126 160.113 52.442C161.215 51.758 162.165 51.036 162.925 50.238C163.685 49.478 164.141 48.68 164.369 47.844H153.501V41.764H171.589ZM186.143 47.464V54.038C185.839 54.038 185.459 54.076 185.041 54.076C184.585 54.114 184.129 54.152 183.711 54.228C183.255 54.304 182.837 54.342 182.457 54.418C182.191 54.494 182.001 54.57 181.849 54.646V62.626H175.199V41.46H181.849V48.338C182.267 48.072 182.761 47.882 183.407 47.692C184.091 47.54 185.003 47.464 186.143 47.464ZM161.063 61.904V66.274H182.229V71.974H154.413V61.904H161.063ZM185.409 54.57C188.335 52.898 190.387 51.074 191.527 49.098C192.629 47.122 193.123 44.69 192.971 41.764H199.507C199.545 44.272 199.279 46.514 198.747 48.49C200.039 49.212 201.293 50.01 202.509 50.922C203.877 52.062 205.245 53.392 206.575 54.988L201.787 59.282C200.609 57.762 199.431 56.47 198.291 55.482C197.569 54.95 196.847 54.38 196.049 53.886C194.339 56.014 192.097 57.838 189.247 59.32L185.409 54.57ZM209.045 59.396V41.46H215.657V59.396H209.045ZM209.007 72.088V66.996H188.487V60.916H215.657V72.088H209.007Z" fill="#43270B"/>
</svg>
