<svg width="333" height="103" viewBox="0 0 333 103" fill="none" xmlns="http://www.w3.org/2000/svg">
<path d="M235.915 77.5151C239.919 75.2266 242.727 72.7302 244.287 70.0256C245.795 67.3211 246.471 63.9925 246.263 59.9877H255.207C255.259 63.4203 254.895 66.4889 254.167 69.1935C255.935 70.1817 257.651 71.2739 259.315 72.5221C261.187 74.0824 263.059 75.9028 264.879 78.0872L258.327 83.9643C256.715 81.8839 255.103 80.1156 253.543 78.7633C252.555 78.0352 251.567 77.255 250.475 76.5789C248.135 79.4915 245.067 81.9879 241.167 84.0163L235.915 77.5151ZM268.259 84.1204V59.5716H277.307V84.1204H268.259ZM268.207 101.492V94.5224H240.127V86.2008H277.307V101.492H268.207Z" fill="white"/>
<path d="M217.003 59.9877V64.5126C216.899 67.2171 216.275 69.7656 215.235 72.054C214.091 74.4465 212.583 76.5269 210.607 78.3472C208.631 80.2196 206.239 81.8319 203.431 83.0802C200.623 84.3804 197.451 85.3166 193.967 85.9407L190.691 79.0234C192.563 78.5553 194.435 77.9312 196.307 77.151C198.127 76.4229 199.791 75.5387 201.299 74.6025C202.807 73.6663 204.107 72.6781 205.147 71.5859C206.187 70.5457 206.811 69.4535 207.123 68.3093H192.251V59.9877H217.003ZM236.919 67.7892V76.7869C236.503 76.7869 235.983 76.8389 235.411 76.8389C234.787 76.891 234.163 76.943 233.591 77.047C232.967 77.151 232.395 77.203 231.875 77.307C231.511 77.4111 231.251 77.5151 231.043 77.6191V88.5412H221.943V59.5716H231.043V68.9854C231.615 68.6214 232.291 68.3613 233.175 68.1013C234.111 67.8932 235.359 67.7892 236.919 67.7892ZM202.599 87.553V93.5342H231.563V101.336H193.499V87.553H202.599Z" fill="white"/>
<path d="M170.74 59.9877V63.9925C170.636 66.645 170.064 69.0374 168.92 71.1698C167.776 73.3543 166.164 75.2786 164.084 76.943C162.004 78.6073 159.508 80.0116 156.596 81.0518C153.632 82.196 150.356 82.9241 146.82 83.3402L144.272 76.891C148.64 75.9028 152.28 74.6545 155.296 73.1982C158.208 71.794 160.132 70.0776 160.964 68.0492H145.988V59.9877H170.74ZM190.656 65.7088V74.7065C190.24 74.7065 189.72 74.7585 189.148 74.7585C188.524 74.8106 187.9 74.8626 187.328 74.9666C186.704 75.0706 186.132 75.1226 185.612 75.2266C185.248 75.3307 184.988 75.4347 184.78 75.5387V83.0802H175.732V59.5716H184.78V66.905C185.352 66.5409 186.028 66.2809 186.912 66.0208C187.848 65.8128 189.096 65.7088 190.656 65.7088ZM167.1 96.0307C168.764 96.0307 170.116 95.9787 171.208 95.8746C172.248 95.7706 173.08 95.6146 173.704 95.4066C174.328 95.1985 174.744 94.9385 175.004 94.6264C175.212 94.3143 175.316 93.9503 175.316 93.5342C175.316 93.1701 175.212 92.806 175.004 92.494C174.744 92.1819 174.328 91.9219 173.704 91.7138C173.08 91.5058 172.248 91.3498 171.208 91.1937C170.116 91.0897 168.764 91.0377 167.1 91.0377C165.384 91.0377 163.98 91.0897 162.94 91.1937C161.848 91.3498 161.016 91.5058 160.444 91.7138C159.82 91.9219 159.404 92.1819 159.196 92.494C158.988 92.806 158.884 93.1701 158.884 93.5342C158.884 93.9503 158.988 94.3143 159.196 94.6264C159.404 94.9385 159.82 95.1985 160.444 95.4066C161.016 95.6146 161.848 95.7706 162.94 95.8746C163.98 95.9787 165.384 96.0307 167.1 96.0307ZM167.1 103C163.512 103 160.548 102.74 158.208 102.324C155.816 101.856 153.892 101.232 152.54 100.4C151.084 99.5674 150.096 98.5792 149.576 97.3829C148.952 96.2387 148.692 94.9905 148.692 93.5342C148.692 92.2339 148.952 90.9857 149.576 89.8415C150.148 88.6972 151.136 87.7091 152.592 86.8249C153.996 85.9927 155.868 85.3166 158.26 84.7965C160.6 84.3284 163.564 84.0684 167.1 84.0684C170.584 84.0684 173.496 84.3284 175.888 84.7965C178.228 85.3166 180.1 85.9927 181.556 86.8249C182.96 87.7091 184 88.6972 184.624 89.8415C185.196 90.9857 185.508 92.2339 185.508 93.5342C185.508 94.9905 185.196 96.2387 184.624 97.3829C184 98.5792 183.012 99.5674 181.608 100.4C180.204 101.232 178.332 101.856 175.992 102.324C173.6 102.74 170.636 103 167.1 103Z" fill="white"/>
<path d="M127.574 59.9877V64.5126C127.47 66.3329 127.21 68.1012 126.69 69.7136H128.094C128.614 69.7656 129.186 69.7656 129.81 69.7136C130.434 69.7136 131.006 69.7136 131.578 69.6616C132.098 69.6616 132.566 69.6616 132.982 69.5575V59.5716H142.082V88.5412H132.982V77.255C131.838 77.4111 130.486 77.5151 128.978 77.5671C127.418 77.6711 126.118 77.7231 125.026 77.7231L121.75 77.7751C121.594 77.9832 121.386 78.1912 121.178 78.3472C119.202 80.2196 116.81 81.8319 114.002 83.0802C111.194 84.3804 108.022 85.3166 104.538 85.9407L101.262 79.0234C103.134 78.5553 105.006 77.9312 106.878 77.151C108.698 76.4229 110.362 75.5387 111.87 74.6025C113.378 73.6663 114.678 72.6781 115.718 71.5859C116.758 70.5457 117.382 69.4535 117.694 68.3093H102.822V59.9877H127.574ZM113.17 87.553V93.5342H142.654V101.336H104.07V87.553H113.17Z" fill="white"/>
<path d="M84.6402 61.4959V62.9522C84.5362 64.4085 84.1202 65.7608 83.3922 67.061C82.6642 68.2052 81.8322 69.2975 80.8442 70.2336C82.1442 70.5977 83.4442 71.0658 84.8482 71.5339C86.2522 72.106 87.7602 72.7821 89.4242 73.6143L84.9522 79.4914C82.1442 77.7231 79.3882 76.5269 76.6322 75.8507C75.5922 75.6427 74.5522 75.4347 73.4082 75.2786C72.9922 75.4347 72.6282 75.5907 72.2122 75.7467C71.0682 76.2148 69.5602 76.6309 67.7922 77.047C65.9202 77.5151 63.9962 77.9311 61.9682 78.2432C59.8882 78.6593 57.8082 78.9193 55.7282 79.1274C53.5962 79.3874 51.6722 79.4914 50.0082 79.4914L47.4602 73.3022C53.6482 72.8342 58.9002 72.158 63.2162 71.2739C67.4802 70.4417 70.5482 69.4015 72.3682 68.2573H50.4242V61.4959H62.9042V57.7512H72.5242V61.4959H84.6402ZM62.4882 88.4372V86.7729H46.2642V80.7917H89.2682V86.7729H72.5242V88.4372H86.7202V101.44H48.5002V88.4372H62.4882ZM77.6202 95.7186V94.1583H57.6002V95.7186H77.6202Z" fill="white"/>
<path d="M26.9881 82.04H1.45605V59.9877H26.9881V82.04ZM18.4081 74.7585V67.2691H10.0361V74.7585H18.4081ZM46.1241 65.7088V74.7065C45.7081 74.7065 45.1881 74.7585 44.6161 74.7585C43.9921 74.8106 43.3681 74.8626 42.7961 74.9666C42.1721 75.0706 41.6001 75.1226 41.0801 75.2266C40.7161 75.3307 40.4561 75.4347 40.2481 75.5387V82.5601H31.2001V59.5716H40.2481V66.905C40.8201 66.5409 41.4961 66.2809 42.3801 66.0208C43.3161 65.8128 44.5641 65.7088 46.1241 65.7088ZM40.2481 84.5364V86.5128C40.0921 87.7611 39.5721 89.0613 38.6881 90.3096C37.9081 91.3498 37.0761 92.39 36.0361 93.3261H36.1921C37.4401 93.7422 38.6361 94.2103 39.7801 94.7304C40.9241 95.3545 42.1201 96.0307 43.4201 96.7588L38.4281 102.636C35.9841 100.972 33.6441 99.7234 31.4081 98.8392C30.6281 98.5792 29.7961 98.3191 28.9641 98.0591C27.9241 98.5792 26.9361 98.9432 25.9481 99.2553C24.5961 99.6714 23.0361 100.087 21.2681 100.4C19.4481 100.764 17.5761 101.076 15.6001 101.336C13.6241 101.596 11.5961 101.804 9.62005 101.96C7.59205 102.116 5.72006 102.22 3.95205 102.324L1.45605 95.7186C4.26405 95.5626 7.07205 95.3545 9.77605 95.0425C12.4281 94.8344 14.8721 94.5224 17.1601 94.1583C19.3961 93.8463 21.3721 93.4822 23.0361 93.0661C24.7001 92.702 25.8961 92.286 26.6761 91.8179H4.31605V84.5364H40.2481Z" fill="white"/>
<path d="M312.687 11.9623H309.307C311.127 13.7827 312.011 15.9151 312.011 18.4116C312.011 19.8158 311.751 21.1681 311.231 22.4164C310.711 23.7166 309.931 24.8608 308.891 25.797C307.851 26.8372 306.551 27.6174 304.991 28.1375C303.431 28.7616 301.611 29.0216 299.583 29.0216C297.503 29.0216 295.683 28.7616 294.123 28.1375C292.563 27.6174 291.263 26.8372 290.223 25.797C289.183 24.8608 288.403 23.7166 287.935 22.4164C287.415 21.1681 287.155 19.8158 287.155 18.4116C287.155 15.9151 288.039 13.7827 289.807 11.9623H286.479V4.47287H294.799V0H304.419V4.47287H312.687V11.9623ZM299.583 13.4706C298.283 13.4706 297.347 13.9387 296.723 14.8749C296.047 15.8631 295.735 16.8513 295.735 17.8915C295.735 19.1397 296.047 20.1279 296.775 20.9601C297.399 21.8442 298.335 22.2603 299.583 22.2603C300.727 22.2603 301.663 21.8442 302.391 20.9601C303.067 20.1279 303.431 19.1397 303.431 17.8915C303.431 16.8513 303.067 15.8631 302.443 14.8749C301.767 13.9387 300.831 13.4706 299.583 13.4706ZM332.395 9.7779V18.7756C331.979 18.7756 331.459 18.8277 330.887 18.8277C330.263 18.8797 329.639 18.9317 329.067 19.0357C328.443 19.1397 327.871 19.1917 327.351 19.2957C326.987 19.3998 326.727 19.5038 326.519 19.6078V31.05H317.419V1.5603H326.519V10.9741C327.091 10.6101 327.767 10.35 328.651 10.09C329.587 9.88192 330.835 9.7779 332.395 9.7779ZM298.075 30.5819V35.7829H327.039V43.3244H288.975V30.5819H298.075Z" fill="#464646"/>
<path d="M256.876 16.6952C258.228 16.6952 259.476 16.4352 260.568 15.811C261.608 15.2909 262.128 14.3028 262.18 12.8465C262.128 11.4942 261.556 10.506 260.464 9.88189C259.32 9.30978 258.124 8.99772 256.876 8.99772C255.628 8.99772 254.432 9.30978 253.288 9.88189C252.144 10.506 251.572 11.4942 251.572 12.8465C251.572 14.3028 252.092 15.2909 253.184 15.811C254.224 16.4352 255.42 16.6952 256.876 16.6952ZM256.876 24.7568C252.508 24.7568 249.076 23.8206 246.58 21.9482C243.98 20.1279 242.732 17.1633 242.732 13.1065C242.732 11.2342 243.096 9.51782 243.824 7.95752C244.552 6.50124 245.54 5.20099 246.84 4.16078C248.088 3.12058 249.544 2.34043 251.312 1.76832C252.976 1.24822 254.848 0.936157 256.876 0.936157C258.852 0.936157 260.672 1.24822 262.44 1.76832C264.104 2.34043 265.612 3.12058 266.912 4.16078C268.16 5.20099 269.148 6.50124 269.876 7.95752C270.604 9.51782 270.968 11.2342 271.02 13.1065C270.968 17.1633 269.668 20.1279 267.172 21.9482C264.572 23.8206 261.14 24.7568 256.876 24.7568ZM242.056 26.4731H263.896C266.236 26.4731 268.264 26.4211 270.032 26.3171C271.748 26.2131 273.1 26.005 274.036 25.641V1.56028H283.136V43.4804H274.036V33.5985C273.672 33.8065 273.308 33.9106 272.84 33.9626C272.112 34.1186 271.28 34.2226 270.344 34.3266C269.408 34.4307 268.42 34.4827 267.38 34.4827C266.34 34.5347 265.3 34.5347 264.26 34.5347H261.556V43.4804H251.832V34.5347H242.056V26.4731Z" fill="#464646"/>
<path d="M229.178 25.1729H186.174V19.9719H229.178V25.1729ZM188.462 7.64549H217.738V6.39724H188.722V1.5603H226.578V12.4824H197.302V13.7827H227.358V18.6196H188.462V7.64549ZM188.306 32.5063H217.894V31.3101H188.306V26.4211H226.734V37.3953H197.146V38.4875H227.67V43.5325H188.306V32.5063Z" fill="#464646"/>
<path d="M157.03 9.8819C156.51 9.8819 155.99 10.0379 155.522 10.298C155.002 10.61 154.586 11.1301 154.222 11.9623C153.858 12.7945 153.598 13.9907 153.39 15.499C153.13 17.0593 153.026 19.1397 153.026 21.6362C153.026 24.2367 153.13 26.2651 153.39 27.7734C153.598 29.3337 153.858 30.5299 154.222 31.3621C154.586 32.1942 155.002 32.7663 155.522 32.9744C155.99 33.2864 156.51 33.3905 157.03 33.3905C157.498 33.3905 157.966 33.2864 158.486 32.9744C158.954 32.7663 159.37 32.1942 159.786 31.3621C160.098 30.5299 160.41 29.3337 160.67 27.7734C160.878 26.2651 161.034 24.2367 161.034 21.6362C161.034 19.1397 160.878 17.0593 160.67 15.499C160.41 13.9907 160.098 12.7945 159.786 11.9623C159.37 11.1301 158.954 10.61 158.486 10.298C157.966 10.0379 157.498 9.8819 157.03 9.8819ZM157.03 1.30023C159.006 1.30023 160.774 1.6643 162.386 2.39245C163.946 3.1726 165.246 4.36883 166.39 5.98114C167.482 7.64547 168.366 9.72587 168.99 12.2744C169.562 14.8749 169.874 17.9955 169.874 21.6362C169.874 25.3809 169.562 28.5015 168.99 31.05C168.366 33.6505 167.482 35.7309 166.39 37.3432C165.246 39.0076 163.946 40.1518 162.386 40.8799C160.774 41.6081 159.006 41.9721 157.03 41.9721C155.002 41.9721 153.234 41.6081 151.674 40.8799C150.062 40.1518 148.71 39.0076 147.618 37.3432C146.474 35.7309 145.642 33.6505 145.07 31.05C144.446 28.5015 144.186 25.3809 144.186 21.6362C144.186 17.9955 144.446 14.8749 145.07 12.2744C145.642 9.72587 146.474 7.64547 147.618 5.98114C148.71 4.36883 150.062 3.1726 151.674 2.39245C153.234 1.6643 155.002 1.30023 157.03 1.30023ZM173.826 43.4284V1.56028H183.446V43.4284H173.826Z" fill="#464646"/>
<path d="M110.766 9.8819C110.246 9.8819 109.726 10.0379 109.258 10.298C108.738 10.61 108.322 11.1301 107.958 11.9623C107.594 12.7945 107.334 13.9907 107.126 15.499C106.866 17.0593 106.762 19.1397 106.762 21.6362C106.762 24.2367 106.866 26.2651 107.126 27.7734C107.334 29.3337 107.594 30.5299 107.958 31.3621C108.322 32.1942 108.738 32.7663 109.258 32.9744C109.726 33.2864 110.246 33.3905 110.766 33.3905C111.234 33.3905 111.702 33.2864 112.222 32.9744C112.69 32.7663 113.106 32.1942 113.522 31.3621C113.834 30.5299 114.146 29.3337 114.406 27.7734C114.614 26.2651 114.77 24.2367 114.77 21.6362C114.77 19.1397 114.614 17.0593 114.406 15.499C114.146 13.9907 113.834 12.7945 113.522 11.9623C113.106 11.1301 112.69 10.61 112.222 10.298C111.702 10.0379 111.234 9.8819 110.766 9.8819ZM110.766 1.30023C112.742 1.30023 114.51 1.6643 116.122 2.39245C117.682 3.1726 118.982 4.36883 120.126 5.98114C121.218 7.64547 122.102 9.72587 122.726 12.2744C123.298 14.8749 123.61 17.9955 123.61 21.6362C123.61 25.3809 123.298 28.5015 122.726 31.05C122.102 33.6505 121.218 35.7309 120.126 37.3432C118.982 39.0076 117.682 40.1518 116.122 40.8799C114.51 41.6081 112.742 41.9721 110.766 41.9721C108.738 41.9721 106.97 41.6081 105.41 40.8799C103.798 40.1518 102.446 39.0076 101.354 37.3432C100.21 35.7309 99.3784 33.6505 98.8064 31.05C98.1824 28.5015 97.9224 25.3809 97.9224 21.6362C97.9224 17.9955 98.1824 14.8749 98.8064 12.2744C99.3784 9.72587 100.21 7.64547 101.354 5.98114C102.446 4.36883 103.798 3.1726 105.41 2.39245C106.97 1.6643 108.738 1.30023 110.766 1.30023ZM143.578 15.447V24.4447C142.746 24.4447 141.654 24.5487 140.406 24.6528C139.262 24.8088 138.17 25.0168 137.182 25.2769V43.4284H127.562V1.56028H137.182V16.3832C138.17 16.0711 139.262 15.8111 140.458 15.655C141.758 15.551 142.798 15.447 143.578 15.447Z" fill="#464646"/>
<path d="M45.6377 17.3714H60.2497V10.038H45.8977V1.97638H69.0897V25.1729H54.4777V33.1304H70.5457V41.192H45.6377V17.3714ZM74.2377 43.4284V1.5603H83.8577V43.4284H74.2377Z" fill="#464646"/>
<path d="M21.632 23.8727C18.2 23.8727 15.288 23.5606 12.948 22.9365C10.556 22.3644 8.58 21.5322 7.124 20.44C5.668 19.3998 4.576 18.2036 3.952 16.7473C3.276 15.395 2.964 13.8867 2.964 12.3264C2.964 10.9221 3.276 9.46586 3.952 8.00957C4.576 6.6053 5.668 5.30505 7.124 4.16083C8.58 3.0166 10.556 2.08043 12.948 1.35228C15.288 0.62414 18.2 0.260071 21.632 0.260071C25.012 0.260071 27.924 0.62414 30.316 1.35228C32.656 2.08043 34.58 3.0166 36.088 4.16083C37.544 5.30505 38.584 6.6053 39.312 8.00957C39.936 9.46586 40.3 10.9221 40.3 12.3264C40.3 13.8867 39.936 15.395 39.312 16.7473C38.584 18.2036 37.544 19.3998 36.088 20.44C34.58 21.5322 32.656 22.3644 30.316 22.9365C27.924 23.5606 25.012 23.8727 21.632 23.8727ZM21.632 16.1232C24.96 16.1232 27.3 15.7591 28.652 14.9269C29.9 14.1468 30.576 13.2106 30.576 12.0664C30.576 10.9742 29.9 10.038 28.652 9.20581C27.3 8.42566 24.96 8.00957 21.632 8.00957C18.2 8.00957 15.86 8.42566 14.612 9.25782C13.312 10.09 12.688 11.0262 12.688 12.0664C12.688 13.2106 13.312 14.1468 14.612 14.9269C15.86 15.7591 18.2 16.1232 21.632 16.1232ZM16.224 43.4805V34.9508H0V26.8892H43.004V34.9508H26.26V43.4805H16.224Z" fill="#464646"/>
</svg>