<svg width="245" height="48" viewBox="0 0 245 48" fill="none" xmlns="http://www.w3.org/2000/svg">
<path d="M124.347 45.1017C122.141 45.0741 120.572 44.6742 119.64 43.9019C118.739 43.1571 118.288 41.9573 118.288 40.3024C118.288 38.8957 118.739 37.82 119.64 37.0752C120.572 36.3305 121.923 35.9719 123.695 35.9995L152.498 36.3305C154.331 36.3581 155.652 36.7442 156.459 37.489C157.298 38.2061 157.718 39.2818 157.718 40.7161C157.718 44.026 156.009 45.6533 152.591 45.5982L124.347 45.1017Z" fill="#C97A3D"/>
<path d="M94.2044 21.6896L94.251 18.7905H90.5649L90.6582 21.6896H94.2044ZM115.015 10.884C115.357 12.2604 115.637 13.6513 115.855 15.0569C116.104 14.9691 116.446 14.808 116.881 14.5737C117.441 14.2516 117.923 14.0906 118.328 14.0906C119.074 14.0906 119.665 14.4859 120.101 15.2765C120.536 16.0379 120.754 17.2239 120.754 18.8345C120.754 20.4743 120.459 21.7042 119.867 22.5242C119.276 23.3441 118.452 23.7541 117.394 23.7541C117.177 23.7541 116.881 23.7248 116.508 23.6662V25.1157C116.508 27.107 115.901 28.6297 114.688 29.6839C113.506 30.7089 111.749 31.2213 109.416 31.2213C107.487 31.2213 106.118 30.9724 105.309 30.4746C104.501 29.9475 104.096 29.2008 104.096 28.2344C104.096 27.678 104.174 27.1656 104.33 26.697C104.516 26.2285 104.827 25.7014 105.263 25.1157C105.761 21.8653 106.009 18.6441 106.009 15.4522C106.009 13.7245 105.947 12.1725 105.823 10.7962C105.729 9.65414 106.025 8.77564 106.709 8.16069C107.425 7.51645 108.529 7.19434 110.022 7.19434C111.391 7.19434 112.495 7.53109 113.335 8.20461C114.175 8.84885 114.735 9.74199 115.015 10.884ZM103.023 45.1895C103.023 44.1939 103.49 43.3886 104.423 42.7736C104.796 42.1001 104.983 41.2509 104.983 40.226L88.3252 39.9624C86.4899 39.9331 85.1212 39.5524 84.2191 38.8204C83.3481 38.0883 82.9126 36.9609 82.9126 35.4381C82.9126 32.8319 84.5924 31.5581 87.9519 31.6166L111.142 32.0559C112.791 32.0852 114.051 32.5244 114.921 33.3737C115.824 34.1936 116.275 35.3649 116.275 36.8877C116.275 39.5524 116.088 41.6901 115.715 43.3007C115.373 44.9113 114.61 46.0973 113.428 46.8586C112.277 47.62 110.598 48.0007 108.389 48.0007C106.585 48.0007 105.232 47.7518 104.33 47.254C103.459 46.7561 103.023 46.068 103.023 45.1895ZM81.3262 12.8167C81.2951 11.2354 81.6372 10.0787 82.3527 9.34666C83.0992 8.61458 84.2658 8.24854 85.8522 8.24854C87.1276 8.24854 88.1074 8.4828 88.7918 8.95134C89.4761 9.41987 89.9427 10.152 90.1916 11.1476H94.4843C94.671 10.0348 95.122 9.21489 95.8375 8.68779C96.5529 8.16069 97.5795 7.89714 98.9171 7.89714C100.503 7.89714 101.654 8.26318 102.37 8.99526C103.116 9.72735 103.474 10.884 103.443 12.4653L103.256 24.4569C103.225 26.1846 102.728 27.5023 101.763 28.4101C100.83 29.2886 99.4614 29.7132 97.6572 29.6839L87.2053 29.5082C83.5658 29.479 81.6994 27.722 81.6061 24.2372L81.3262 12.8167Z" fill="#C97A3D"/>
<path d="M65.03 11.2211C64.9055 11.937 64.7965 12.4739 64.703 12.8318C69.0322 13.7565 72.1779 14.8303 74.14 16.0532C76.1021 17.2463 77.0832 18.6631 77.0832 20.3037C77.0832 21.5564 76.6005 22.5408 75.635 23.2566C74.6695 23.9725 73.2991 24.3304 71.5238 24.3304C68.9388 24.3304 66.9922 23.704 65.6841 22.4513C64.3449 21.1687 62.6319 20.1694 60.5451 19.4536C58.8944 20.945 56.9479 22.1083 54.7054 22.9434C52.4941 23.7488 50.2049 24.1515 47.8379 24.1515C45.9069 24.1515 44.4587 23.8383 43.4932 23.2119C42.5277 22.5557 42.0449 21.6608 42.0449 20.5274C42.0449 19.5431 42.3719 18.7377 43.026 18.1113C43.7112 17.4849 44.6611 17.0524 45.8758 16.8138C47.9936 16.0979 49.6755 15.2777 50.9213 14.353C52.1982 13.4284 53.1637 12.3247 53.8178 11.0421C55.0947 8.47693 57.1815 7.19434 60.078 7.19434C61.7598 7.19434 63.0368 7.56718 63.9088 8.31288C64.812 9.05858 65.1858 10.028 65.03 11.2211ZM44.3808 32.6524C42.6055 32.6226 41.3286 32.2945 40.5499 31.6681C39.8025 31.0119 39.4287 30.0126 39.4287 28.6704C39.4287 27.4474 39.7869 26.5228 40.5032 25.8964C41.2196 25.27 42.3564 24.9568 43.9136 24.9568L74.6072 25.0463C76.1333 25.0463 77.2234 25.3446 77.8774 25.9411C78.5315 26.5377 78.8585 27.4922 78.8585 28.8046C78.8585 30.2065 78.4848 31.2505 77.7373 31.9365C76.9898 32.6226 75.7907 32.9507 74.14 32.9208L66.1513 32.8314V35.6054C66.1513 36.5897 65.7308 37.3354 64.8899 37.8424C64.0801 38.3197 62.7876 38.5583 61.0123 38.5583C59.237 38.5583 57.9289 38.3197 57.088 37.8424C56.2783 37.3354 55.8734 36.5897 55.8734 35.6054V32.7419L44.3808 32.6524ZM48.0715 33.7709C49.8779 33.7709 51.2327 34.1736 52.1359 34.979C53.0703 35.7545 53.5375 36.8134 53.5375 38.1556V40.0348H72.5049C74.0933 40.0348 75.2301 40.3181 75.9153 40.8849C76.6316 41.4516 76.9898 42.3614 76.9898 43.6141C76.9898 45.195 76.5693 46.3285 75.7284 47.0145C74.8875 47.7005 73.5638 48.0286 71.7574 47.9988L48.9591 47.4619C46.8724 47.4321 45.3463 46.9399 44.3808 45.9854C43.4464 45.0608 42.917 43.5843 42.7924 41.556L42.6055 38.1556C42.5432 36.8134 42.9793 35.7545 43.9136 34.979C44.848 34.1736 46.2339 33.7709 48.0715 33.7709Z" fill="#C97A3D"/>
<path d="M5.82592 30.7728C5.82592 30.2286 5.91913 29.7704 6.10556 29.398C6.32306 28.997 6.69592 28.5817 7.22414 28.1521C7.78342 26.5482 8.15628 25.159 8.34271 23.9847C8.52914 22.8104 8.62236 21.1921 8.62236 19.1299H6.43181C4.6918 19.1299 3.37126 18.7146 2.47019 17.884C1.56911 17.0247 1.11858 15.7645 1.11858 14.1033C1.11858 12.6425 1.52251 11.5685 2.33037 10.881C3.1693 10.1936 4.38109 9.8213 5.96574 9.76401L13.3763 9.59216C15.2406 9.56352 16.6388 9.99315 17.571 10.881C18.5031 11.7403 18.9692 13.0292 18.9692 14.7477C18.9692 19.7027 18.674 23.5551 18.0836 26.3047C18.6429 26.2474 19.1245 26.2188 19.5285 26.2188C21.2063 26.2188 22.5113 26.5911 23.4435 27.3358C24.4067 28.0805 24.8883 29.1116 24.8883 30.4291V35.8424L34.2098 35.9713C36.043 36 37.3635 36.401 38.1714 37.1743C39.0103 37.919 39.4298 39.036 39.4298 40.5254C39.4298 43.9624 37.7209 45.6523 34.303 45.595L6.05895 45.0795C3.85287 45.0508 2.28376 44.6355 1.35161 43.8335C0.450537 43.0602 0 41.8143 0 40.0958C0 38.635 0.450537 37.518 1.35161 36.7447C2.28376 35.9713 3.63537 35.599 5.40645 35.6276L14.1686 35.7136V33.0069C13.2986 33.3506 12.18 33.5225 10.8129 33.5225C7.48824 33.5225 5.82592 32.6059 5.82592 30.7728ZM25.401 30.7728C25.401 30.2286 25.4942 29.7704 25.6806 29.398C25.8981 28.997 26.271 28.5817 26.7992 28.1521C27.1721 26.5482 27.4206 25.159 27.5449 23.9847C27.6692 22.8104 27.7314 21.1921 27.7314 19.1299H24.7485C23.0085 19.1299 21.6879 18.7146 20.7869 17.884C19.8858 17.0247 19.4353 15.7645 19.4353 14.1033C19.4353 11.2677 21.051 9.8213 24.2824 9.76401L32.4853 9.59216C34.3496 9.56352 35.7478 9.99315 36.68 10.881C37.6121 11.7403 38.0782 13.0292 38.0782 14.7477C38.0782 18.2993 37.985 21.1921 37.7985 23.4262C37.6121 25.6603 37.3014 27.6079 36.8664 29.2691C36.4625 30.7585 35.7478 31.8469 34.7225 32.5343C33.6971 33.1931 32.2523 33.5225 30.388 33.5225C27.0633 33.5225 25.401 32.6059 25.401 30.7728Z" fill="#C97A3D"/>
<path d="M144.494 32.7132C141.089 32.1089 137.76 32.0296 134.438 32.6817C130.949 33.3665 127.441 32.0203 125.948 29.5087C124.366 26.8455 125.948 21.4558 131.936 20.4C134.033 19.1541 133.055 14.6984 139.99 14.6982C146.573 15.4787 146.18 20.3604 148.043 21.4558C152.85 22.3003 154.19 26.6507 152.85 29.2217C151.498 31.815 148.056 33.3455 144.494 32.7132Z" fill="#C97A3D"/>
<path d="M147.382 10.7916C146.013 11.6544 144.301 11.6644 143.182 10.8707C140.192 8.7548 140.987 3.28266 144.596 1.20007C145.931 0.429853 147.568 0.475314 148.645 1.25112C151.519 3.32434 150.849 8.60579 147.384 10.7913L147.382 10.7916Z" fill="#C97A3D"/>
<path d="M125.326 18.652C124.505 18.4007 123.832 17.994 123.286 17.4915C121.694 16.0295 120.892 14.1523 121.046 12.2944C121.105 11.5782 121.383 10.9186 121.896 10.3702C122.633 9.58155 123.917 9.38551 125.102 9.82841C128.4 11.0612 130.252 15.5471 128.436 17.8538C127.796 18.6664 126.594 19.0411 125.327 18.653L125.326 18.652Z" fill="#C97A3D"/>
<path d="M132.29 10.664C128.478 8.87084 127.242 3.3381 130.139 1.0876C131.154 0.298338 132.69 0.180678 134.027 0.799193C137.753 2.5211 139.116 7.8583 136.373 10.2782C135.376 11.157 133.745 11.3488 132.29 10.664Z" fill="#C97A3D"/>
<path d="M155.455 18.5687C154.07 18.7594 151.553 17.6467 151.041 16.765C150.671 16.126 150.597 15.4341 150.753 14.7291C151.131 13.0284 152.395 11.511 154.286 10.432C155.047 9.99854 156.138 10.1612 156.846 9.5874C156.821 9.56069 159.08 9.23371 159.552 10.1584C160.862 12.7259 159.228 18.0494 155.455 18.5687Z" fill="#C97A3D"/>
<path d="M151.275 30.2648C149.089 28.5092 150.098 25.0146 148.7 24.2648C147.886 23.8278 146.842 24.4964 146.347 25.1863C145.475 26.4023 143.772 27.195 142.338 26.7764C141.173 26.436 140.175 25.6785 139.748 24.8337C139.076 23.5089 139.265 22.2669 139.729 21.074C140.418 19.303 137.772 16.6596 136.027 16.0248C137.375 14.4194 140.942 14.5988 142.937 14.8947C144.636 15.1462 146.302 16.3192 147.132 18.0518C147.629 19.0883 148.125 20.3135 149.275 20.798C150.754 21.4221 152.085 22.2424 152.766 23.7619C153.786 26.0373 153.542 29.3433 151.275 30.2648Z" fill="#2F2F2F"/>
<path d="M123.708 13.0452C127.08 14.4383 128.953 17.4994 127.754 18.4306C127.195 18.8642 125.929 18.9938 125.281 18.6923C122.931 17.599 121.315 15.5092 121.085 13.2681C121.693 12.6535 122.888 12.7048 123.71 13.0446L123.708 13.0452Z" fill="#2F2F2F"/>
<path d="M135.827 21.9644C136.367 23.8945 135.754 25.8818 134.666 26.2733C134.011 26.5082 133.191 26.305 132.684 25.8691C131.169 24.5675 130.376 22.8455 130.824 20.9239C132.682 20.5732 132.641 19.2915 133.302 18.5889C134.709 19.0227 135.445 20.5888 135.829 21.9665L135.827 21.9644Z" fill="#2F2F2F"/>
<path d="M159.332 10.0013C156.193 11.9433 156.574 12.176 153.731 14.2202C153.137 14.6457 151.285 14.7955 151.333 13.4976C151.229 11.4986 157.17 7.30552 159.332 10.0013Z" fill="#2F2F2F"/>
<path d="M215.888 22.1692C214.128 22.1692 212.822 21.7292 211.972 20.8492C211.121 19.9692 210.666 18.6492 210.608 16.8892L210.52 12.6652V12.5332C209.728 12.1812 209.112 11.6972 208.672 11.0812C208.232 10.4652 208.012 9.7905 208.012 9.05717C208.012 8.00117 208.364 7.1505 209.068 6.50516C209.801 5.8305 210.71 5.49316 211.796 5.49316C212.382 5.49316 212.94 5.59583 213.468 5.80117C214.318 6.12383 215.022 6.65183 215.58 7.38516H215.8L238.24 7.12116C239.618 7.09183 240.572 7.34116 241.1 7.86916C241.657 8.36783 241.936 9.20383 241.936 10.3772C241.936 11.5798 241.628 12.4452 241.012 12.9732C240.396 13.4718 239.325 13.7212 237.8 13.7212H220.552V15.7452H238.592C240 15.7452 240.968 15.9798 241.496 16.4492C242.024 16.8892 242.288 17.6812 242.288 18.8252C242.288 20.0278 241.965 20.9078 241.32 21.4652C240.674 21.9932 239.618 22.2572 238.152 22.2572L231.112 22.2132V23.8412L240.484 23.8852C241.95 23.8852 242.977 24.1492 243.564 24.6772C244.18 25.1758 244.488 26.0558 244.488 27.3172C244.488 28.6665 244.136 29.6345 243.432 30.2212C242.757 30.7785 241.628 31.0425 240.044 31.0132L212.016 30.7492C210.314 30.7198 209.112 30.4412 208.408 29.9132C207.704 29.3558 207.352 28.4318 207.352 27.1412C207.352 25.9678 207.674 25.1172 208.32 24.5892C208.994 24.0612 210.08 23.7972 211.576 23.7972L221.432 23.8412V22.1692H215.888ZM229.616 44.4772C229.616 43.5678 230.026 42.7758 230.848 42.1012C231.082 41.6025 231.244 41.1772 231.332 40.8252C231.42 40.4732 231.464 40.0918 231.464 39.6812H214.832C213.248 39.6812 212.074 39.3732 211.312 38.7572C210.578 38.1118 210.212 37.0852 210.212 35.6772C210.212 34.4745 210.534 33.5945 211.18 33.0372C211.854 32.4798 212.954 32.2012 214.48 32.2012L237.272 32.2892C238.826 32.2892 240.014 32.7145 240.836 33.5652C241.686 34.3865 242.112 35.5745 242.112 37.1292C242.112 39.5052 241.877 41.5292 241.408 43.2012C240.997 44.6092 240.308 45.5918 239.34 46.1492C238.372 46.7065 236.817 46.9852 234.676 46.9852C232.974 46.9852 231.698 46.7652 230.848 46.3252C230.026 45.8852 229.616 45.2692 229.616 44.4772Z" fill="#C97A3D"/>
<path d="M191.803 23.7968C191.803 23.2395 191.891 22.7702 192.067 22.3888C192.273 22.0075 192.625 21.6115 193.123 21.2008C193.475 20.3795 193.71 19.6462 193.827 19.0008C193.945 18.3555 194.003 17.5782 194.003 16.6688L177.943 16.7568C176.095 16.7568 174.658 16.3608 173.631 15.5688C172.634 14.7475 172.135 13.5742 172.135 12.0488C172.135 10.6115 172.531 9.58483 173.323 8.96883C174.115 8.32349 175.362 7.98616 177.063 7.95682L199.371 7.69283C202.891 7.63416 204.651 9.39416 204.651 12.9728C204.651 15.3782 204.563 17.3288 204.387 18.8248C204.211 20.2915 203.918 21.6408 203.507 22.8728C203.009 24.2808 202.275 25.2782 201.307 25.8648C200.339 26.4222 198.887 26.7008 196.951 26.7008C193.519 26.7008 191.803 25.7328 191.803 23.7968ZM193.695 42.0128C193.637 43.5968 193.065 44.7848 191.979 45.5768C190.923 46.3688 189.266 46.7648 187.007 46.7648C183.282 46.7648 181.419 45.7528 181.419 43.7288C181.419 43.1128 181.522 42.5408 181.727 42.0128C181.962 41.4848 182.329 40.9275 182.827 40.3408L182.959 37.0848L175.127 36.9968C173.045 36.9675 171.563 36.5862 170.683 35.8528C169.833 35.0902 169.407 33.8435 169.407 32.1128C169.407 29.2088 171.109 27.7568 174.511 27.7568L201.703 27.9328C203.463 27.9622 204.725 28.3435 205.487 29.0768C206.25 29.7808 206.631 30.8808 206.631 32.3768C206.631 34.1075 206.221 35.3835 205.399 36.2048C204.607 36.9968 203.405 37.3782 201.791 37.3488L193.827 37.2608L193.695 42.0128Z" fill="#C97A3D"/>
</svg>
