<svg width="35" height="41" viewBox="0 0 35 41" fill="none" xmlns="http://www.w3.org/2000/svg">
<path d="M18.1754 15.7748L18.0761 16.0931C18.0454 16.1924 17.5548 16.061 17.5548 15.9427C17.5518 15.0066 17.6351 13.3988 17.7052 12.2933L18.0045 7.59249L18.079 0.591629L18.2251 0.12286C18.263 0.00165225 18.5624 -0.0275545 18.7639 0.0250176L18.6208 8.75784L18.1754 15.7748Z" fill="#270F10"/>
<path d="M18.0512 39.7905C18.0468 39.9394 17.9446 40.2446 17.8599 40.2695C17.7475 40.3016 17.4977 40.2461 17.3984 40.1935L17.5824 32.277L17.6774 24.6935L17.9519 24.4014C18.0278 24.3211 18.2527 24.5796 18.3126 24.6935L18.2498 32.2201L18.0512 39.7919V39.7905Z" fill="#270F10"/>
<path d="M4.78714 20.7127C2.86533 20.5463 -0.0787092 21.1158 0.00160938 20.5214C0.0162128 20.4075 0.255708 20.2235 0.382757 20.2148L3.10629 20.0308L13.1724 20.1447L13.4893 20.39C13.5784 20.4586 13.2848 20.7098 13.1782 20.7551L4.78714 20.7142V20.7127Z" fill="#270F10"/>
<path d="M33.7777 21.5714C31.2528 21.3188 28.8724 21.1815 26.3168 21.1523C24.6769 21.0778 21.1049 20.9362 21.3166 20.517L21.4846 20.1826L27.2033 20.5492L33.7675 20.885L34.153 21.2472C34.2406 21.329 33.8522 21.5845 33.7777 21.5743V21.5714Z" fill="#270F10"/>
<path d="M23.2461 26.9274C23.2768 26.942 23.3191 27.3407 23.2344 27.3465L22.7788 27.3757L19.7355 24.0914C19.7311 23.9454 19.7355 23.6402 19.8319 23.6548L20.2481 23.7176L23.2461 26.9289V26.9274Z" fill="#270F10"/>
<path d="M14.7758 18.0513L13.2614 16.3982L11.8216 15.0299C11.7529 14.9642 11.7208 14.6312 11.7354 14.5378C11.8449 13.8748 13.9288 16.1558 14.8167 17.1883L15.0825 17.4979C15.154 17.5826 15.0007 17.8323 14.7744 18.0528L14.7758 18.0513Z" fill="#270F10"/>
<path d="M20.8698 17.986C20.7837 18.0503 20.4303 18.1934 20.4098 18.1029L20.2974 17.6297L23.4093 15.3122C23.4853 15.2946 23.789 15.2362 23.7993 15.3092L23.8664 15.7751L20.8713 17.9846L20.8698 17.986Z" fill="#270F10"/>
<path d="M12.0509 26.2924C11.9545 26.3859 11.5865 26.4326 11.496 26.4209C11.3762 26.4063 11.4347 26.0105 11.5369 25.9112L13.9975 23.528C14.0764 23.452 14.348 23.363 14.4327 23.3425C14.5437 23.3162 14.6737 23.7295 14.5846 23.8171L12.0509 26.2909V26.2924Z" fill="#270F10"/>
</svg>