<svg width="37" height="74" viewBox="0 0 37 74" fill="none" xmlns="http://www.w3.org/2000/svg">
<path d="M21.8911 52.2571L21.803 52.5395C21.7758 52.6277 21.3404 52.511 21.3404 52.4061C21.3378 51.5754 21.4117 50.1487 21.4739 49.1678L21.7395 44.9965L21.8056 38.7843L21.9352 38.3683C21.9689 38.2607 22.2345 38.2348 22.4134 38.2815L22.2864 46.0306L21.8911 52.2571Z" fill="#270F10"/>
<path d="M21.7814 73.5665C21.7775 73.6986 21.6868 73.9695 21.6116 73.9915C21.5119 74.02 21.2903 73.9708 21.2021 73.9241L21.3654 66.8994L21.4497 60.1701L21.6933 59.911C21.7607 59.8397 21.9602 60.069 22.0133 60.1701L21.9576 66.8489L21.7814 73.5678V73.5665Z" fill="#270F10"/>
<path d="M10.0106 56.6384C8.30525 56.4906 5.69285 56.996 5.76412 56.4686C5.77708 56.3675 5.9896 56.2043 6.10234 56.1965L8.51907 56.0332L17.4513 56.1343L17.7325 56.352C17.8115 56.4129 17.551 56.6358 17.4564 56.6759L10.0106 56.6397V56.6384Z" fill="#270F10"/>
<path d="M35.7363 57.3998C33.4958 57.1756 31.3835 57.0538 29.1158 57.0279C27.6606 56.9618 24.491 56.8361 24.6789 56.4642L24.8279 56.1675L29.9024 56.4927L35.7272 56.7908L36.0693 57.1121C36.147 57.1847 35.8023 57.4115 35.7363 57.4024V57.3998Z" fill="#270F10"/>
<path d="M26.3901 62.1525C26.4173 62.1654 26.4549 62.5192 26.3797 62.5244L25.9754 62.5503L23.2749 59.636C23.271 59.5064 23.2749 59.2355 23.3604 59.2485L23.7297 59.3042L26.3901 62.1538V62.1525Z" fill="#270F10"/>
<path d="M18.8743 54.2769L17.5306 52.81L16.2529 51.5958C16.192 51.5375 16.1635 51.2421 16.1764 51.1592C16.2736 50.5708 18.1228 52.5949 18.9106 53.5111L19.1465 53.7858C19.21 53.861 19.0739 54.0826 18.873 54.2782L18.8743 54.2769Z" fill="#270F10"/>
<path d="M24.2819 54.2186C24.2054 54.2756 23.8918 54.4026 23.8737 54.3222L23.7739 53.9024L26.5353 51.8459C26.6027 51.8303 26.8723 51.7785 26.8813 51.8433L26.9409 52.2567L24.2832 54.2173L24.2819 54.2186Z" fill="#270F10"/>
<path d="M16.457 61.5894C16.3714 61.6723 16.0449 61.7138 15.9645 61.7034C15.8583 61.6904 15.9101 61.3393 16.0008 61.2511L18.1843 59.1363C18.2543 59.069 18.4953 58.9899 18.5705 58.9718C18.6689 58.9484 18.7843 59.3152 18.7052 59.3929L16.457 61.5881V61.5894Z" fill="#270F10"/>
<path d="M9.44184 16.9169C9.43682 17.2515 9.10835 17.8212 8.91528 17.7549C8.72222 17.6885 8.34611 17.1713 8.35112 16.9197L8.4439 11.4521C8.4464 11.2558 8.8175 10.7911 8.94287 10.7109C9.10835 10.6031 9.51455 11.1175 9.51204 11.3692L9.44184 16.9197V16.9169Z" fill="#CE6514"/>
<path d="M16.0259 8.9304C14.3109 9.07697 11.6355 9.04102 10.7705 8.38005C10.605 8.2556 10.8908 7.48953 11.1165 7.50612L15.4894 7.81034L16.2215 7.92096C16.372 7.94309 16.204 8.91657 16.0259 8.9304Z" fill="#CE6514"/>
<path d="M4.96116 8.14782L0.829001 8.08973C0.618381 8.08697 0.154517 7.75787 0.0191183 7.62789C-0.11628 7.4979 0.50555 6.90331 0.688589 6.90331L4.94361 6.87842C5.1768 6.87842 5.64067 7.37898 5.60055 7.59193C5.56043 7.80488 5.16677 8.15058 4.96116 8.14782Z" fill="#CE6514"/>
<path d="M9.10849 4.48024C9.07339 4.82593 8.57442 5.27672 8.36881 5.28225C8.16321 5.28778 7.92501 4.66277 7.9576 4.43046L8.55687 0L9.57486 0.0138329L9.111 4.47747L9.10849 4.48024Z" fill="#CE6514"/>
</svg>