<svg width="372" height="81" viewBox="0 0 372 81" fill="none" xmlns="http://www.w3.org/2000/svg">
<path d="M186.523 67.6497C183.213 67.6083 180.86 67.0084 179.462 65.8499C178.11 64.7328 177.434 62.9331 177.434 60.4507C177.434 58.3406 178.11 56.727 179.462 55.6099C180.86 54.4928 182.887 53.955 185.544 53.9964L228.749 54.4928C231.499 54.5342 233.48 55.1134 234.691 56.2305C235.95 57.3063 236.579 58.9198 236.579 61.0713C236.579 66.0361 234.016 68.4772 228.889 68.3944L186.523 67.6497Z" fill="#C97A3D"/>
<path d="M141.306 32.533L141.376 28.1844H135.847L135.987 32.533H141.306ZM172.522 16.3246C173.035 18.3891 173.455 20.4756 173.782 22.584C174.155 22.4522 174.668 22.2106 175.322 21.8592C176.161 21.376 176.885 21.1344 177.491 21.1344C178.611 21.1344 179.498 21.7274 180.151 22.9134C180.804 24.0555 181.131 25.8344 181.131 28.2503C181.131 30.7101 180.688 32.555 179.801 33.7849C178.914 35.0148 177.678 35.6298 176.091 35.6298C175.765 35.6298 175.322 35.5858 174.762 35.498V37.6723C174.762 40.6592 173.852 42.9433 172.032 44.5246C170.259 46.062 167.623 46.8307 164.123 46.8307C161.23 46.8307 159.177 46.4573 157.964 45.7106C156.751 44.9199 156.144 43.7998 156.144 42.3503C156.144 41.5157 156.261 40.747 156.494 40.0442C156.774 39.3414 157.241 38.5508 157.894 37.6723C158.64 32.7966 159.014 27.9648 159.014 23.177C159.014 20.5854 158.92 18.2573 158.734 16.1928C158.594 14.4798 159.037 13.162 160.064 12.2396C161.137 11.2732 162.793 10.79 165.033 10.79C167.086 10.79 168.742 11.2952 170.002 12.3055C171.262 13.2718 172.102 14.6115 172.522 16.3246ZM154.534 67.783C154.534 66.2896 155.234 65.0816 156.634 64.1592C157.194 63.1489 157.474 61.8751 157.474 60.3377L132.487 59.9424C129.734 59.8984 127.681 59.3274 126.328 58.2293C125.022 57.1312 124.368 55.44 124.368 53.1559C124.368 49.2466 126.888 47.3358 131.927 47.4237L166.713 48.0826C169.186 48.1265 171.075 48.7854 172.382 50.0592C173.735 51.2891 174.412 53.0461 174.412 55.3302C174.412 59.3274 174.132 62.534 173.572 64.9498C173.059 67.3657 171.915 69.1447 170.142 70.2868C168.416 71.4288 165.896 71.9998 162.583 71.9998C159.877 71.9998 157.847 71.6265 156.494 70.8797C155.188 70.133 154.534 69.1008 154.534 67.783ZM121.989 19.2237C121.942 16.8517 122.455 15.1167 123.529 14.0185C124.648 12.9204 126.398 12.3713 128.778 12.3713C130.691 12.3713 132.161 12.7227 133.187 13.4256C134.214 14.1284 134.914 15.2265 135.287 16.7199H141.726C142.006 15.0508 142.683 13.8209 143.756 13.0302C144.829 12.2396 146.369 11.8442 148.375 11.8442C150.755 11.8442 152.481 12.3933 153.555 13.4914C154.674 14.5896 155.211 16.3246 155.164 18.6966L154.884 36.684C154.838 39.2755 154.091 41.2522 152.645 42.6139C151.245 43.9316 149.192 44.5685 146.485 44.5246L130.808 44.2611C125.348 44.2171 122.549 41.5816 122.409 36.3545L121.989 19.2237Z" fill="#C97A3D"/>
<path d="M97.5457 16.8302C97.3589 17.904 97.1953 18.7094 97.0552 19.2463C103.549 20.6333 108.268 22.244 111.211 24.0784C114.154 25.8681 115.626 27.9933 115.626 30.4541C115.626 32.3333 114.901 33.8098 113.453 34.8836C112.005 35.9574 109.949 36.4943 107.286 36.4943C103.409 36.4943 100.489 35.5547 98.5268 33.6756C96.5179 31.7516 93.9484 30.2528 90.8183 29.179C88.3423 31.4161 85.4224 33.161 82.0587 34.4138C78.7417 35.6218 75.308 36.2258 71.7574 36.2258C68.8609 36.2258 66.6885 35.7561 65.2403 34.8165C63.792 33.8321 63.0679 32.4899 63.0679 30.7897C63.0679 29.3132 63.5584 28.1052 64.5395 27.1656C65.5673 26.226 66.9922 25.5773 68.8142 25.2193C71.991 24.1455 74.5138 22.9151 76.3825 21.5281C78.2979 20.1411 79.7462 18.4857 80.7273 16.5618C82.6427 12.7139 85.7728 10.79 90.1176 10.79C92.6403 10.79 94.5558 11.3493 95.8639 12.4679C97.2187 13.5864 97.7793 15.0405 97.5457 16.8302ZM66.5717 48.9773C63.9088 48.9326 61.9934 48.4404 60.8254 47.5008C59.7042 46.5165 59.1436 45.0176 59.1436 43.0043C59.1436 41.1698 59.6808 39.7828 60.7553 38.8433C61.8298 37.9037 63.535 37.4339 65.8709 37.4339L111.912 37.5681C114.201 37.5681 115.836 38.0155 116.817 38.9104C117.798 39.8052 118.289 41.2369 118.289 43.2056C118.289 45.3085 117.728 46.8744 116.607 47.9035C115.485 48.9326 113.687 49.4247 111.211 49.38L99.2276 49.2458V53.4068C99.2276 54.8832 98.5969 56.0018 97.3355 56.7624C96.1208 57.4783 94.182 57.8362 91.5191 57.8362C88.8562 57.8362 86.894 57.4783 85.6326 56.7624C84.418 56.0018 83.8106 54.8832 83.8106 53.4068V49.1115L66.5717 48.9773ZM72.1078 50.6551C74.8174 50.6551 76.8497 51.2591 78.2045 52.4672C79.606 53.6305 80.3068 55.2188 80.3068 57.2322V60.0509H108.758C111.141 60.0509 112.846 60.476 113.874 61.3261C114.948 62.1762 115.485 63.5408 115.485 65.42C115.485 67.7913 114.855 69.4915 113.593 70.5206C112.332 71.5496 110.346 72.0418 107.637 71.997L73.4393 71.1917C70.3091 71.1469 68.02 70.4087 66.5717 68.977C65.1702 67.59 64.376 65.3752 64.1891 62.3328L63.9088 57.2322C63.8154 55.2188 64.4694 53.6305 65.8709 52.4672C67.2725 51.2591 69.3514 50.6551 72.1078 50.6551Z" fill="#C97A3D"/>
<path d="M8.73891 46.1589C8.73891 45.3426 8.87874 44.6552 9.15838 44.0967C9.48463 43.4952 10.0439 42.8722 10.8363 42.2278C11.6752 39.8219 12.2345 37.7382 12.5141 35.9767C12.7938 34.2152 12.9336 31.7878 12.9336 28.6944H9.64776C7.03774 28.6944 5.05692 28.0715 3.7053 26.8256C2.35368 25.5367 1.67787 23.6463 1.67787 21.1544C1.67787 18.9633 2.28377 17.3522 3.49557 16.3211C4.75397 15.29 6.57166 14.7315 8.94865 14.6455L20.0645 14.3878C22.861 14.3448 24.9583 14.9892 26.3566 16.3211C27.7548 17.61 28.4539 19.5433 28.4539 22.1211C28.4539 29.5537 28.0111 35.3322 27.1256 39.4567C27.9645 39.3708 28.6869 39.3278 29.2928 39.3278C31.8096 39.3278 33.7672 39.8863 35.1654 41.0033C36.6102 42.1204 37.3326 43.6671 37.3326 45.6434V53.7634L51.3149 53.9567C54.0647 53.9997 56.0456 54.6011 57.2574 55.7611C58.5158 56.8782 59.145 58.5537 59.145 60.7878C59.145 65.9434 56.5816 68.4782 51.4547 68.3923L9.08847 67.6189C5.77933 67.576 3.42565 66.953 2.02743 65.75C0.675809 64.59 0 62.7212 0 60.1434C0 57.9523 0.675809 56.2767 2.02743 55.1167C3.42565 53.9567 5.45308 53.3982 8.10971 53.4411L21.253 53.57V49.51C19.948 50.0256 18.2702 50.2834 16.2194 50.2834C11.2324 50.2834 8.73891 48.9085 8.73891 46.1589ZM38.1017 46.1589C38.1017 45.3426 38.2415 44.6552 38.5211 44.0967C38.8474 43.4952 39.4067 42.8722 40.199 42.2278C40.7583 39.8219 41.1311 37.7382 41.3176 35.9767C41.504 34.2152 41.5972 31.7878 41.5972 28.6944H37.1229C34.5129 28.6944 32.5321 28.0715 31.1804 26.8256C29.8288 25.5367 29.153 23.6463 29.153 21.1544C29.153 16.9011 31.5766 14.7315 36.4238 14.6455L48.7282 14.3878C51.5246 14.3448 53.622 14.9892 55.0202 16.3211C56.4184 17.61 57.1175 19.5433 57.1175 22.1211C57.1175 27.4485 56.9777 31.7878 56.6981 35.1389C56.4184 38.49 55.9523 41.4115 55.2998 43.9034C54.6939 46.1374 53.622 47.77 52.0839 48.8011C50.5459 49.7893 48.3786 50.2834 45.5822 50.2834C40.5952 50.2834 38.1017 48.9085 38.1017 46.1589Z" fill="#C97A3D"/>
<path d="M216.742 49.0685C211.634 48.1621 206.64 48.0431 201.657 49.0212C196.424 50.0484 191.162 48.0291 188.923 44.2617C186.549 40.2668 188.923 32.1823 197.905 30.5986C201.05 28.7297 199.583 22.0462 209.985 22.0459C219.86 23.2165 219.271 30.5392 222.065 32.1823C229.275 33.449 231.286 39.9746 229.276 43.8312C227.248 47.7211 222.084 50.0169 216.742 49.0685Z" fill="#C97A3D"/>
<path d="M221.074 16.1869C219.02 17.4813 216.452 17.4961 214.772 16.3056C210.288 13.1318 211.481 4.92351 216.895 1.79962C218.896 0.644282 221.352 0.712474 222.967 1.87618C227.279 4.98603 226.274 12.9082 221.076 16.1865L221.074 16.1869Z" fill="#C97A3D"/>
<path d="M187.99 27.9761C186.758 27.5992 185.75 26.9891 184.929 26.2354C182.541 24.0423 181.339 21.2266 181.57 18.4397C181.658 17.3654 182.075 16.376 182.845 15.5534C183.951 14.3704 185.876 14.0763 187.654 14.7407C192.6 16.5899 195.38 23.3187 192.655 26.7789C191.696 27.9977 189.892 28.5597 187.991 27.9777L187.99 27.9761Z" fill="#C97A3D"/>
<path d="M198.436 15.995C192.719 13.3053 190.865 5.0062 195.21 1.63043C196.733 0.446532 199.037 0.270041 201.043 1.19782C206.632 3.78069 208.676 11.7865 204.56 15.4164C203.066 16.7346 200.62 17.0223 198.436 15.995Z" fill="#C97A3D"/>
<path d="M233.185 27.8502C231.107 28.1363 227.332 26.4672 226.565 25.1446C226.008 24.1861 225.897 23.1483 226.132 22.0908C226.699 19.5397 228.595 17.2636 231.432 15.645C232.572 14.9949 234.209 15.2389 235.272 14.3782C235.234 14.3381 238.622 13.8476 239.33 15.2346C241.295 19.0859 238.845 27.0713 233.185 27.8502Z" fill="#C97A3D"/>
<path d="M226.913 45.3959C223.634 42.7624 225.147 37.5205 223.051 36.3958C221.829 35.7403 220.263 36.7431 219.521 37.7781C218.213 39.602 215.659 40.7911 213.507 40.1632C211.759 39.6526 210.263 38.5164 209.622 37.2491C208.614 35.2619 208.898 33.399 209.594 31.6096C210.627 28.9531 206.659 24.9879 204.042 24.0357C206.064 21.6276 211.414 21.8967 214.407 22.3406C216.954 22.7178 219.454 24.4773 220.699 27.0763C221.444 28.6311 222.189 30.4688 223.914 31.1956C226.132 32.1317 228.129 33.3622 229.15 35.6414C230.679 39.0546 230.314 44.0136 226.913 45.3959Z" fill="#2F2F2F"/>
<path d="M185.562 19.5654C190.62 21.655 193.429 26.2467 191.631 27.6435C190.793 28.2939 188.893 28.4883 187.921 28.0361C184.396 26.396 181.972 23.2613 181.627 19.8998C182.539 18.9778 184.332 19.0547 185.565 19.5645L185.562 19.5654Z" fill="#2F2F2F"/>
<path d="M203.743 32.9452C204.553 35.8404 203.633 38.8213 202.001 39.4085C201.019 39.7609 199.789 39.4562 199.029 38.8022C196.756 36.8499 195.566 34.2668 196.238 31.3843C199.025 30.8584 198.964 28.9358 199.955 27.8818C202.065 28.5326 203.17 30.8818 203.746 32.9484L203.743 32.9452Z" fill="#2F2F2F"/>
<path d="M239 14.9995C234.292 17.9125 234.863 18.2616 230.599 21.3279C229.709 21.9662 226.931 22.1908 227.003 20.244C226.847 17.2454 235.757 10.9558 239 14.9995Z" fill="#2F2F2F"/>
<path d="M288.513 38.412C288.513 37.5507 288.649 36.8253 288.921 36.236C289.239 35.6467 289.783 35.0347 290.553 34.4C291.097 33.1307 291.46 31.9973 291.641 31C291.823 30.0027 291.913 28.8013 291.913 27.396L267.093 27.532C264.237 27.532 262.016 26.92 260.429 25.696C258.888 24.4267 258.117 22.6133 258.117 20.256C258.117 18.0347 258.729 16.448 259.953 15.496C261.177 14.4987 263.104 13.9773 265.733 13.932L300.209 13.524C305.649 13.4333 308.369 16.1533 308.369 21.684C308.369 25.4013 308.233 28.416 307.961 30.728C307.689 32.9947 307.236 35.08 306.601 36.984C305.831 39.16 304.697 40.7013 303.201 41.608C301.705 42.4693 299.461 42.9 296.469 42.9C291.165 42.9 288.513 41.404 288.513 38.412ZM291.437 66.564C291.347 69.012 290.463 70.848 288.785 72.072C287.153 73.296 284.592 73.908 281.101 73.908C275.344 73.908 272.465 72.344 272.465 69.216C272.465 68.264 272.624 67.38 272.941 66.564C273.304 65.748 273.871 64.8867 274.641 63.98L274.845 58.948L262.741 58.812C259.523 58.7667 257.233 58.1773 255.873 57.044C254.559 55.8653 253.901 53.9387 253.901 51.264C253.901 46.776 256.531 44.532 261.789 44.532L303.813 44.804C306.533 44.8493 308.483 45.4387 309.661 46.572C310.84 47.66 311.429 49.36 311.429 51.672C311.429 54.3467 310.795 56.3187 309.525 57.588C308.301 58.812 306.443 59.4013 303.949 59.356L291.641 59.22L291.437 66.564ZM325.736 35.896C323.016 35.896 320.999 35.216 319.684 33.856C318.369 32.496 317.667 30.456 317.576 27.736L317.44 21.208V21.004C316.216 20.46 315.264 19.712 314.584 18.76C313.904 17.808 313.564 16.7653 313.564 15.632C313.564 14 314.108 12.6853 315.196 11.688C316.329 10.6453 317.735 10.124 319.412 10.124C320.319 10.124 321.18 10.2827 321.996 10.6C323.311 11.0987 324.399 11.9147 325.26 13.048H325.6L360.28 12.64C362.411 12.5947 363.884 12.98 364.7 13.796C365.561 14.5667 365.992 15.8587 365.992 17.672C365.992 19.5307 365.516 20.868 364.564 21.684C363.612 22.4547 361.957 22.84 359.6 22.84H332.944V25.968H360.824C363 25.968 364.496 26.3307 365.312 27.056C366.128 27.736 366.536 28.96 366.536 30.728C366.536 32.5867 366.037 33.9467 365.04 34.808C364.043 35.624 362.411 36.032 360.144 36.032L349.264 35.964V38.48L363.748 38.548C366.015 38.548 367.601 38.956 368.508 39.772C369.46 40.5427 369.936 41.9027 369.936 43.852C369.936 45.9373 369.392 47.4333 368.304 48.34C367.261 49.2013 365.516 49.6093 363.068 49.564L319.752 49.156C317.123 49.1107 315.264 48.68 314.176 47.864C313.088 47.0027 312.544 45.5747 312.544 43.58C312.544 41.7667 313.043 40.452 314.04 39.636C315.083 38.82 316.76 38.412 319.072 38.412L334.304 38.48V35.896H325.736ZM346.952 70.372C346.952 68.9667 347.587 67.7427 348.856 66.7C349.219 65.9293 349.468 65.272 349.604 64.728C349.74 64.184 349.808 63.5947 349.808 62.96H324.104C321.656 62.96 319.843 62.484 318.664 61.532C317.531 60.5347 316.964 58.948 316.964 56.772C316.964 54.9133 317.463 53.5533 318.46 52.692C319.503 51.8307 321.203 51.4 323.56 51.4L358.784 51.536C361.187 51.536 363.023 52.1933 364.292 53.508C365.607 54.7773 366.264 56.6133 366.264 59.016C366.264 62.688 365.901 65.816 365.176 68.4C364.541 70.576 363.476 72.0947 361.98 72.956C360.484 73.8173 358.081 74.248 354.772 74.248C352.143 74.248 350.171 73.908 348.856 73.228C347.587 72.548 346.952 71.596 346.952 70.372Z" fill="#C97A3D"/>
</svg>
