<svg width="251" height="24" viewBox="0 0 251 24" fill="none" xmlns="http://www.w3.org/2000/svg"><path d="M20.6641 0.756233V2.24023C20.6081 2.96823 20.3841 3.66823 19.9921 4.39623C19.5721 5.15223 19.0401 5.88023 18.4241 6.58023C18.1441 6.88823 17.8641 7.16823 17.5841 7.44823C17.6121 7.44823 17.6681 7.47623 17.6961 7.47623C18.5361 7.75623 19.4041 8.09223 20.3001 8.48423C21.1681 8.90423 22.0921 9.40823 23.1001 9.96823L20.5521 13.2442C18.8441 12.1802 17.1641 11.3682 15.5401 10.8082C14.8121 10.5842 14.0841 10.4162 13.3001 10.2762C12.7681 10.5002 12.1521 10.7522 11.5361 10.9482C10.6401 11.2842 9.68814 11.5642 8.68014 11.7882C7.67214 12.0682 6.60814 12.2922 5.54414 12.4882C4.42414 12.7122 3.33214 12.8802 2.26814 13.0202L0.504141 9.29623C4.20014 8.68023 7.19614 8.00823 9.54814 7.28023C11.8721 6.58023 13.3841 5.79623 14.0561 4.95623H2.24014V0.756233H20.6641ZM8.73614 23.1282V18.5362H0.000140645V14.1962H23.1561V18.5362H14.1401V23.1282H8.73614ZM45.5463 9.88423H25.3023V0.700233H45.5463V9.88423ZM40.6463 6.24423V4.34023H30.2023V6.24423H40.6463ZM33.3663 17.7522V15.1762H23.7903V11.1162H46.9463V15.1762H38.7703V17.7522H33.3663ZM29.9223 16.2962V18.9562H46.0223V23.0162H25.0223V16.2962H29.9223ZM54.7205 5.04023C54.4405 5.04023 54.1605 5.12423 53.9085 5.26423C53.6285 5.43223 53.4045 5.71223 53.2085 6.16023C53.0125 6.60823 52.8725 7.25223 52.7605 8.06423C52.6205 8.90423 52.5645 10.0242 52.5645 11.3682C52.5645 12.7682 52.6205 13.8602 52.7605 14.6722C52.8725 15.5122 53.0125 16.1562 53.2085 16.6042C53.4045 17.0522 53.6285 17.3602 53.9085 17.4722C54.1605 17.6402 54.4405 17.6962 54.7205 17.6962C54.9725 17.6962 55.2245 17.6402 55.5045 17.4722C55.7565 17.3602 55.9805 17.0522 56.2045 16.6042C56.3725 16.1562 56.5405 15.5122 56.6805 14.6722C56.7925 13.8602 56.8765 12.7682 56.8765 11.3682C56.8765 10.0242 56.7925 8.90423 56.6805 8.06423C56.5405 7.25223 56.3725 6.60823 56.2045 6.16023C55.9805 5.71223 55.7565 5.43223 55.5045 5.26423C55.2245 5.12423 54.9725 5.04023 54.7205 5.04023ZM54.7205 0.420233C55.7845 0.420233 56.7365 0.616234 57.6045 1.00823C58.4445 1.42823 59.1445 2.07223 59.7605 2.94023C60.3485 3.83623 60.8245 4.95623 61.1605 6.32823C61.4685 7.72823 61.6365 9.40823 61.6365 11.3682C61.6365 13.3842 61.4685 15.0642 61.1605 16.4362C60.8245 17.8362 60.3485 18.9562 59.7605 19.8242C59.1445 20.7202 58.4445 21.3362 57.6045 21.7282C56.7365 22.1202 55.7845 22.3162 54.7205 22.3162C53.6285 22.3162 52.6765 22.1202 51.8365 21.7282C50.9685 21.3362 50.2405 20.7202 49.6525 19.8242C49.0365 18.9562 48.5885 17.8362 48.2805 16.4362C47.9445 15.0642 47.8045 13.3842 47.8045 11.3682C47.8045 9.40823 47.9445 7.72823 48.2805 6.32823C48.5885 4.95623 49.0365 3.83623 49.6525 2.94023C50.2405 2.07223 50.9685 1.42823 51.8365 1.00823C52.6765 0.616234 53.6285 0.420233 54.7205 0.420233ZM63.7645 23.1002V0.560233H68.9445V23.1002H63.7645Z" fill="#EC7700"/><path d="M81.6416 10.7242C80.6056 10.5002 79.7096 10.1082 79.0096 9.54823C77.7216 8.59623 77.0776 7.28023 77.0776 5.57223C77.0776 4.67623 77.2456 3.89223 77.6376 3.19223C77.9736 2.52023 78.4776 1.93223 79.1496 1.45623C79.7936 0.980234 80.5776 0.616234 81.4736 0.364233C82.3696 0.140233 83.3496 0.000233173 84.4416 0.000233173C85.5056 0.000233173 86.4856 0.140233 87.3816 0.364233C88.2776 0.616234 89.0336 0.980234 89.7056 1.45623C90.3496 1.93223 90.8536 2.52023 91.2456 3.19223C91.6096 3.89223 91.8056 4.67623 91.8056 5.57223C91.8056 7.28023 91.1616 8.59623 89.8736 9.54823C89.0336 10.1642 88.0256 10.5842 86.8216 10.8082V11.7602H88.6136C89.6216 11.7602 90.6016 11.7322 91.4976 11.6202C92.2816 11.5922 92.8416 11.4522 93.1776 11.2562V0.560233H98.3576V6.74823C98.7496 6.60823 99.2256 6.52423 99.8416 6.41223C100.514 6.30023 101.186 6.24423 101.802 6.24423V10.8642C101.354 10.8642 100.766 10.9202 100.094 10.9762C99.4776 11.0602 98.8896 11.1722 98.3576 11.3122V17.3602H93.1776V14.8682C92.7296 15.1482 92.1136 15.3442 91.3016 15.4562C90.4056 15.6242 89.3416 15.6802 88.1096 15.6802H76.7416V11.7602H81.6416V10.7242ZM84.4416 7.08423C85.3376 7.08423 85.9816 6.94423 86.4296 6.63623C86.8216 6.35623 87.0456 5.99223 87.0456 5.48823C87.0456 5.09623 86.8216 4.73223 86.4016 4.39623C85.9536 4.08823 85.3096 3.92023 84.4416 3.92023C83.5456 3.92023 82.8736 4.08823 82.4816 4.39623C82.0336 4.73223 81.8376 5.09623 81.8376 5.48823C81.8376 5.99223 82.0336 6.35623 82.4816 6.63623C82.8736 6.94423 83.5456 7.08423 84.4416 7.08423ZM82.9016 16.6322V19.1242H98.6376V23.0442H78.0016V16.6322H82.9016ZM116.136 15.9882H110.816V18.5642H116.136V15.9882ZM103.284 6.16023H119.048V4.76023H103.424V0.560233H123.808V10.3602H108.044V11.7882H124.228V15.9882H121.036V18.5642H125.208V22.7642H102.052V18.5642H105.916V15.9882H103.284V6.16023ZM140.767 1.06423V5.26423H131.807V10.6962H136.903C137.295 10.6962 137.687 10.6962 138.107 10.6682C138.499 10.6682 138.863 10.6682 139.255 10.6402C139.619 10.6402 139.983 10.6122 140.319 10.5562C140.655 10.5282 140.963 10.4722 141.243 10.4162V14.4202C140.683 14.6162 140.039 14.7282 139.255 14.7842C138.443 14.8682 137.631 14.8962 136.791 14.8962H136.371V17.8362H138.163C139.171 17.8362 140.151 17.8082 141.047 17.6962C141.831 17.6402 142.391 17.5282 142.727 17.3602V0.560233H147.907V23.1002H142.727V21.1122C142.279 21.3922 141.663 21.5602 140.851 21.6722C139.955 21.8402 138.891 21.8962 137.659 21.8962H126.291V17.8362H131.191V14.8962H126.627V1.06423H140.767ZM156.727 8.62423C157.399 8.62423 158.015 8.45623 158.519 8.12023C158.995 7.78423 159.247 7.28023 159.247 6.60823C159.247 6.02023 158.995 5.54423 158.547 5.15223C158.071 4.78823 157.455 4.59223 156.727 4.59223C155.943 4.59223 155.355 4.78823 154.907 5.15223C154.431 5.54423 154.207 6.02023 154.207 6.60823C154.207 7.28023 154.431 7.78423 154.935 8.12023C155.411 8.45623 155.999 8.62423 156.727 8.62423ZM156.727 12.9082C154.403 12.9082 152.611 12.3482 151.351 11.2282C150.063 10.1082 149.447 8.56823 149.447 6.60823C149.447 4.70423 150.063 3.19223 151.351 2.01623C152.611 0.868234 154.403 0.280233 156.727 0.280233C159.023 0.280233 160.815 0.868234 162.103 2.01623C162.943 2.80023 163.503 3.72423 163.783 4.81623H164.315C164.539 4.84423 164.735 4.84423 164.959 4.81623C165.183 4.81623 165.407 4.81623 165.631 4.78823C165.827 4.78823 166.023 4.78823 166.247 4.73223V0.560233H171.147V12.9362H166.247V8.90423C165.799 8.98823 165.211 9.04423 164.511 9.07223C164.175 9.10023 163.867 9.12823 163.559 9.12823C163.251 9.94023 162.747 10.6402 162.103 11.2282C160.815 12.3482 159.023 12.9082 156.727 12.9082ZM149.783 20.2442C151.323 19.5162 152.527 18.6482 153.395 17.6122C154.235 16.6042 154.683 15.4002 154.767 14.0002H159.359C159.331 15.0642 159.163 16.0722 158.883 16.9962C159.219 17.1362 159.555 17.3042 159.919 17.4722C160.647 17.8642 161.375 18.2842 162.103 18.7602C162.775 18.3962 163.363 17.8082 163.811 16.9682C164.231 16.1842 164.483 15.3162 164.539 14.3642V14.0002H169.131V15.1482C169.075 15.8482 168.963 16.5482 168.767 17.2202C169.299 17.4722 169.803 17.7522 170.307 18.0322C171.343 18.7042 172.351 19.4882 173.303 20.4122L170.783 23.7722C169.831 22.8202 168.823 22.0362 167.787 21.3642C167.423 21.1682 167.087 20.9442 166.723 20.7482C166.107 21.4202 165.435 22.0362 164.651 22.5122C163.727 23.1282 162.747 23.5482 161.683 23.8282L159.695 22.2882C159.023 21.7842 158.295 21.3642 157.567 21.0002C157.315 20.8882 157.035 20.7762 156.811 20.6922C155.551 22.0922 153.983 23.1002 152.023 23.7442L149.783 20.2442ZM172.914 5.57223C175.938 5.12423 178.206 4.48023 179.718 3.64023C181.23 2.82823 182.042 1.98823 182.154 1.14823L182.21 0.644233H187.446V0.952233C187.362 1.56823 187.222 2.10023 187.026 2.63223C188.314 2.85623 189.574 3.16423 190.806 3.58423C192.43 4.17223 194.054 4.90023 195.622 5.76823L193.718 9.21223C192.878 8.76423 192.066 8.37223 191.338 8.00823C190.582 7.67223 189.826 7.39223 189.07 7.11223C188.314 6.86023 187.53 6.63623 186.718 6.41223C185.99 6.27223 185.178 6.10423 184.366 5.93623C184.142 6.10423 183.89 6.24423 183.666 6.38423C181.398 7.72823 178.234 8.65223 174.146 9.15623L172.914 5.57223ZM195.622 13.5522H172.466V10.0522H195.622V13.5522ZM189.546 14.3642H194.39V23.1002H173.782V14.3362H178.682V15.7362H189.546V14.3642ZM178.682 18.9562V19.8802H189.546V18.9562H178.682ZM202.22 0.924233V17.5842H206.476C207.26 17.5842 208.044 17.5562 208.828 17.4442C209.612 17.3882 210.256 17.2762 210.816 17.1082V21.2522C210.312 21.5322 209.64 21.7002 208.856 21.7842C208.016 21.8962 207.204 21.9242 206.364 21.9242H197.04V0.924233H202.22ZM212.44 23.1002V0.560233H217.62V23.1002H212.44ZM232.613 1.06423V5.26423H225.053V17.7242H229.309C230.093 17.7242 230.877 17.6962 231.661 17.5842C232.445 17.5282 233.089 17.4162 233.649 17.2482V21.2522C233.145 21.5322 232.473 21.7002 231.689 21.7842C230.849 21.8962 230.037 21.9242 229.197 21.9242H219.873V1.06423H232.613ZM243.897 8.03623V12.8802C243.449 12.8802 242.861 12.9362 242.189 12.9922C241.573 13.0762 240.985 13.1882 240.453 13.3282V23.1002H235.273V0.560233H240.453V8.54023C240.985 8.37223 241.573 8.23223 242.217 8.14823C242.917 8.09223 243.477 8.03623 243.897 8.03623ZM245.288 0.952233H250.188V14.7562H245.288V0.952233ZM245.26 17.2482H250.16V22.7362H245.26V17.2482Z" fill="#43270B"/></svg>
