<svg width="52" height="52" viewBox="0 0 52 52" fill="none" xmlns="http://www.w3.org/2000/svg">
<circle cx="26" cy="26" r="26" fill="#E97E12"/>
<path d="M24.8002 21.2C24.8002 23.1882 23.1884 24.8 21.2002 24.8C19.212 24.8 17.6002 23.1882 17.6002 21.2C17.6002 19.2118 19.212 17.6 21.2002 17.6C23.1884 17.6 24.8002 19.2118 24.8002 21.2Z" fill="white"/>
<path d="M34.4002 21.2C34.4002 23.1882 32.7884 24.8 30.8002 24.8C28.812 24.8 27.2002 23.1882 27.2002 21.2C27.2002 19.2118 28.812 17.6 30.8002 17.6C32.7884 17.6 34.4002 19.2118 34.4002 21.2Z" fill="white"/>
<path d="M29.5152 34.4C29.5712 34.0081 29.6002 33.6074 29.6002 33.2C29.6002 31.2378 28.9274 29.4327 27.7999 28.0029C28.6825 27.4923 29.7072 27.2 30.8002 27.2C34.1139 27.2 36.8002 29.8863 36.8002 33.2V34.4H29.5152Z" fill="white"/>
<path d="M21.2002 27.2C24.5139 27.2 27.2002 29.8863 27.2002 33.2V34.4H15.2002V33.2C15.2002 29.8863 17.8865 27.2 21.2002 27.2Z" fill="white"/>
</svg>
