<svg width="52" height="52" viewBox="0 0 52 52" fill="none" xmlns="http://www.w3.org/2000/svg">
<circle cx="26" cy="26" r="26" fill="#99C35C"/>
<path fill-rule="evenodd" clip-rule="evenodd" d="M25.9999 35.6C31.3018 35.6 35.5999 31.3019 35.5999 26C35.5999 20.6981 31.3018 16.4 25.9999 16.4C20.698 16.4 16.3999 20.6981 16.3999 26C16.3999 31.3019 20.698 35.6 25.9999 35.6ZM19.198 23.6329C19.6464 22.3443 20.4506 21.2224 21.493 20.3847C21.8144 20.8756 22.3693 21.1999 22.9999 21.1999C23.994 21.1999 24.7999 22.0058 24.7999 22.9999V23.5999C24.7999 24.9254 25.8744 25.9999 27.1999 25.9999C28.5254 25.9999 29.5999 24.9254 29.5999 23.5999C29.5999 22.4718 30.3783 21.5254 31.4273 21.2686C32.5312 22.5339 33.1999 24.1888 33.1999 25.9999C33.1999 26.4088 33.1658 26.8098 33.1003 27.2001H31.9999C30.6744 27.2001 29.5999 28.2746 29.5999 29.6001V32.2367C28.5409 32.8493 27.3112 33.1999 25.9998 33.1999V30.8C25.9998 29.4745 24.9253 28.4 23.5998 28.4C22.2743 28.4 21.1998 27.3255 21.1998 26C21.1998 24.8102 20.334 23.8226 19.198 23.6329Z" fill="white"/>
</svg>
