<svg width="64" height="59" viewBox="0 0 64 59" fill="none" xmlns="http://www.w3.org/2000/svg">
<path d="M30.3374 51.9368C26.4733 49.7279 22.4688 48.2146 18.1497 47.629C13.6136 47.0137 9.95249 43.8233 9.2519 40.0152C8.50913 35.9773 12.8123 29.8365 20.5444 31.0433C23.6392 30.3583 24.4224 24.3113 32.837 27.2543C40.4795 31.0348 37.8451 37.0387 39.621 39.2139C45.0798 42.3213 44.7825 48.3889 42.0197 51.07C39.233 53.7741 34.3793 54.2475 30.3374 51.9368Z" fill="#E3B58A"/>
<path d="M43.5325 25.4591C41.4897 25.9687 39.408 25.2546 38.4004 23.7762C35.7083 19.8329 39.0928 13.2537 44.3926 12.1531C46.352 11.7458 48.3189 12.4983 49.2819 13.9358C51.8531 17.7763 48.7053 24.1677 43.5342 25.4593L43.5325 25.4591Z" fill="#E3B58A"/>
<path d="M13.2995 26.0284C12.4145 25.3623 11.7785 24.5629 11.3371 23.6957C10.052 21.172 9.90914 18.4591 10.9173 16.176C11.3057 15.2959 11.9343 14.58 12.7994 14.1046C14.043 13.4208 15.687 13.7177 16.9295 14.7806C20.3853 17.7384 20.6501 24.1948 17.4261 26.3396C16.2909 27.0951 14.6667 27.0586 13.3001 26.0301L13.2995 26.0284Z" fill="#E3B58A"/>
<path d="M25.2803 18.8842C21.4482 15 22.3948 7.48217 26.9046 5.86698C28.4853 5.30022 30.4009 5.80336 31.7501 7.15274C35.5098 10.9106 34.8036 18.2352 30.4047 20.1294C28.8075 20.8175 26.7437 20.3677 25.2803 18.8842Z" fill="#E3B58A"/>
<path d="M49.8918 38.704C48.1267 38.3571 45.5652 35.8825 45.3338 34.5508C45.1665 33.5857 45.3824 32.6798 45.8841 31.8551C47.0944 29.8658 49.299 28.4842 52.071 27.9231C53.1851 27.6979 54.4375 28.3668 55.5503 27.942C55.5314 27.8975 58.4171 28.443 58.581 29.8121C59.0352 33.6134 54.6997 39.649 49.8918 38.704Z" fill="#E3B58A"/>
</svg>
